<svg width="216" height="218" viewBox="0 0 216 218" fill="none" xmlns="http://www.w3.org/2000/svg">
<path fill-rule="evenodd" clip-rule="evenodd" d="M41.8671 85.3259C41.6696 82.81 40.746 78.7823 37.4584 78.9705C34.7153 79.1278 32.3603 83.4229 32.8683 85.9317C33.237 87.7527 33.8294 86.7182 34.3312 85.8428C34.3968 85.7283 34.4609 85.6163 34.5228 85.5141C35.153 84.47 36.2939 83.2071 37.6485 83.4749C38.8145 83.7058 39.3076 84.8582 39.7558 85.9063C39.8864 86.2109 40.013 86.5068 40.151 86.7687C41.2128 88.7794 41.5811 86.8346 41.8278 85.5311C41.8411 85.4606 41.8544 85.3918 41.8671 85.3259ZM28.2219 92.7018C25.8867 93.5487 28.428 96.3906 29.533 97.0062C29.3188 97.6241 28.3423 98.1831 27.6074 98.6038L27.6071 98.6041C27.4065 98.7189 27.2242 98.8232 27.08 98.9158C26.2108 99.4742 25.1005 99.8144 24.0806 100.127L23.9589 100.164L23.8574 100.195C20.9796 101.08 18.1827 101.209 15.2127 100.775C12.3588 100.358 9.09069 99.429 7.24957 97.0898C6.45313 96.0783 5.72108 94.5383 6.48501 93.2717C6.8416 92.6802 7.46965 92.374 8.10884 92.0623C8.70346 91.7723 9.30767 91.4779 9.71099 90.9446C9.8995 90.6954 10.0372 90.4035 10.1728 90.1157C10.2969 89.8526 10.4192 89.5926 10.578 89.3719C10.6337 89.2942 10.6814 89.2261 10.7232 89.1663C10.8745 88.9496 10.9488 88.8438 11.05 88.7992C11.1472 88.7565 11.2692 88.7707 11.5085 88.7983C11.6171 88.811 11.7502 88.8261 11.9158 88.8404C13.5595 88.9797 15.312 89.0855 16.9303 88.6896C17.6243 88.52 18.3077 88.2659 18.9878 88.0133C19.5001 87.8229 20.0102 87.6335 20.5215 87.4812C21.7847 87.1045 22.9826 86.3127 23.9595 85.4593C26.213 83.4904 28.419 81.3509 30.5056 79.2052C31.6512 78.0271 32.5693 76.6623 33.4889 75.2954C34.2343 74.1876 34.9806 73.0782 35.8501 72.0654C36.2936 71.5488 36.7338 71.0031 37.1804 70.4496C38.9491 68.2575 40.8169 65.9422 43.3919 64.8158C44.8517 64.1775 45.1405 64.5737 45.6893 65.3265H45.6896C45.8372 65.5292 46.0041 65.758 46.218 65.9994C47.0707 66.9621 48.2535 66.7983 49.4059 66.6383C49.6516 66.6043 49.8959 66.5705 50.1351 66.5476C50.0194 66.8113 49.8931 67.0788 49.7652 67.3496C49.2561 68.429 48.7205 69.5637 48.6958 70.74C48.6877 71.1309 48.7914 71.4993 48.8942 71.8636C48.992 72.2109 49.0886 72.5542 49.0864 72.9095C49.0833 73.3902 48.8227 73.8493 48.567 74.3002C48.4383 74.5268 48.3107 74.7519 48.2179 74.976C46.9695 77.9843 46.6677 82.0603 46.621 85.2906C46.5247 91.9735 48.5252 99.0919 52.7801 104.332C53.6778 105.437 54.6872 106.459 55.8154 107.331C56.0253 107.494 56.4942 107.732 57.0257 108.003H57.026C58.0475 108.522 59.2999 109.16 59.3868 109.598C59.5955 110.646 57.715 110.758 56.5803 110.825H56.58C56.32 110.84 56.0993 110.853 55.9516 110.875C55.1849 110.987 54.4222 111.121 53.6598 111.255H53.6595H53.6592V111.255H53.6589C52.7659 111.412 51.8725 111.57 50.973 111.691C44.2908 112.589 37.6943 113.307 30.9575 112.944C30.6864 112.929 30.3292 112.969 29.9509 113.011C29.2891 113.085 28.562 113.166 28.1138 112.977C27.4536 112.697 27.4997 112.197 27.5554 111.592C27.5697 111.438 27.5845 111.278 27.5885 111.113C27.6263 109.572 27.4731 108.049 27.3196 106.522C27.2648 105.976 27.2097 105.429 27.1632 104.881C27.0512 103.554 27.2672 103.414 27.9687 102.956C28.1565 102.834 28.3794 102.689 28.6397 102.492C29.9153 101.529 31.1624 99.7413 31.5788 98.2091C32.3449 98.8269 32.2582 99.2603 32.1458 99.8202C32.0842 100.128 32.0152 100.473 32.075 100.908C32.2811 102.405 33.2933 102.16 33.961 101.158C34.9967 99.6032 34.905 97.1462 33.9371 95.5926C33.0701 94.2015 29.9766 92.0654 28.2219 92.7018ZM81.6313 147.89H81.6316C82.2677 148.402 82.9032 148.913 83.5504 149.412C84.2029 149.915 84.6963 150.414 85.1814 151.069C85.2161 151.116 85.2492 151.161 85.2804 151.203C85.7921 151.89 85.85 151.968 85.4556 152.76C85.0229 153.629 84.3893 154.319 83.7575 155.008C83.2963 155.51 82.8357 156.012 82.4553 156.581C82.1232 157.078 81.8291 157.594 81.5366 158.109L81.5363 158.109C80.9234 159.185 80.3152 160.253 79.3705 161.122C78.7461 159.714 77.9395 161.771 78.9761 161.554C78.6756 162.446 78.1432 163.255 77.6108 164.064C77.2904 164.551 76.97 165.037 76.7001 165.542C75.8511 167.13 74.9228 168.572 73.9177 170.065L73.8867 169.953C73.8592 169.854 73.8316 169.755 73.8044 169.656L73.7326 169.397C73.692 169.25 73.6512 169.103 73.6103 168.956C72.8646 169.134 73.1435 169.593 73.3494 169.933C73.4135 170.039 73.4704 170.133 73.4877 170.203C73.5057 170.278 73.5373 170.333 73.5688 170.388C73.6428 170.517 73.7159 170.644 73.6097 171.029C73.5289 171.32 73.3076 171.58 73.0962 171.829C73.0092 171.931 72.9238 172.032 72.8507 172.131C72.3598 172.801 71.8983 173.488 71.4355 174.177C71.3677 174.278 71.2999 174.379 71.2322 174.48C70.8511 175.046 70.6505 175.54 70.4394 176.06C70.3608 176.254 70.2806 176.451 70.1887 176.658C70.0036 177.075 69.8278 177.187 69.6068 177.327C69.4687 177.415 69.3127 177.514 69.1261 177.707C68.8094 178.032 68.4937 178.511 68.1916 178.969C68.0155 179.236 67.8437 179.496 67.6793 179.715C66.3502 181.483 65.156 183.507 64.2487 185.518C63.8541 186.393 63.3071 187.149 62.7592 187.906C62.107 188.808 61.4539 189.71 61.0571 190.816C60.8485 191.396 60.7138 191.993 60.5792 192.589C60.473 193.06 60.3665 193.531 60.2238 193.994C60.1071 194.372 59.9616 194.74 59.8162 195.108C59.5846 195.692 59.3534 196.277 59.2386 196.901C59.1463 197.401 59.1439 197.947 59.1414 198.464C59.1398 198.819 59.1383 199.161 59.1076 199.463C59.0891 199.645 59.0529 199.857 59.0139 200.088L59.0135 200.088C58.9228 200.621 58.8154 201.253 58.8678 201.848C59.0265 203.643 59.7713 205.201 60.6606 206.697C56.6041 208.072 51.9889 208.458 47.7331 208.359C45.558 208.307 43.0793 208.287 40.9509 208.79C40.6949 208.85 40.4513 208.914 40.2142 208.976C39.3119 209.212 38.5059 209.422 37.4819 209.342C36.6248 209.275 35.7683 209.199 34.9115 209.123C34.4773 209.084 34.0433 209.045 33.609 209.008C33.9384 208.344 34.9196 207.53 35.6232 206.947C35.7247 206.862 35.8203 206.783 35.9076 206.709C36.0998 206.547 36.3527 206.444 36.597 206.345C36.8591 206.239 37.1114 206.136 37.2693 205.968C37.5318 205.689 37.6574 205.096 37.7565 204.628C37.7893 204.473 37.819 204.332 37.85 204.221C38.8074 200.786 39.5143 197.319 40.1139 193.805C41.1734 187.596 41.5842 181.274 41.9755 175.026C41.9881 174.822 42.0405 174.598 42.0928 174.375C42.1553 174.107 42.2181 173.839 42.2119 173.606C42.2045 173.322 42.177 173.089 42.1507 172.868C42.1132 172.552 42.0782 172.259 42.1092 171.873C42.1253 171.672 42.2488 171.439 42.3701 171.211C42.5007 170.965 42.6283 170.724 42.6171 170.534C42.6088 170.39 42.4933 170.359 42.3686 170.326C42.2144 170.285 42.046 170.24 42.0463 169.972C42.0473 169.556 42.402 169.032 42.7326 168.543C42.9558 168.212 43.1678 167.899 43.2517 167.647C43.2984 167.505 43.2176 167.336 43.1359 167.166C43.0681 167.024 43 166.882 43.0044 166.755C43.0013 166.842 43.2365 165.782 43.2458 165.741C43.2761 165.609 43.3436 165.515 43.4108 165.421C43.5043 165.29 43.5971 165.16 43.5888 164.93C43.5841 164.802 43.5108 164.659 43.4352 164.512C43.3096 164.267 43.1774 164.01 43.3464 163.789C43.4365 163.671 43.6423 163.703 43.8475 163.734C44.063 163.768 44.2775 163.801 44.3552 163.66C44.4539 163.48 44.2827 163.082 44.102 162.66C43.9258 162.249 43.7404 161.817 43.7872 161.546C43.8692 161.074 44.0856 160.599 44.3035 160.12C44.4985 159.693 44.6947 159.262 44.7972 158.828C44.8288 158.694 44.8387 158.534 44.8486 158.368C44.8693 158.031 44.8913 157.668 45.1042 157.442C45.406 157.12 45.6846 157.178 46.0127 157.245C46.248 157.294 46.5083 157.347 46.8203 157.27C46.0579 156.623 45.9103 156.057 46.1353 155.112C46.3114 154.375 46.6621 153.556 47.4685 154.292C47.3481 153.192 47.3524 153.02 48.1742 152.186C48.3092 152.049 48.4478 151.88 48.5905 151.707C48.8691 151.368 49.1638 151.009 49.4789 150.829C49.6232 150.677 49.7677 150.525 49.912 150.374C50.1073 150.578 50.3397 150.693 50.6087 150.719C51.0455 150.696 51.4408 150.661 51.8091 150.627C53.3843 150.485 54.4655 150.387 56.1813 151.507C56.4203 151.663 56.6589 151.809 56.8951 151.953C57.5414 152.347 58.1691 152.729 58.7312 153.285C59.0925 153.642 59.424 154.026 59.7558 154.41C60.2099 154.936 60.6643 155.462 61.1942 155.919C61.4873 156.172 61.7792 156.412 62.068 156.649C62.7896 157.242 63.4922 157.82 64.145 158.544C64.2648 158.677 64.384 158.813 64.5035 158.949C65.1386 159.673 65.7887 160.414 66.6411 160.846C66.7123 159.728 66.1552 158.719 65.6138 157.739C65.5673 157.655 65.5209 157.571 65.4754 157.488C65.4058 157.361 64.9009 157.02 64.9121 157.057C64.8814 156.951 64.9241 156.852 64.9656 156.756C65.0071 156.66 65.047 156.567 65.0111 156.473C65.3101 156.743 65.6122 157.058 65.9208 157.379C66.5185 158.002 67.1392 158.648 67.8025 159.04C69.3242 159.94 68.8082 158.377 68.4751 157.369V157.369C68.4488 157.29 68.4241 157.214 68.4011 157.143C67.5084 154.368 65.8911 151.707 64.0212 149.467C60.7494 145.548 55.2917 141.172 50.0686 143.639C44.8919 146.084 42.1649 150.19 40.6794 155.652C38.9559 161.993 38.1644 168.051 38.0007 174.618C37.9066 178.378 37.5231 182.107 37.1278 185.846C37.0145 186.919 36.9207 188.017 36.826 189.126V189.126C36.5991 191.787 36.3676 194.5 35.8479 197.029C35.3858 196.356 35.1134 195.849 34.8828 195.093C34.8422 194.961 34.8413 194.83 34.8403 194.7C34.8388 194.529 34.8376 194.358 34.7469 194.188C34.7091 194.117 34.5924 194.087 34.4785 194.057C34.3699 194.029 34.2634 194.002 34.2293 193.94L34.1631 193.821C33.5954 192.798 32.8401 191.437 32.5866 190.291C32.5318 190.044 32.5185 189.837 32.5058 189.642C32.4863 189.343 32.4687 189.073 32.3062 188.727C32.1898 188.48 32.1 188.455 32.0276 188.435C31.9431 188.412 31.8824 188.395 31.8307 188.039C31.8267 188.011 31.8629 187.978 31.9115 187.933C32.023 187.83 32.2006 187.666 32.1099 187.368C31.8753 186.598 31.6899 186.897 31.5456 187.13C31.4875 187.224 31.4358 187.307 31.3906 187.305C31.1934 187.297 31.385 186.482 31.5543 185.762C31.6645 185.293 31.7654 184.864 31.7425 184.727C31.7057 184.507 31.6332 184.474 31.5599 184.44C31.4998 184.413 31.4392 184.385 31.398 184.253C31.3163 183.99 31.216 183.608 31.1544 183.243C31.0764 182.777 30.9575 182.443 30.8439 182.123C30.6851 181.677 30.5369 181.26 30.5257 180.556C30.5118 179.671 30.3069 178.977 30.0939 178.256C29.9565 177.791 29.816 177.316 29.7212 176.77C29.6983 176.64 29.7593 176.502 29.8181 176.368C29.8754 176.238 29.9308 176.112 29.9057 176.002C29.8522 175.763 29.7373 175.545 29.6203 175.323C29.5089 175.11 29.3953 174.895 29.3312 174.654C29.1749 174.068 29.2851 173.527 29.395 172.987C29.4783 172.577 29.5615 172.168 29.5284 171.74C29.5411 171.902 29.2201 171.008 29.2 170.93C29.1375 170.684 29.1232 170.393 29.109 170.099C29.0966 169.85 29.0842 169.599 29.0424 169.372C29.0214 169.259 28.9886 169.137 28.9548 169.011C28.8493 168.618 28.7326 168.183 28.9264 167.855C29.0127 167.709 29.152 167.654 29.2984 167.597C29.4492 167.538 29.6073 167.476 29.7234 167.308C29.5309 167.246 29.3916 167.214 29.2876 167.189C29.1632 167.161 29.0895 167.144 29.0356 167.101C28.9579 167.04 28.9214 166.925 28.8326 166.646C28.8106 166.576 28.7852 166.497 28.7552 166.405C28.4651 165.519 28.437 164.777 29.3978 165.363C29.3204 165.173 29.2223 164.969 29.1207 164.759C28.9035 164.308 28.6719 163.828 28.6047 163.391C28.5574 163.085 28.5942 162.784 28.6311 162.482C28.6642 162.209 28.6976 161.935 28.6682 161.659C28.6317 161.313 28.5797 160.997 28.5302 160.698C28.3574 159.651 28.2197 158.816 28.9093 157.639C28.0798 157.215 28.0946 156.043 28.1079 154.994C28.1132 154.567 28.1185 154.159 28.0662 153.832C28.0306 153.609 27.986 153.389 27.9417 153.172V153.172C27.743 152.191 27.5591 151.285 28.3135 150.625C27.3997 149.968 27.5641 148.159 27.6895 146.781C27.7244 146.397 27.7563 146.046 27.761 145.763C27.7712 145.142 27.7523 144.515 27.7325 143.864V143.864C27.7127 143.213 27.6919 142.536 27.6994 141.814C27.7059 141.201 27.5777 140.732 27.431 140.195C27.3824 140.016 27.3316 139.83 27.283 139.629C27.1332 139.009 27.1636 138.475 27.1942 137.931C27.2152 137.563 27.2363 137.19 27.2016 136.783C27.17 136.414 27.0886 136.045 27.0063 135.67C26.91 135.232 26.8122 134.787 26.7902 134.328C26.7748 134.007 26.7748 133.671 26.7751 133.332C26.7751 132.755 26.7754 132.168 26.698 131.63C26.663 131.386 26.6197 131.166 26.5776 130.951C26.4977 130.544 26.4213 130.154 26.4095 129.655C26.4077 129.569 26.3906 129.457 26.3727 129.339C26.3433 129.148 26.3117 128.942 26.3405 128.812C26.3405 128.812 26.3436 128.805 26.3495 128.793V128.792C26.4005 128.68 26.6553 128.117 26.6534 128.409C26.6568 127.94 26.568 127.475 26.4767 126.996C26.3318 126.24 26.1805 125.447 26.3745 124.546C26.6024 123.49 26.798 123.507 27.6542 123.578H27.6545H27.6551C27.7801 123.588 27.9191 123.6 28.0745 123.609L28.2646 123.621C29.1638 123.676 30.0627 123.732 30.9637 123.736C31.3169 123.737 31.8914 123.669 32.5541 123.59C34.2358 123.39 36.4865 123.123 37.1352 123.755C37.6878 124.293 37.5955 126.314 37.5299 127.755C37.5064 128.267 37.4866 128.705 37.4999 128.979C37.5454 129.915 37.0709 130.493 36.5604 131.114C36.1463 131.618 35.7086 132.151 35.5068 132.928C34.6481 136.232 36.0667 140.594 39.9384 140.876C43.5498 141.14 47.0141 138.17 46.5182 134.52C46.3192 133.056 45.6444 131.462 44.3706 130.604C43.7915 130.215 42.9062 130.146 42.0414 130.079C41.0664 130.004 40.1173 129.931 39.6626 129.401C39.3676 129.057 39.3763 127.982 39.3828 127.197C39.3849 126.917 39.3868 126.673 39.3747 126.514C39.3602 126.323 39.3302 126.092 39.2977 125.843C39.1785 124.93 39.0271 123.768 39.4849 123.439C40.1436 122.965 42.1776 122.956 42.9291 122.954L42.9932 122.954C44.0336 122.951 44.9854 122.949 46.0211 122.774C47.0354 122.602 48.0485 122.507 49.0582 122.414V122.413C50.3769 122.291 51.6896 122.168 52.9912 121.875C55.2731 121.361 57.3814 120.823 59.5311 119.904C59.8719 122.194 60.6117 124.27 61.362 126.375V126.375V126.376C61.5821 126.993 61.8031 127.613 62.0151 128.242C62.4571 129.553 63.1465 130.889 63.8234 132.093C63.9073 132.243 63.9955 132.431 64.089 132.631V132.632C64.4834 133.475 64.9709 134.519 65.6206 133.644C65.6822 133.905 65.6778 134.105 65.6738 134.295C65.6689 134.517 65.6645 134.727 65.7642 135.008C65.9521 135.538 66.7055 136.161 67.3336 136.68V136.68C67.5799 136.883 67.8068 137.071 67.9731 137.231C68.3696 137.613 68.7939 137.933 69.222 138.255L69.2223 138.256C69.4081 138.396 69.5944 138.536 69.7795 138.682C69.8374 138.728 69.925 138.734 70.0113 138.74C70.1058 138.746 70.1986 138.752 70.25 138.81C70.3602 138.936 70.3416 139.091 70.3268 139.215C70.3169 139.296 70.3085 139.364 70.3391 139.403C71.0387 140.282 72.1131 140.975 73.1274 141.629C73.5045 141.873 73.8728 142.11 74.2105 142.35C75.9934 143.616 77.7677 144.882 79.5051 146.208C80.2257 146.759 80.9287 147.324 81.631 147.89H81.6313V147.89ZM55.1799 101.544C56.4939 103.059 58.5291 105.37 60.5649 105.827C62.5562 106.273 65.6816 105.653 67.4586 104.675C67.3806 104.229 67.818 103.454 68.2256 102.732C68.4739 102.292 68.7113 101.872 68.815 101.556C68.915 101.252 68.9317 101.015 68.9487 100.778C68.9608 100.606 68.9732 100.434 69.0171 100.236C69.0533 100.074 69.1186 99.9883 69.1781 99.9103C69.262 99.8004 69.3347 99.7057 69.2985 99.4308C69.2372 98.9566 68.8945 98.6975 68.5593 98.444C68.3033 98.2503 68.0514 98.0599 67.9331 97.7791C67.8842 97.664 67.9387 97.2523 67.9833 96.9131C68.0071 96.7317 68.0285 96.571 68.0294 96.4881C68.0396 95.8229 67.9805 95.3994 67.6437 94.8283C67.1101 93.923 66.3074 93.1881 65.5166 92.4638C65.0916 92.0747 64.67 91.6884 64.2951 91.2804C63.9677 90.9242 63.772 90.5518 63.5671 90.1621C63.4653 89.9686 63.3613 89.7708 63.2378 89.5687C63.1059 89.3527 62.9338 89.157 62.7642 88.9636C62.537 88.7051 62.3132 88.4504 62.1943 88.1575C62.0934 87.9093 62.0643 87.6134 62.0349 87.3147C62.008 87.0438 61.9811 86.7705 61.9003 86.5281C61.7467 86.0694 61.5093 85.6571 61.2719 85.2448C61.093 84.935 60.9144 84.6248 60.7714 84.2945C60.0917 82.7246 59.9161 80.8559 59.7546 79.138C59.7388 78.9708 59.7233 78.8052 59.7075 78.6415L59.6116 78.6638C57.5655 79.1414 55.5987 79.6001 54.4668 77.3291C54.3207 77.0359 54.2934 76.4373 54.2674 75.8634C54.2402 75.2617 54.2139 74.6872 54.0535 74.5191C53.8331 74.2885 51.6268 74.4346 51.3754 74.6423C50.4704 75.3907 50.4772 77.9587 50.4818 79.6243V79.6246C50.4827 80.0285 50.4837 80.3792 50.4716 80.638C50.4341 81.4298 50.3738 82.2234 50.3134 83.0177C50.1943 84.5864 50.0748 86.1579 50.1314 87.7245C50.2998 92.3747 52.0957 97.9896 55.1799 101.544ZM90.8948 131.664C91.2164 133.274 91.5396 134.891 91.9655 136.469C92.1447 137.133 92.2277 137.788 92.3106 138.442C92.4171 139.282 92.5236 140.121 92.8328 140.979C92.8028 141.174 92.7845 141.399 92.765 141.636C92.691 142.546 92.6022 143.64 91.7742 143.963C90.8307 144.33 90.2175 143.433 89.8668 142.656C89.2468 141.28 89.1636 139.603 89.0828 137.975C89.0404 137.119 88.9986 136.276 88.8794 135.498C88.6491 133.991 88.5417 132.497 88.4337 131.001C88.3507 129.851 88.2678 128.7 88.1291 127.541C88.0471 126.855 87.9078 126.117 87.7648 125.357C87.4172 123.513 87.046 121.545 87.4125 119.904C87.7638 119.895 88.4139 122.044 88.8376 123.445C88.9868 123.938 89.1078 124.339 89.1778 124.519C89.7857 126.086 90.0971 127.665 90.4178 129.29C90.4853 129.632 90.5531 129.976 90.6243 130.323C90.7159 130.769 90.8053 131.216 90.8948 131.664Z" fill="#94B49F"/>
<path fill-rule="evenodd" clip-rule="evenodd" d="M202.832 207.314C201.402 207.758 200.061 208.412 198.682 208.996C197.118 209.66 196.026 209.776 194.317 209.773C187.703 209.763 181.157 210.103 174.53 210.237C172.721 210.273 170.883 210.291 169.073 210.258C168.342 210.245 167.626 210.162 166.899 210.102C166.428 210.063 164.38 210.345 164.106 210.18C163.338 209.718 163.794 206.742 163.701 205.788C163.539 204.132 163.119 202.536 162.535 200.98C160.446 195.413 156.932 189.982 152.49 186.009C158.497 183.486 165.05 180.16 171.717 181.656C174.256 182.226 177.621 182.972 178.929 185.429C180.324 188.051 181.546 190.934 183.142 193.445C184.925 196.251 186.818 198.655 189.399 200.76C190.417 201.59 195.55 206.692 194.77 202.754C194.52 201.49 193.596 200.316 192.858 199.285C192.483 198.76 190.46 197.04 190.775 196.432C191.128 195.75 194.777 195.27 195.558 195.053C197.174 194.605 198.78 194.127 200.388 193.658C199.807 194.754 196.642 198.902 198.664 199.962C199.407 200.352 201.328 198.972 202.142 198.73C203.529 198.317 204.797 198.589 206.16 198.998C206.125 199.667 204.81 199.676 204.373 200.133C203.734 200.802 203.285 202.605 203.786 203.407C204.72 204.9 208.333 203.376 209.949 203.943C208.133 205.817 205.283 206.553 202.832 207.314ZM112.576 145.68C112.595 145.718 112.561 145.772 112.343 145.961C112.277 145.723 112.159 145.67 112.014 145.736C112.131 145.609 112.227 145.542 112.343 145.961C112.435 145.881 112.511 145.783 112.576 145.68ZM113.128 144.894C113.085 145.037 112.986 145.104 112.836 145.1C112.844 145.076 112.851 145.052 112.857 145.034C112.957 144.721 113.09 144.774 113.046 144.199C113.106 144.295 113.151 144.392 113.118 144.489C113.213 144.635 113.216 144.77 113.128 144.894ZM97.0509 171.91C97.2035 171.541 97.2437 171.113 97.4409 170.774C97.2478 171.118 97.2447 171.542 97.0509 171.91ZM159.195 209.946C156.801 209.85 154.468 209.893 152.074 209.997C146.96 210.22 141.822 210.252 136.718 210.663C134.221 210.863 131.82 210.94 129.315 210.856C127.126 210.782 124.928 210.86 122.745 210.677C120.348 210.475 118.104 209.813 115.684 209.777C113.371 209.742 110.617 209.475 108.373 209.813C107.986 209.871 107.777 210.118 107.32 210.177C106.689 210.26 105.8 210.002 105.154 209.959C104.019 209.882 102.765 210.008 101.658 209.743C101.278 209.653 101.012 209.513 100.643 209.364C100.311 209.23 99.5646 209.127 99.3817 209.079C100.437 208.686 98.0965 207.884 97.908 207.84C97.8607 208 97.9656 208.224 98.1386 208.441C97.5397 207.981 98.181 208.151 97.2016 207.685C96.79 207.489 96.0115 207.363 95.55 207.311C95.1058 207.262 94.8659 207.314 94.6638 207.303C94.7046 207.258 94.7449 207.197 94.7839 207.116C95.1107 206.442 94.115 205.672 93.5553 206.125C93.62 206.257 93.7249 206.501 93.8519 206.739C93.8463 206.733 93.8413 206.728 93.8358 206.721C93.6284 206.482 93.238 205.869 92.8496 205.456C93.342 205.185 92.7397 204.815 92.5125 204.436C92.3571 204.521 92.1847 204.594 92.0955 204.713C92.2249 204.442 92.5456 204.198 92.3574 203.673C92.3039 203.522 92.1615 203.296 91.9832 203.137C92.1525 203.27 92.3289 203.417 92.5571 203.385C92.2717 202.953 92.167 202.79 92.0581 202.357C91.9816 202.052 92.4082 201.758 92.003 201.482C92.0154 201.195 92.1862 199.875 91.4694 200.335C91.4694 200.335 91.4694 200.335 91.469 200.336C91.4694 200.335 91.4694 200.335 91.4697 200.334C91.9284 198.931 92.709 197.482 93.2888 196.11C94.6399 192.914 96.0288 189.695 97.4428 186.527C99.7807 181.288 102.222 176.061 104.912 170.962C107.579 165.907 110.49 161.018 113.007 155.894C115.435 150.95 118.267 146.219 120.712 141.283C121.864 138.958 123.407 137.035 123.799 134.334C123.926 133.459 123.967 131.635 122.642 131.963C121.782 132.176 120.577 134.331 120.021 135.032C119.524 134.349 116.716 130.333 115.963 132.726C115.317 134.777 119.36 135.67 117.747 137.737C117.587 137.941 116.924 138.148 116.707 138.338C116.283 138.706 115.896 139.357 115.569 139.801C114.823 140.815 114.206 141.892 113.517 142.94C113.387 143.138 112.913 143.584 112.877 143.815C112.857 143.937 112.96 144.063 113.041 144.191C112.48 144.687 111.772 145.126 111.641 145.93C111.68 145.947 111.716 145.949 111.75 145.943C111.229 146.488 110.569 147.809 110.475 147.947C109.772 148.969 109.083 150.038 108.389 151.116C108.014 151.698 107.358 152.384 107.142 153.038C107.068 153.265 107.286 153.67 107.082 153.883C106.547 154.44 106.024 154.321 105.623 155.442C105.466 155.883 105.452 156.5 105.199 156.878C104.793 157.485 104.212 157.771 103.833 158.424C103.113 159.664 102.25 161.024 101.797 162.275C101.795 162.28 101.795 162.285 101.793 162.29C101.777 162.192 101.756 162.086 101.731 161.97C101.474 162.432 101.217 162.893 100.96 163.355C101.405 163.268 101.642 163.147 101.751 162.95C101.738 163.016 101.717 163.084 101.676 163.156C101.449 163.261 101.21 163.327 100.96 163.355C100.788 163.639 100.627 163.929 100.477 164.225C100.403 164.375 100.155 165.288 100.051 165.98C100.013 165.711 99.9742 165.471 99.9698 165.439C99.6442 166.066 99.3183 166.693 98.9923 167.32C99.5835 166.865 99.5504 166.788 100.113 166.777C99.4037 166.791 98.3299 167.788 98.2315 168.745C98.2154 168.901 98.3107 169.071 98.3949 169.231C98.3754 169.229 98.3562 169.226 98.3336 169.224C97.5907 169.161 97.808 169.311 97.5264 169.93C97.6338 169.887 98.2593 169.643 98.4946 169.453C98.52 169.534 98.5243 169.609 98.4847 169.672C98.3005 169.965 96.7958 169.776 97.7622 170.425C96.9593 169.886 96.5581 171.657 96.8311 172.266C96.6151 172.578 96.3575 172.866 96.1155 173.155C95.5202 173.864 95.1915 174.403 94.8015 175.267C94.1376 176.738 93.3458 178.199 92.6202 179.642C92.3447 180.191 92.0234 180.659 91.6857 181.168C91.0862 182.072 91.1917 181.847 91.6644 182.832C91.487 182.774 91.2245 182.914 90.9707 183.116C91.1087 182.882 91.2846 182.708 91.6644 182.832C91.0645 181.582 90.5494 183.105 90.2733 183.821C90.2857 183.821 90.2959 183.817 90.3074 183.817C90.2699 183.873 90.2414 183.922 90.2241 183.961C89.9421 184.542 89.6097 184.898 89.8502 185.507C89.9195 185.169 90.1944 184.906 90.3111 184.615C90.1467 185.325 89.3716 186.177 89.1376 186.647C88.9432 187.038 88.9157 187.448 88.6767 187.874C88.4526 188.273 88.2505 188.542 88.0781 188.999C87.2448 191.208 86.839 193.668 86.3134 195.988C85.6919 198.73 85.4359 201.643 85.3028 204.449C85.2641 205.265 85.2427 205.985 85.5365 206.76C85.5792 206.872 86.0367 207.47 86.0249 207.688C85.9615 208.83 83.8176 208.592 82.993 208.56C81.6821 208.507 80.7898 208.719 79.5306 208.901C78.3689 209.069 77.2289 208.977 76.0492 209.262C74.0902 209.735 71.1728 210.485 69.2784 209.445C68.3625 208.942 67.2092 207.485 66.5446 206.667C65.7265 205.66 65.4513 204.635 65.3046 203.353C65.0545 201.159 65.0375 198.735 65.8002 196.638C69.344 186.896 75.4236 178.04 80.6669 169.174C85.5869 160.854 91.1026 152.968 96.0325 144.671C98.6388 140.285 101.774 135.945 104.874 131.892C108.043 127.748 110.303 123.24 112.537 118.551C114.853 119.778 117.304 121.041 119.893 121.596C121.365 121.911 122.826 121.816 124.311 121.918C125.405 121.993 126.32 122.251 127.434 122.28C132.32 122.404 137.965 121.819 142.636 120.376C143.756 120.029 144.758 119.67 145.809 119.171C147.15 118.534 147.512 118.264 147.588 119.744C147.736 122.61 148.203 125.395 148.423 128.244C148.638 131.021 149.197 133.759 149.692 136.502C149.943 137.892 150.212 139.28 150.418 140.677C150.574 141.737 151.044 143.211 150.858 144.27C150.651 145.44 149.543 146.626 148.909 147.624C148.265 148.637 147.619 149.647 146.977 150.661C145.773 152.562 144.575 154.365 143.153 156.109C140.519 159.343 138.275 162.724 135.777 166.063C133.124 169.608 130.918 173.438 128.315 177.019C126.939 178.912 125.533 180.696 124.631 182.827C123.884 184.594 122.379 186.22 121.459 187.97C120.251 190.266 118.714 192.37 117.514 194.678C116.676 196.29 115.058 197.929 114.889 199.803C114.604 202.946 117.593 199.805 118.284 198.929C119.212 197.753 120.23 195.696 121.623 195.059C122.619 194.604 124.073 194.653 125.154 194.297C126.286 193.924 127.398 193.536 128.542 193.195C130.769 192.529 132.918 191.59 135.083 190.745C137.325 189.87 139.565 188.987 141.765 188.015C142.783 187.564 143.641 187.333 144.728 187.137C145.196 187.053 146.871 186.262 147.24 186.329C147.859 186.442 148.713 188.262 149.183 188.73C149.906 189.452 150.72 190.042 151.396 190.818C152.728 192.348 154.139 193.978 155.294 195.64C157.874 199.353 160.288 203.41 161.206 207.883C161.618 209.89 161.137 210.024 159.195 209.946ZM92.0866 205.091C92.0708 205.057 92.0609 205.025 92.0544 204.994C92.0627 205.025 92.0699 205.056 92.0866 205.091C92.3921 204.91 92.4732 205.006 92.5041 205.154C92.3506 205.056 92.207 205.02 92.0866 205.091ZM91.3749 203.018C91.3623 202.962 91.3567 202.911 91.3548 202.861C91.3592 202.913 91.3632 202.965 91.3749 203.018C91.5421 202.906 91.6817 202.938 91.8157 203.018C91.673 202.941 91.5192 202.921 91.3749 203.018ZM91.682 201.661C91.7758 201.654 91.8826 201.603 92.003 201.482C91.9043 201.582 91.8114 201.686 91.7266 201.795C91.7281 201.781 91.7303 201.769 91.7312 201.755C91.7331 201.729 91.7117 201.697 91.682 201.661ZM61.2571 190.295C60.5616 191.935 60.2722 193.73 59.6813 195.409C59.2293 196.694 59.0489 197.963 58.9303 199.307C59.3426 199.611 59.3334 199.878 58.9028 200.11C58.8721 200.402 58.8616 200.695 58.8715 200.989C58.7595 201.844 58.9245 202.589 59.151 203.409C59.5095 204.709 59.9642 205.643 60.6312 206.767C56.5825 208.141 51.9695 208.528 47.7214 208.428C45.4256 208.374 42.85 208.369 40.6126 208.936C38.2035 209.546 36.0912 209.291 33.6162 209.078C33.9777 208.349 35.3595 207.134 36.0594 206.628C36.4156 206.371 37.0016 206.327 37.2715 206.039C37.6572 205.628 37.7024 204.83 37.8519 204.291C38.8065 200.856 39.5132 197.391 40.1127 193.878C41.1692 187.683 41.6601 181.342 41.9718 175.102C41.9981 174.574 42.2708 173.981 42.2575 173.481C42.2402 172.824 42.0523 172.609 42.1052 171.949C42.1396 171.518 42.6556 170.934 42.6184 170.551C42.5946 170.311 42.0071 170.518 42.0424 170.049C42.0975 169.326 43.0335 168.373 43.2462 167.723C43.3406 167.435 42.9883 167.147 42.9992 166.832C42.9961 166.922 43.2316 165.856 43.2406 165.818C43.3115 165.511 43.5984 165.383 43.5829 165.008C43.5687 164.666 43.0719 164.22 43.3409 163.866C43.613 163.509 44.1766 164.05 44.3481 163.737C44.5431 163.383 43.6857 162.173 43.781 161.624C43.9479 160.663 44.6013 159.63 44.8573 158.654C44.9533 158.288 44.7988 157.837 45.0963 157.52C45.6141 156.969 46.0632 157.534 46.8102 157.349C46.0691 156.72 45.9063 156.113 46.1261 155.191C46.3044 154.442 46.6483 153.632 47.4574 154.372C47.3506 153.397 47.2367 153.297 47.9369 152.483C48.5414 151.78 49.3248 150.938 50.0485 150.399C51.13 149.593 52.8566 149.179 54.1393 149.084C55.5394 148.981 57.2604 149.732 58.3202 150.79C59.6088 152.077 61.2757 153.015 62.7379 154.245C64.2992 155.559 65.6398 157.119 67.1398 158.512C67.4478 158.798 68.0149 159.597 68.4907 159.46C69.2667 159.235 68.6399 158.077 68.4699 157.562C67.2603 153.897 65.0867 150.205 62.0963 147.705C60.5545 146.415 59.0201 144.784 57.2276 143.845C55.7796 143.086 54.6485 143.205 53.1089 143.151C51.7931 143.105 51.5225 143.027 50.3491 143.581C49.517 143.973 48.6934 144.357 47.9084 144.837C46.6532 145.604 45.3584 146.536 44.4308 147.696C41.961 150.783 40.9971 154.708 40.0264 158.47C38.9585 162.608 38.2233 166.651 38.0936 170.945C37.9621 175.314 37.7596 179.618 37.3291 183.969C37.105 186.232 36.8471 188.49 36.5546 190.745C36.2853 192.824 36.2714 195.059 35.8523 197.101C35.3248 196.332 35.1608 195.738 34.8695 194.91C34.673 194.352 34.4736 194.371 34.1891 193.96C33.5865 193.09 32.8331 191.439 32.5957 190.364C32.4505 189.708 32.5848 189.378 32.3155 188.8C32.2323 188.622 31.7797 188.762 31.7073 188.479C31.6553 188.276 31.9388 188.119 31.9261 188.05C31.8964 187.89 32.3366 187.712 31.9565 187.209C31.4163 186.495 31.6927 187.391 31.4012 187.379C31.1582 187.368 31.8871 184.902 31.8014 184.544C31.771 184.418 31.3578 184.401 31.3247 184.283C31.2244 183.928 31.247 183.413 31.1492 183.027C30.9099 182.084 30.5549 181.707 30.5376 180.631C30.5143 179.209 29.9875 178.202 29.734 176.845C29.6851 176.584 29.972 176.302 29.9185 176.077C29.8095 175.618 29.4697 175.216 29.3446 174.73C29.1038 173.794 29.4254 172.474 29.3595 171.713C29.3016 171.047 29.1149 169.966 28.992 169.139C28.7921 167.793 29.1514 168.232 29.7362 167.385C28.9255 167.124 29.0286 167.354 28.7695 166.482C28.4705 165.476 28.498 164.882 29.4112 165.44C29.1685 164.842 28.7181 164.11 28.619 163.469C28.5271 162.874 28.7447 162.327 28.6825 161.736C28.5138 160.137 28.0148 159.269 28.9233 157.718C27.7558 157.12 28.2643 155.06 28.0811 153.911C27.8842 152.671 27.4054 151.512 28.3284 150.705C27.3794 150.022 27.7551 148.063 27.7592 147.017C27.7607 146.542 27.9217 145.707 27.8808 145.286C27.8523 144.99 27.6508 144.791 27.5923 144.446C27.3766 143.167 27.8529 141.901 27.5663 140.629C27.2435 139.196 27.2057 137.974 27.0949 136.569C26.9878 135.208 26.7773 133.793 26.6866 132.397C26.6198 131.361 26.2158 130.241 26.4018 129.168C26.4167 129.083 26.6631 128.32 26.6702 128.493C26.6588 128.217 26.4579 127.875 26.4486 127.711C26.3827 126.469 26.3588 125.457 26.4121 124.196C26.4096 124.196 26.4068 124.196 26.4043 124.196C26.5582 124.102 26.6408 123.908 26.6473 123.605C27.809 123.493 29.0799 123.777 30.2537 123.808C31.5191 123.841 32.7801 123.778 34.044 123.72C34.8568 123.682 36.6091 123.297 37.2282 123.976C37.6764 124.468 37.3944 126.999 37.4244 127.657C37.4597 128.435 37.8534 129.655 37.3984 130.336C37.1161 130.758 36.4782 130.927 36.1494 131.39C35.9492 131.672 35.7863 132.145 35.6802 132.451C35.3589 133.375 35.2307 134.371 35.2799 135.345C35.5121 139.908 39.1686 142.003 43.2743 140.165C46.851 138.563 47.8236 133.719 44.7505 131.005C44.0271 130.366 43.2561 130.203 42.3327 130.045C41.7458 129.945 40.1446 130.007 39.7611 129.588C39.3804 129.173 39.4732 127.876 39.4311 127.337C39.3633 126.471 39.0151 125.185 39.2039 124.349C38.8947 123.653 39.1009 123.359 39.8236 123.465C40.0524 123.42 40.2811 123.373 40.5099 123.327C41.0862 123.223 41.6524 123.097 42.2377 123.057C43.2808 122.985 44.298 123.109 45.342 122.969C46.366 122.832 47.3695 122.576 48.3953 122.444C49.4855 122.303 50.5558 122.46 51.6346 122.275C53.8738 121.891 56.2795 121.376 58.3741 120.496C58.9353 120.26 59.8862 119.581 60.5087 119.693C61.254 119.828 61.0547 120.302 61.2695 121.011C62.4606 124.944 64.935 128.83 67.554 131.957C70.0266 134.908 73.2857 137.288 76.2334 139.764C78.0206 141.265 79.7367 142.842 81.3958 144.483C82.5999 145.673 83.8922 147.535 85.4473 148.222C85.8021 148.235 87.169 148.078 87.4188 148.334C87.7073 148.629 87.6896 148.794 87.5745 148.979C87.9047 148.108 86.3329 148.255 85.4473 148.222C85.5479 148.39 86.5422 150.385 86.7882 149.275C86.9309 149.361 87.0739 149.446 87.2166 149.531C86.51 151.092 85.5947 152.657 84.6008 154.054C83.8761 155.073 82.9401 155.81 82.2901 156.866C81.4692 158.199 80.7857 159.582 79.746 160.769C77.6724 163.137 76.5185 166.321 74.7108 168.949C73.8419 170.212 73.3884 171.386 72.4843 172.643C71.7773 173.626 70.632 174.871 70.2197 176.002C70.0554 176.455 70.2318 176.847 69.9306 177.266C69.7403 177.531 69.1763 177.819 68.9104 178.093C67.8539 179.185 67.0303 180.741 66.202 182.025C65.3195 183.392 64.7044 184.81 63.9569 186.234C63.1902 187.695 61.9214 188.73 61.2571 190.295ZM33.7685 196.532C33.2194 196.54 33.0135 196.543 32.9522 196.302C32.9343 196.23 32.9287 196.135 32.9312 196.013C32.9287 196.135 32.9343 196.23 32.9522 196.302C33.0135 196.543 33.2194 196.54 33.7685 196.531V196.532ZM33.8372 194.486C33.8942 194.639 33.5518 194.9 32.6424 194.804C33.5431 194.899 33.888 194.641 33.8372 194.486ZM31.6011 199.622C31.6825 199.694 31.7615 199.769 31.8385 199.847C31.7618 199.769 31.6825 199.694 31.6011 199.622ZM25.9295 210.362C25.1888 210.103 23.2622 209.645 22.0077 209.104C22.5673 209.261 23.1499 209.39 23.374 209.468C24.2255 209.766 25.0773 210.064 25.9295 210.362C27.1361 206.012 31.6664 204.354 35.5431 202.748C33.6756 202.67 33.0086 201.049 31.8797 199.89C33.0061 201.046 33.684 202.67 35.5431 202.748C31.667 204.354 27.1361 206.013 25.9295 210.362ZM21.6919 205.983C21.6492 206.054 21.6071 206.127 21.5647 206.206C21.4493 206.422 21.0141 207.389 20.8311 208.023C20.7943 207.371 21.1815 206.608 21.6919 205.983ZM25.957 123.394C26.0261 123.366 26.0818 123.362 26.1322 123.365C25.9298 123.375 25.8747 123.615 25.8657 123.949C25.6899 123.762 25.6478 123.517 25.957 123.394ZM40.0276 133.445C41.3478 134.1 42.6289 134.482 43.8884 135.275C42.3432 136.476 37.4102 138.416 37.5575 134.704C37.5748 134.272 37.8277 133.109 38.2224 132.852C38.8229 132.461 39.5042 133.185 40.0276 133.445ZM24.9142 116.159C30.7279 118.188 37.5009 117.687 43.4096 116.697C49.7582 115.634 56.0965 115.008 62.2464 113.018C62.2526 113.875 62.624 114.771 61.9455 115.477C61.4134 116.031 60.2604 116.136 59.5575 116.369C57.7188 116.978 56.1396 117.866 54.2177 118.231C52.0651 118.639 49.9148 118.631 47.7434 118.872C46.9572 118.96 46.2177 119.101 45.4792 119.243C44.4564 119.258 43.6551 119.397 42.6339 119.68C38.9814 119.697 35.3536 119.806 31.7163 119.371C29.869 119.149 28.0418 118.878 26.1898 118.69C24.4552 118.513 24.8424 117.766 24.9142 116.159ZM22.6902 100.554C19.2664 101.5 15.7352 101.217 12.3669 100.134C9.93083 99.3516 6.69958 98.2048 6.1873 95.2403C5.84898 93.2847 7.02119 92.9303 8.39956 92.1184C9.05918 91.7299 9.37985 91.4365 9.82342 90.7784C10.0868 90.3874 10.3233 89.4068 10.6189 89.1394C11.3389 88.4878 13.6112 89.0598 14.7379 89.0094C16.4168 88.9345 17.5547 88.3702 19.0993 87.8722C21.8275 86.9921 23.5541 85.9252 25.672 83.912C27.7319 81.9538 30.1509 79.962 31.8166 77.6541C33.6821 75.0701 35.4672 72.5554 37.4993 70.0909C39.0052 68.2646 41.7369 64.609 44.4388 64.6257C45.7949 64.6344 45.5943 65.9134 46.6712 66.5634C47.6546 67.1568 48.941 66.7439 50.0219 66.6411C49.3093 68.2603 48.3213 69.9259 48.6708 71.7583C48.867 72.7845 48.971 73.1389 48.5702 74.1099C48.204 74.997 47.8078 75.7832 47.5809 76.7332C46.6975 80.4356 46.2793 84.6022 46.6498 88.3878C47.2915 94.941 49.5369 101.707 54.4489 106.333C55.5688 107.388 56.8004 108.231 58.1717 108.925C59.5398 109.617 59.6531 110.338 57.9584 110.647C54.6575 111.25 51.3065 111.661 47.9821 112.108C44.662 112.554 41.2828 113.021 37.9348 113.089C36.2785 113.123 34.6324 113.33 32.9764 113.212C32.1518 113.153 31.3324 113.006 30.5054 112.983C29.7835 112.963 28.7057 113.324 28.0337 113.039C26.9819 112.594 27.505 109.516 27.428 108.447C27.3391 107.22 26.565 104.92 27.0246 103.76C27.3478 102.946 28.5333 102.605 29.1474 101.971C30.1556 100.931 31.1086 99.6989 31.4937 98.2815C32.7699 99.3117 31.672 99.9725 32.0592 101.229C32.4821 102.599 33.2618 102.168 33.8722 101.228C34.8909 99.658 34.8228 97.2319 33.8483 95.6666C33.2844 94.7615 32.3681 94.0811 31.4281 93.597C30.6676 93.2055 28.984 92.4375 28.1417 92.7777C25.8558 93.7016 28.2888 96.4314 29.4508 97.0796C29.1716 97.8859 27.1915 99.0495 26.4365 99.394C25.3151 99.9057 23.894 100.222 22.6902 100.554ZM54.0651 75.5517C54.0951 75.9909 54.1418 76.4107 54.287 76.831C54.5826 77.6878 55.1741 78.4304 55.9891 78.8545C57.5702 79.6778 60.777 78.4923 62.1668 77.5213C62.1668 80.465 62.6946 82.8066 63.5393 85.5992C64.3562 88.3012 66.0283 90.5001 67.4509 92.899C68.1886 94.143 68.8658 95.4273 69.9074 96.4488C70.9663 97.487 71.1424 97.8847 71.0459 99.4157C70.8871 101.937 69.6864 103.656 67.4166 104.7C65.6185 105.697 61.9056 106.507 59.9465 105.674C57.8872 104.798 55.8814 102.531 54.5476 100.786C51.5176 96.8215 49.981 90.8502 50.1652 85.9212C50.2612 83.3539 50.3967 80.7268 50.6425 78.1688C50.8214 76.3051 50.7561 73.6258 53.467 74.4655C54.343 74.7367 53.9945 74.5346 54.0651 75.5517ZM64.4673 109.977C64.7286 109.445 67.0293 108.91 67.4299 109.222C68.0375 109.696 68.0626 112.459 68.2761 113.245C68.6145 114.493 69.0599 115.726 69.5963 116.904C70.7224 119.372 72.3376 121.922 74.2542 123.845C76.2405 125.837 78.5227 127.218 80.9343 128.645C81.6233 129.053 82.2904 129.546 82.9983 129.916C83.2954 130.071 83.8461 130.144 84.0801 130.378C84.659 130.957 84.3912 132.144 84.3844 132.898C84.3565 135.916 84.3667 138.837 84.7667 141.814C82.4037 139.985 80.2688 137.664 78.1652 135.531C75.9594 133.295 73.1188 131.819 71.0273 129.451C69.1243 127.297 67.6264 124.786 66.2283 122.294C65.616 121.203 64.4494 119.811 64.4073 118.535C64.3618 117.159 64.9892 115.702 64.9966 114.277C65.0013 113.269 64.0788 110.769 64.4673 109.977ZM92.8418 140.791C92.6982 141.702 92.8131 143.656 91.5449 143.852C90.672 143.988 90.1353 143.159 89.8152 142.466C88.8488 140.368 89.1683 137.571 88.8077 135.318C88.3814 132.658 88.3712 130.035 88.0419 127.371C87.7512 125.023 86.7824 122.06 87.3104 119.745C87.7893 119.733 89.0828 124.262 89.362 124.981C89.9365 126.459 90.598 127.704 91.0951 129.237C91.7535 131.267 92.3246 133.206 92.6279 135.331C92.8412 136.824 93.6414 139.476 92.8418 140.791ZM99.8556 130.777C98.6726 132.613 97.3948 134.528 95.7273 136.06C95.7273 135.203 95.0866 132.417 95.5209 131.755C96.0381 130.966 98.9741 130.93 99.8556 130.777ZM53.9567 58.4356C54.9621 57.9794 56.0835 57.8357 57.0976 57.364C58.0667 56.9133 58.7867 56.6412 59.8627 56.5527C63.6018 56.246 67.4095 57.203 70.8691 58.2499C72.7731 58.8259 74.2753 60.0882 75.8836 61.1818C77.5474 62.3129 78.4599 63.2978 79.1842 65.2117C80.743 69.3288 81.702 73.2215 82.322 77.5631C82.9512 81.9678 81.9295 86.4201 81.9932 90.8341C82.0558 95.1887 82.3668 99.7224 83.7502 103.869C84.8196 107.075 86.7152 112.235 90.7104 112.555C94.5028 112.858 97.7111 108.948 99.2789 106.012C103.424 98.2515 104.982 89.3799 105.206 80.6696C105.791 77.7547 106.126 74.612 107.141 71.8165C108.268 73.5806 109.188 75.4737 110.225 77.2919C111.364 79.2875 111.29 80.9156 111.192 83.1833C111.115 84.9464 110.493 86.6312 110.267 88.3869C110.006 90.4138 109.526 92.3901 109.411 94.4371C109.276 96.8512 109.41 99.2903 109.207 101.698C109.036 103.723 108.589 105.757 108.265 107.763C107.95 109.713 107.911 111.632 107.957 113.575C108.002 115.456 108.653 117.283 110.246 118.29C107.878 121.213 104.924 125.518 100.956 126.211C99.6256 126.443 98.3831 126.624 97.036 126.722C95.9406 126.802 94.6607 127.417 93.716 126.734C92.09 125.558 91.7693 122.939 91.1549 121.225C90.7299 120.04 86.5152 110.334 84.2968 113.084C83.9015 113.574 83.9947 115.372 83.9343 116.062C83.847 117.056 83.8873 118.068 83.8557 119.066C83.8152 120.337 83.7025 121.625 83.7907 122.896C83.8443 123.662 84.3042 124.489 83.4366 124.673C82.6337 124.844 80.9408 123.249 80.3564 122.836C79.5723 122.281 78.7267 121.865 77.9324 121.331C76.2993 120.233 75.0036 118.851 73.8416 117.285C72.6716 115.708 71.63 113.939 70.8385 112.139C70.4364 111.226 70.108 110.29 69.7721 109.352C69.7796 109.373 69.2738 108.189 69.3016 108.107C69.3908 107.842 70.4602 107.403 70.7243 107.195C73.7416 104.813 74.3458 98.891 73.5438 95.427C73.0582 93.3311 71.4523 91.4897 70.3117 89.7055C69.2097 87.9817 68.044 86.2935 67.1299 84.4589C66.1221 82.4383 65.3433 80.3164 64.4391 78.2499C64.0027 77.2526 63.4793 76.7394 64.1308 75.826C64.5301 75.266 65.3566 75.0366 65.7123 74.4238C66.0704 73.8072 66.1075 72.6173 65.4634 72.1765C64.7586 71.694 63.7343 72.3678 63.0886 72.6306C62.2269 72.981 61.3661 73.1509 60.4867 73.4202C59.4881 73.7267 58.5895 74.4036 57.5297 74.4036C58.0995 72.4409 60.5619 72.6272 61.3608 70.8019C61.9065 69.5544 61.8353 67.2332 60.1338 67.0277C59.1674 66.9107 58.4054 67.648 57.6869 68.1427C56.7413 68.7933 56.0275 68.9146 54.9197 69.1186C54.5117 69.1938 53.8496 69.5761 53.4627 69.4461C52.835 69.2356 53.1971 69.3656 53.5258 68.8496C54.0146 68.0823 55.1704 67.3332 55.869 66.7733C57.4396 65.5144 59.6166 64.6068 60.9773 63.143C61.8765 62.1751 62.3185 58.921 60.6096 58.4016C59.9243 58.1929 58.8093 58.8727 58.1379 59.0807C57.0032 59.4317 55.8474 59.7112 54.7278 60.1118C52.739 60.8231 50.8292 61.6681 48.8116 62.3064C49.9609 60.6698 52.1444 59.2587 53.9567 58.4356ZM121.209 57.9561C121.209 59.0807 121.638 61.2183 121.154 62.2407C120.717 63.1613 118.066 63.6745 117.13 64.0261C114.097 65.1652 111.09 66.4337 107.99 67.3769C111.185 62.6456 115.932 59.8988 121.209 57.9561ZM120.762 42.6787C119.976 43.8073 118.61 45.3373 117.012 44.804C115.29 44.2292 113.94 41.5913 114.82 39.9173C115.572 38.4876 117.718 37.5902 119.043 38.7173C119.332 38.963 119.52 39.5917 119.797 39.7839C119.975 39.9071 120.256 39.5775 120.473 39.7093C121.114 40.0984 121.361 41.0484 122.285 40.9688C122.713 40.9323 124.084 39.8146 124.365 39.5289C125.115 38.764 124.854 37.9803 124.972 36.9752C125.136 35.5903 126.091 35.378 127.191 34.6636C128.238 33.9829 129.079 32.9683 130.114 32.313C131.351 31.5302 130.642 32.5225 131.771 32.6206C131.975 32.6386 132.43 31.9616 132.783 31.9728C133.242 31.9876 133.441 32.2925 133.702 32.6253C134.271 33.3481 133.853 33.5749 134.844 33.7433C135.56 33.865 136.003 33.345 136.615 33.3552C137.116 32.7884 137.857 31.6051 138.752 31.9545C139.358 32.191 139.574 33.4601 139.704 33.99C140.196 35.9989 140.159 38.3601 140.177 40.4203C139.026 39.6124 138.877 39.0698 138.517 37.7673C138.284 36.921 137.719 35.6773 137.104 36.9486C136.929 37.3095 137.079 37.8626 136.963 38.2591C136.829 38.7188 136.508 38.9454 136.458 39.4468C136.337 40.6636 137.334 41.0806 138.193 41.673C137.391 42.5379 135.082 41.885 135.698 43.7317C136.349 45.6827 138.85 44.6025 140.097 44.1128C141.16 48.1436 136.436 50.0856 133.557 51.1878C131.867 51.8351 131.205 52.1957 130.973 54.1693C130.774 55.8609 131.002 57.5931 131.622 59.1732C131.871 59.8066 132.109 60.672 132.448 61.2583C132.735 61.7548 133.308 61.7894 133.501 62.0665C134.213 63.0882 133.7 65.3055 133.617 66.5318C133.389 69.885 132.345 72.9389 131.896 76.2113C131.666 77.885 130.976 79.4519 130.68 81.106C130.409 82.6237 130.302 84.0565 129.023 85.1417C126.453 87.3224 124.466 84.102 123.575 81.9851C122.307 78.9699 122.18 75.0072 122.389 71.7921C122.617 68.2968 124.216 64.9393 124.3 61.47C124.391 57.7599 123.83 54.2377 122.902 50.6505C122.497 49.0827 121.906 47.6793 121.405 46.1635C120.996 44.9241 121.674 43.8048 120.762 42.6787ZM127.443 5.97547C127.443 5.97829 127.443 5.98079 127.444 5.98361C127.427 5.96535 127.411 5.94795 127.393 5.92663C127.412 5.94879 127.428 5.96396 127.443 5.97547ZM127.519 5.62795C127.481 5.36606 127.397 5.03649 127.34 4.88829C127.479 4.97391 127.637 5.04578 127.642 5.13561C127.657 5.3933 127.583 5.51454 127.519 5.62795ZM131.335 6.28959C131.308 6.30472 131.282 6.32128 131.255 6.33589C131.191 6.33589 131.138 6.32243 131.091 6.30135C131.109 6.30528 131.129 6.30838 131.152 6.31008C131.214 6.31457 131.275 6.30528 131.335 6.28959ZM133.329 5.63244C132.972 5.62963 132.596 5.59623 132.178 5.77727C132.245 5.73744 132.311 5.70178 132.378 5.67791C132.565 5.61167 132.96 5.61898 133.329 5.63244ZM113.101 103.677C113.177 101.998 113.176 101.495 114.495 100.413C115.595 99.5104 116.658 98.5635 117.769 97.6748C120.229 95.7065 122.857 93.6227 125.653 92.1527C127.22 91.3297 131.495 89.6702 130.415 92.9207C129.395 95.9879 127.428 98.7124 125.734 101.438C124.007 104.215 122.28 106.995 120.486 109.73C119.706 110.92 118.882 112.087 118.136 113.297C117.401 114.489 117.326 115.293 115.819 114.8C114.724 114.441 113.487 114.004 112.454 113.537C111.547 113.127 111.602 112.877 111.577 111.811C112.138 109.056 112.971 106.528 113.101 103.677ZM120.119 70.0937C119.738 71.6293 117.003 71.8119 115.527 72.1097C115.274 72.1607 113.989 72.5764 113.749 72.4341C113.276 72.1524 113.508 71.3386 113.307 70.9446C112.202 68.7877 112.186 71.5451 111.871 72.1945C111.01 73.9737 109.691 70.4119 109.207 69.5396C108.835 68.8685 108.436 68.5271 108.822 67.9637C109.142 67.4948 110.927 67.1726 111.476 66.9704C113.475 66.2319 115.469 65.4797 117.463 64.7269C118.321 64.4028 120.964 62.7054 120.936 64.3366C120.651 66.2139 120.575 68.2572 120.119 70.0937ZM118.624 88.4281C117.783 88.6896 115.499 89.7377 114.648 89.2434C113.93 88.8261 114.426 87.3636 114.507 86.6021C114.659 85.1671 114.637 83.6058 114.555 82.1665C114.435 80.0406 114.258 79.8725 116.356 79.3008C117.166 79.0795 119.641 77.8825 120.243 78.5576C120.525 78.8727 120.406 79.875 120.468 80.2573C120.602 81.0837 120.832 81.8919 121.134 82.6726C121.656 84.0218 122.418 85.2334 123.215 86.4331C121.786 87.3128 120.223 87.931 118.624 88.4281ZM113.875 73.3949C114.238 72.8727 116.046 72.7984 116.643 72.6721C117.699 72.4486 118.756 72.2276 119.813 72.0044C119.87 73.2912 120.597 76.6518 119.671 77.5801C119.151 78.1026 117.41 78.2369 116.673 78.4183C115.87 78.6158 115.066 78.8099 114.262 79.004C114.171 77.7637 114.095 76.5227 113.963 75.2858C113.915 74.8311 113.579 73.8195 113.875 73.3949ZM114.083 90.3828C114.639 89.743 116.143 89.7616 116.979 89.5662C118.311 89.2545 119.573 88.8292 120.834 88.3024C121.539 88.0077 122.929 86.9986 123.709 87.2543C123.927 87.3258 124.384 88.226 124.551 88.3947C124.835 88.6838 125.202 88.8797 125.532 89.1081C126.439 89.7371 126.99 89.9327 128.061 90.1457C122.462 92.4418 117.963 96.5271 113.331 100.296C113.003 100.02 113.185 97.5566 113.221 96.9914C113.288 95.9424 113.333 94.88 113.412 93.8276C113.476 92.9628 113.493 91.0622 114.083 90.3828ZM131.087 112.722C130.918 113.677 130.893 114.99 130.483 115.872C130.107 116.681 130.153 116.625 129.154 116.649C127.892 116.679 126.445 116.891 125.223 116.507C126.314 114.097 127.222 111.478 128.715 109.28C129.184 108.589 130.09 106.822 131.07 106.927C132.055 107.033 131.839 108.02 131.761 108.734C131.615 110.068 131.321 111.401 131.087 112.722ZM136.003 75.1323C136.761 69.9339 136.697 64.8517 136.697 59.6168C137.906 59.7768 139.239 59.6759 140.404 60.018C140.028 61.2183 138.943 62.3011 140.017 63.4408C141.108 64.5985 143.652 65.1058 145.127 65.532C146.854 66.0313 148.616 66.6417 150.391 66.9383C151.188 67.0714 152.058 67.2007 152.862 67.046C154.137 66.8014 154.249 66.4631 155.087 67.7759C155.091 67.783 155.098 67.7935 155.103 67.8012C154.861 67.6623 154.093 67.7458 154.298 67.7517C154.328 67.8576 154.373 67.9628 154.399 68.0609C154.173 67.8749 153.673 67.7183 153.603 67.7059C152.77 67.5595 151.713 67.9334 150.91 68.1185C149.11 68.5345 147.324 68.9874 145.581 69.603C144.114 70.1212 142.661 70.7013 141.261 71.3823C140.181 71.9075 137.686 72.8331 137.345 74.1204C136.691 76.589 143.212 78.4644 144.802 79.3002C146.304 80.0892 145.83 81.2595 145.847 82.8273C145.865 84.5301 146.02 86.2168 145.902 87.9158C145.81 89.2323 145.709 89.0283 144.396 89.0047C143.413 88.9871 142.429 88.9475 141.446 89.006C140.06 89.0883 138.637 89.2805 137.336 89.7845C135.389 90.5385 131.651 94.1282 135.376 95.2221C136.91 95.6725 138.888 95.5078 140.46 95.3991C141.823 95.305 143.96 94.6841 145.276 95.1531C145.962 94.9587 146.209 95.2082 146.018 95.9009C146.049 96.376 146.081 96.8509 146.113 97.3257C146.176 98.2815 146.24 99.2371 146.303 100.193C146.434 102.149 146.563 104.105 146.693 106.06C145.55 104.44 143.977 101.244 141.542 101.609C139.451 101.923 138.215 105.164 137.542 106.837C136.995 108.197 136.641 109.621 136.271 111.036C135.916 112.397 135.786 114.32 135.136 115.553C134.495 116.767 133.606 116.36 132.295 116.485C130.656 116.641 131.316 115.723 131.577 114.33C131.974 112.208 133.378 108.548 132.024 106.57C130.295 104.046 127.852 108.723 127.188 109.987C126.567 111.168 126.038 112.391 125.563 113.637C125.256 114.442 125.007 116.178 124.215 116.618C123.245 117.158 121.706 116.295 120.815 116.013C119.768 115.682 118.625 115.544 117.55 115.327C120.61 110.536 123.792 105.818 126.761 100.971C128.246 98.5477 130.118 96.0033 130.933 93.2618C131.088 92.7427 131.278 92.2465 131.214 91.6943C131.16 91.2229 130.451 90.4819 130.497 90.1547C130.563 89.6699 131.536 89.2654 131.992 88.7559C133.573 86.9853 133.97 84.8783 134.461 82.6277C134.995 80.1783 135.643 77.6067 136.003 75.1323ZM141.978 60.2755C144.309 59.7734 146.957 61.1125 148.906 62.1937C150.192 62.9069 153.624 64.3979 153.756 66.1446C153.72 65.671 150.564 65.9666 149.94 65.9818C147.274 65.4045 144.43 64.626 141.942 63.4755C141.036 63.0564 139.972 62.6459 140.302 61.5703C140.519 60.8636 141.317 60.4179 141.978 60.2755ZM139.274 94.6411C137.801 94.5563 132.451 94.6145 135.143 91.9435C136.829 90.2707 139.932 89.9077 142.174 89.8987C142.978 89.8956 143.769 89.9587 144.567 90.0405C144.786 90.0668 145.005 90.0925 145.224 90.1185C145.892 89.9857 146.101 90.2624 145.85 90.9483C145.969 91.3498 146.162 93.7304 145.809 94.0653C145.341 94.5095 143.851 94.3136 143.303 94.3563C141.955 94.4616 140.626 94.6491 139.274 94.6411ZM147.098 114.876C143.222 115.453 139.352 116.19 135.421 116.251C136.008 113.386 136.691 110.527 137.759 107.798C138.442 106.054 139.682 102.288 142.071 102.474C143.978 102.622 146.203 105.889 146.735 107.559C147.428 109.734 147.098 112.613 147.098 114.876ZM157.053 71.325C156.976 71.7221 155.236 72.4362 154.864 72.6523C152.18 74.2117 149.79 76.5233 148.184 79.1504C148.005 78.1363 148.034 76.2135 147.184 75.4932C145.688 74.2253 145.995 77.066 145.816 77.9336C145.649 78.7474 145.857 78.6155 145.156 78.6879C144.533 78.752 142.945 77.5863 142.37 77.2925C140.783 76.4806 139.261 75.5969 137.736 74.6751C139 72.5879 142.725 71.6296 144.847 70.7948C147.896 69.595 150.902 68.9809 154.129 68.4841C154.669 68.7648 154.738 68.1334 155.141 67.9919C155.164 67.9591 155.172 67.9316 155.173 67.9062C155.646 68.6104 157.168 70.7338 157.053 71.325ZM161 99.4528C162.502 106.353 162.876 113.532 164.773 120.348C166.577 126.828 168.178 133.28 170.261 139.672C171.461 143.354 172.576 147.072 174.18 150.608C175.298 153.074 176.187 158.333 178.912 159.488C180.696 160.243 181.487 159.574 181.296 157.765C181.131 156.191 180.315 155.202 179.641 153.842C179.406 153.369 178.642 152.032 178.725 151.53C178.829 150.905 178.987 150.972 179.639 150.663C181.022 150.007 182.401 149.563 183.874 149.183C183.28 150.105 182.093 151.423 181.997 152.55C181.918 153.479 182.586 155.185 183.51 155.542C184.384 155.879 185.411 155.168 186.159 154.734C187.024 154.232 187.849 154.092 188.801 153.736C187.587 155.485 185.598 156.879 186.45 159.285C187.358 161.852 190.177 159.752 191.979 159.462C191.464 161.451 189.18 163.718 187.538 164.825C186.435 165.568 185.238 166.238 184.054 166.839C183.596 167.072 182.994 167.214 182.573 167.492C182.413 167.597 182.144 168.045 181.999 168.115C179.954 169.102 177.166 169.354 174.942 169.829C172.491 170.351 170.381 170.479 167.858 170.358C165.771 170.258 163.459 168.975 161.715 167.899C160.389 167.08 160.195 166.08 159.782 164.635C159.098 162.24 158.485 159.829 157.832 157.426C157.269 155.354 157.007 153.364 156.626 151.262C155.818 146.807 155.445 142.281 154.578 137.834C153.717 133.416 153.429 128.941 153.191 124.426C153.076 122.251 152.722 120.033 152.614 117.9C152.527 116.166 152.556 114.42 152.566 112.636C152.573 111.382 152.128 110.129 152.158 108.871C152.185 107.758 152.287 106.756 152.17 105.632C151.919 103.237 151.723 100.871 151.535 98.4725C151.168 93.7979 150.087 89.1846 149.656 84.5298C149.47 82.5166 151.679 80.586 153.176 79.4138C154.772 78.1642 156.052 76.4094 157.807 75.426C158.458 83.4997 159.276 91.5318 161 99.4528ZM134.56 185.772C132.83 186.543 131.099 187.316 129.367 188.087C128.094 188.653 126.424 189.817 125.025 189.712C126.019 188.365 126.646 186.824 127.707 185.515C128.766 184.208 129.64 182.82 130.598 181.44C131.856 182.975 133.143 184.381 134.56 185.772ZM134.929 178.996C137.548 177.615 141.268 174.99 144.338 175.486C146.549 175.842 149.053 177.461 150.388 179.243C151.014 180.079 151.641 180.859 152.357 181.679C153.014 182.43 153.351 182.332 152.777 183.115C152.335 183.718 151.294 184.126 150.616 184.358C150.616 183.04 151.026 181.719 149.443 181.849C148.818 181.901 148.089 182.05 147.467 182.152C146.93 182.239 146.619 182.472 146.162 182.58C145.673 182.695 145.09 182.56 144.584 182.599C143.713 182.668 143.016 183.017 142.191 183.2C140.484 183.578 139.043 184.101 137.38 184.659C136.62 183.497 135.981 182.099 134.948 181.149C133.793 180.086 133.3 179.855 134.929 178.996ZM112.463 4.90627C112.715 4.87987 113.002 4.72352 113.196 4.39761C112.856 4.96802 112.656 4.99384 112.463 4.90627ZM104.613 5.81464C104.918 5.86992 105.219 5.93758 105.471 6.05573C105.719 6.17196 105.853 6.30445 105.985 6.42068C105.923 6.39372 105.856 6.3648 105.781 6.33336C105.454 6.19666 105.035 5.94993 104.613 5.81464ZM99.3783 49.0691C99.3579 49.0412 99.3384 49.0155 99.3189 48.9904C99.3384 49.0155 99.3579 49.0412 99.3786 49.0691H99.3783ZM98.3606 49.2167C98.2652 49.1817 98.1838 49.1239 98.1197 49.0397C98.1838 49.1239 98.2652 49.1817 98.3606 49.2167C98.4243 49.2399 98.4946 49.2529 98.5701 49.2566C98.4946 49.2529 98.4243 49.2399 98.3606 49.2167ZM97.9535 48.3838C97.9532 48.5048 97.9625 48.611 97.9811 48.7044C97.9625 48.611 97.9532 48.5048 97.9535 48.3838ZM99.1861 48.8344C99.1613 48.8084 99.1372 48.7843 99.1127 48.7617C99.1372 48.7843 99.1613 48.8087 99.1861 48.8344ZM98.9762 48.6518C98.9372 48.6255 98.8982 48.6017 98.8577 48.5815C98.8982 48.6017 98.9372 48.6255 98.9762 48.6518ZM142.509 6.95091C142.565 6.96719 142.614 6.97422 142.659 6.97673C142.598 6.98292 142.549 6.97366 142.509 6.95091ZM143.856 7.85339C143.692 7.7015 143.595 7.55274 143.545 7.4037C143.571 7.41942 143.599 7.43372 143.63 7.44607C143.679 7.39779 143.727 7.3495 143.776 7.30096C143.708 7.4267 143.685 7.54797 143.737 7.6569C143.989 8.18237 144.295 7.38349 144.674 7.7787C144.39 7.74391 144.044 7.85339 143.856 7.85339C143.419 8.45352 142.981 9.05396 142.544 9.65409C143.136 9.94969 143.322 9.58475 143.652 10.1234C143.668 10.1495 143.683 10.2135 143.695 10.298C143.558 9.90534 143.199 9.98083 142.544 9.65409C142.981 9.05396 143.419 8.45352 143.856 7.85339ZM144.989 9.17465C145.03 9.14434 145.054 9.10252 145.07 9.04721C145.08 9.01016 145.087 8.96723 145.091 8.91751C145.087 8.96723 145.08 9.01016 145.07 9.04721C145.054 9.10252 145.03 9.14434 144.989 9.17465C144.962 9.19486 144.928 9.21003 144.885 9.2204C144.928 9.21003 144.962 9.19486 144.989 9.17465ZM145.113 8.5366C145.108 8.61494 145.104 8.68539 145.101 8.74854C145.104 8.68539 145.108 8.61494 145.113 8.5366ZM144.466 10.1352C144.485 10.17 144.506 10.2015 144.528 10.2307C144.506 10.2006 144.485 10.17 144.466 10.1352ZM143.808 12.4971C143.183 12.1622 143.726 11.7406 143.752 11.226C143.754 11.1803 143.755 11.1416 143.756 11.0994C143.761 11.2238 143.762 11.3257 143.759 11.3757C143.716 12.1027 143.2 12.3051 144.139 12.5254C144.204 12.5406 144.287 12.5484 144.381 12.5521C144.141 12.5695 143.932 12.5633 143.808 12.4971ZM153.504 17.9001C153.465 17.6028 154.856 16.9541 155.035 16.8744C154.815 16.9723 153.467 17.6183 153.504 17.9001ZM155.086 15.2676C155.076 15.2637 155.066 15.2626 155.057 15.2584C155.059 15.2365 155.057 15.216 155.057 15.1947C155.063 15.2216 155.072 15.2466 155.086 15.2676ZM155.826 17.6685C155.834 17.6362 155.848 17.55 155.865 17.4473C155.889 17.5742 155.917 17.6932 155.942 17.797C155.912 17.7566 155.875 17.7142 155.826 17.6685ZM154.746 17.6502C154.745 17.1464 154.903 17.2539 155.001 17.269C154.911 17.4041 154.745 17.4293 154.746 17.6502ZM153.279 18.7568C153.425 18.7282 153.548 18.8121 153.661 18.9089C153.414 18.8435 153.211 18.7697 153.279 18.7568ZM152.086 21.6349C152.063 21.6427 152.042 21.6476 152.021 21.6538C152.042 21.6476 152.063 21.6427 152.086 21.6349ZM152.206 21.5916C152.19 21.5981 152.176 21.6024 152.16 21.6083C152.176 21.6024 152.19 21.5981 152.206 21.5916ZM151.981 21.6656C151.95 21.673 151.922 21.6782 151.895 21.682C151.922 21.6782 151.95 21.673 151.981 21.6656ZM152.898 39.0825C152.959 38.9788 153.092 38.9445 153.242 38.9281C153.053 39.0002 152.908 39.1546 152.874 39.3787C152.836 39.2958 152.827 39.202 152.898 39.0825ZM153.991 35.8609C153.981 35.8578 153.97 35.8537 153.96 35.8528C153.654 35.829 153.521 36.0271 153.488 36.3301C153.508 36.0658 153.597 35.8503 153.826 35.7801C153.814 35.7562 153.803 35.734 153.792 35.7107C153.85 35.7637 153.918 35.8138 153.991 35.8609ZM153.628 37.4921C153.622 37.4562 153.615 37.4169 153.606 37.376C153.641 37.5203 153.68 37.6636 153.719 37.8013C153.68 37.6905 153.645 37.5847 153.628 37.4921ZM153.895 32.4764C153.87 32.4879 153.842 32.4981 153.812 32.5067C153.842 32.4981 153.87 32.4882 153.895 32.4764ZM153.97 32.4321C153.953 32.4451 153.932 32.4563 153.912 32.4668C153.932 32.4563 153.952 32.4448 153.97 32.4321ZM153.798 32.5117C153.763 32.521 153.724 32.529 153.681 32.5343C153.724 32.529 153.763 32.5213 153.798 32.5117ZM154.113 28.8502C154.117 28.9855 154.117 29.1204 154.121 29.2483C154.099 29.1226 154.097 28.9988 154.113 28.8502ZM214.794 209.436C213.958 208.685 211.157 208.635 210.044 208.424C212.451 206.121 214.26 200.301 209.662 199.554C208.645 199.388 208.357 199.78 208.124 198.628C207.981 197.922 208.272 197.271 207.922 196.568C207.09 194.897 203.929 195.084 202.349 194.843C202.727 193.517 203.652 191.148 202.258 190.071C201.158 189.221 198.869 190.355 197.7 190.719C194.543 191.702 191.335 192.823 188.671 194.803C187.478 193.192 186.229 191.602 185.228 189.859C184.273 188.197 183.682 186.359 182.784 184.667C181.884 182.97 180.928 180.969 179.671 179.511C178.606 178.275 177.146 178.154 175.742 177.564C172.179 176.069 169.091 176.155 165.368 176.707C161.647 177.26 158.421 179.436 155.269 181.335C154.032 177.164 151.171 172.631 146.735 171.345C144.744 170.767 142.65 171.325 140.83 172.232C138.575 173.357 136.801 175.27 134.596 176.335C137.111 172.03 140.285 167.981 143.049 163.916C144.565 161.686 146.48 159.695 147.961 157.423C149.47 155.107 150.581 152.532 151.676 150.003C152.601 152.363 152.758 154.845 153.607 157.213C154.387 159.387 154.921 161.617 155.808 163.754C156.733 165.986 157.551 168.187 158.802 170.264C159.516 171.449 161.276 175.139 162.572 172.772C165.458 174.721 168.243 175.898 171.852 175.812C173.505 175.773 175.345 175.721 176.926 175.351C178.533 174.976 180.067 174.47 181.664 174.109C182.927 173.825 184.081 173.054 185.23 172.483C186.551 171.826 187.86 170.645 188.88 169.609C190.143 168.327 191.449 167.092 192.719 165.818C193.976 164.557 193.885 163.27 194.557 161.703C195.259 160.068 195.559 158.622 194.631 156.972C193.951 155.764 192.749 155.93 192.467 154.706C192.2 153.545 192.46 152.45 191.73 151.384C191.176 150.576 189.184 150.035 189.178 149.21C189.172 148.528 189.881 147.924 189.853 147.106C189.827 146.375 189.47 145.2 189.077 144.582C188.339 143.419 187.215 143.379 185.947 143.735C182.885 144.593 179.882 146.8 177.776 149.119C174.888 141.209 172.614 133.126 170.502 125.036C169.568 121.463 168.838 117.842 168.244 114.198C167.657 110.591 166.767 106.957 166.37 103.33C166.132 101.155 165.463 99.1201 165.15 96.9716C164.891 95.193 164.718 93.4002 164.463 91.6206C163.899 87.6771 163.117 83.7943 162.507 79.8604C162.171 77.6866 161.411 75.7845 160.826 73.6908C160.325 71.8955 160.026 70.3605 159.188 68.6642C157.589 65.4296 155.944 61.4672 152.838 59.4116C150.075 57.5832 147.395 56.0553 144.028 55.6811C142.052 55.4613 140.461 55.9253 138.53 56.1386C136.819 56.3274 135.355 57.2724 133.687 57.6129C133.687 56.0277 133.532 55.985 134.979 55.421C135.812 55.0963 136.625 54.7394 137.474 54.4572C138.369 54.1594 139.046 53.869 139.809 53.3221C140.709 52.6764 140.141 52.8816 141.22 53.1045C142.92 53.4567 142.419 53.0481 143.538 52.2009C144.189 51.7079 144.853 52.0087 145.615 52.1072C146.325 52.1991 147.495 52.5133 148.037 51.8735C148.45 51.3869 148 50.5521 148.304 50.0234C148.784 49.1885 150.159 49.2266 150.893 48.6657C151.696 48.0526 151.769 47.361 151.595 46.4179C151.474 45.7651 150.445 44.3146 150.503 43.7531C150.542 43.3789 150.739 43.2693 150.993 43.2386C153.005 43.3402 152.908 43.0371 152.417 41.2548C152.388 41.5189 152.371 41.7433 152.351 41.9367C152.345 41.66 152.348 41.4016 152.417 41.2548C152.469 41.1443 152.657 41.0731 152.828 40.984C152.783 41.0286 152.736 41.0741 152.68 41.1251C152.766 41.504 152.791 42.4939 153.155 42.7632C153.416 42.956 154.328 42.9362 154.513 42.614C154.898 41.9411 153.573 41.5591 153.521 41.0595C155.042 40.9323 154.524 40.191 153.728 39.4341C153.697 39.2264 153.817 39.128 154.091 39.1392C153.955 38.9974 153.787 38.9166 153.619 38.8906C153.737 38.8708 153.841 38.8361 153.895 38.7519C153.942 38.678 153.945 38.5755 153.928 38.461C153.958 38.5492 153.983 38.625 154.002 38.6835C155.315 39.2131 154.64 36.4022 154.096 35.9231C154.138 35.1431 154.179 34.3633 154.221 33.5836C153.846 33.8306 153.561 34.2157 153.464 34.6178C153.477 34.2466 153.694 33.9315 154.221 33.5836C153.377 33.2122 153.294 33.167 154.2 33.0877C154.951 33.7724 154.846 33.2041 155.311 32.7859C155.283 32.8107 156.015 32.0152 155.966 32.1368C156.314 31.2766 155.93 29.4618 154.529 30.0527C155.29 30.734 154.526 30.8594 154.261 31.445C154.252 31.4645 154.245 31.4853 154.237 31.5057C154.252 31.4357 154.27 31.368 154.299 31.3057C154.769 30.297 154.88 31.0714 154.363 29.924C154.363 29.9234 154.362 29.9224 154.362 29.9212C154.499 29.9902 154.712 29.9757 155.051 29.833C155.474 29.3167 155.602 29.5278 155.829 28.8626C156.027 28.281 155.935 27.8838 155.539 27.6675C155.584 27.6792 155.629 27.6925 155.675 27.704C155.85 27.2564 155.607 26.8302 155.202 26.6243C155.038 26.8921 154.874 27.1601 154.711 27.4282C154.785 27.452 154.859 27.4734 154.934 27.496C154.933 27.496 154.932 27.496 154.931 27.4957C154.412 27.4356 154.202 27.5288 154.124 27.7684C154.098 27.661 154.091 27.5551 154.15 27.4591C154.213 27.3567 154.662 27.5087 154.711 27.4282C155.516 26.1096 154.666 25.0116 153.371 24.3399C152.879 24.0849 151.91 24.0762 151.736 23.4791C151.613 23.0572 152.224 22.0364 152.342 21.5359C153.245 21.1214 151.577 20.879 151.566 20.8772C151.516 21.4675 151.548 21.729 151.889 21.6832C151.546 21.7296 151.516 21.4656 151.566 20.8772C152.056 20.9524 153.503 20.8174 154.212 20.3352C155.386 20.3686 155.991 20.5721 156.703 19.554C156.007 19.2651 155.187 19.4207 154.563 18.9771C154.592 19.1105 154.615 19.2315 154.63 19.3432C154.576 19.1781 154.458 19.0361 154.301 18.9013C154.403 18.9889 154.35 19.017 154.229 19.0131C154.252 18.9819 154.276 18.946 154.301 18.9013C154.343 18.4073 154.706 18.6086 155.074 18.6394C155.064 18.4806 155.001 18.347 154.933 18.2145C155.001 18.3416 155.064 18.4719 155.074 18.6394C155.307 18.4912 155.54 18.343 155.773 18.1945C155.9 18.1577 155.976 18.1064 156.005 18.0418C156.006 18.0429 156.006 18.0444 156.006 18.0455C157.12 18.3778 156.781 16.0182 156.269 16.0303C156.131 16.0337 156.032 16.0842 155.958 16.1642C155.974 15.9466 156.011 15.7165 156.1 15.3942H156.099H156.1C156.153 15.2556 156.204 15.1169 156.257 14.9782C155.976 14.9962 155.067 14.4536 155.051 15.1009C155.034 14.9841 154.988 14.8752 154.908 14.7761C154.99 14.06 154.568 14.1209 153.915 13.9208C153.672 13.8464 153.405 13.3819 153.131 13.577C152.721 13.87 152.968 14.1459 153.232 14.3548C153.193 14.5981 153.077 14.7927 152.882 14.9381C152.853 14.9103 152.824 14.889 152.796 14.8673C152.978 14.761 153.131 14.5917 153.232 14.3548C152.392 13.6903 152.037 14.1251 151.391 14.6596C151.649 14.8738 151.947 14.9892 152.232 15.0009C152.218 15.0324 152.204 15.0641 152.191 15.1017C151.867 15.0613 151.6 14.9139 151.391 14.6596C152.078 14.0917 152.016 13.7437 151.181 13.4068C150.899 13.2931 150.721 13.5463 150.372 13.4124C150.199 13.3459 150.073 13.0439 149.904 12.944C148.642 12.1964 147.125 12.622 145.78 12.4449C145.948 12.4233 146.099 12.4022 146.213 12.387C146.08 11.9233 145.719 11.7226 145.339 11.5814C145.34 11.3173 145.34 11.0528 145.34 10.7887C145.286 10.7766 145.234 10.771 145.184 10.7696C145.272 10.7 145.325 10.6054 145.312 10.4443C144.987 10.5616 144.712 10.4752 144.535 10.2402C144.888 10.6913 145.576 10.4552 145.786 9.8767C146.006 9.27038 145.534 8.86307 145.124 8.41309C145.134 7.98083 144.95 7.82532 144.712 7.78378C145.141 6.94277 145.237 7.3599 144.777 6.3081C144.739 5.59932 144.138 5.85673 143.732 6.31203C143.775 6.20762 143.819 6.10037 143.86 5.98866C143.541 5.96705 143.222 5.94541 142.903 5.92325C142.984 6.18205 143.163 6.64298 142.928 6.86279C143.085 6.63794 142.973 6.1467 142.903 5.92325C142.512 5.70543 142.122 5.48761 141.731 5.2692C141.764 5.3391 141.854 5.60214 141.965 5.89994C141.665 5.48142 141.42 5.22206 141.01 4.79119C140.81 4.58092 140.027 3.5718 139.81 3.5089C138.484 3.12434 137.48 5.7189 135.862 5.3638C134.907 5.1544 135.353 4.90739 134.451 5.08255C133.957 4.44113 130.735 5.44969 130.611 6.05994C130.672 6.04366 130.718 6.03694 130.755 6.03583C130.392 6.16605 130.076 6.36648 129.724 6.50205C128.842 6.84229 129.367 6.93098 128.366 6.35833C128.024 6.16299 127.898 6.22418 127.765 6.2062C128.196 6.01252 128.404 4.67186 128.41 4.19384C128.425 3.05166 128.275 3.25208 128.72 2.43299C128.308 2.42652 128.018 2.39142 127.801 2.48939C127.863 2.29515 127.908 2.10454 127.907 1.92012C128.13 1.31606 127.933 0.604467 127.243 0.436328C126.2 0.181734 125.995 1.67986 126.751 1.92519C126.028 1.6905 126.318 0.742861 125.333 0.614559C125.694 0.596049 125.919 0.66427 126.255 1.07803C126.367 0.853458 126.478 0.629168 126.589 0.4046C125.805 0.322635 125.443 0.256116 124.81 0.624402C124.19 0.734999 123.753 1.18383 123.286 1.622C122.012 2.8153 120.868 3.97992 119.696 5.27456C119.093 4.03691 118.428 3.13585 117.451 4.52087C116.568 5.77084 115.853 7.49857 115.395 8.95206C114.478 8.53128 114.864 8.39403 114.48 7.71246C114.88 8.37632 114.473 8.52905 115.395 8.95206C115.486 8.66209 115.578 8.37183 115.669 8.08186C114.867 7.16706 114.901 6.25814 114.031 5.2827C113.935 5.59539 114.212 6.04087 114.26 6.32271C114.314 6.63512 113.968 6.85211 114.047 7.18811C114.372 7.06937 114.447 7.14093 114.457 7.27091C114.446 7.14124 114.369 7.0702 114.047 7.18811C113.918 6.63933 114.238 6.34769 114.059 5.7349C113.987 5.48733 113.882 5.30625 113.756 5.13112C114.309 4.20619 112.52 3.56533 112.104 4.11581C112.052 4.18515 112.016 4.24968 111.988 4.31202C111.29 3.99791 111.074 4.66626 110.748 5.16817C110.671 5.32507 110.593 5.48226 110.516 5.63947C110.105 5.97714 109.723 6.68369 109.414 7.14601C108.752 8.13436 108.474 9.58082 107.664 10.4044C107.691 9.87389 107.98 8.69774 107.028 9.17214C107.342 9.01548 107.388 8.82518 107.318 8.60454C107.378 8.63794 107.442 8.66828 107.516 8.69298C107.65 8.70616 107.784 8.71907 107.918 8.73198C107.902 7.98083 107.409 7.48706 106.827 7.0876C106.827 7.28382 106.821 7.48566 106.834 7.67906C106.831 7.67204 106.827 7.66532 106.824 7.65829C106.569 7.04662 106.677 6.86641 106.456 6.67892C106.543 6.69969 106.642 6.71455 106.765 6.72046C106.053 5.51708 105.107 5.3248 103.799 5.66389C103.888 5.68494 103.981 5.70289 104.076 5.7206C103.928 5.72088 103.785 5.74725 103.651 5.81265C103.143 6.05994 102.391 7.48145 102.038 7.97436C100.798 9.70912 100.22 11.8346 99.5705 13.8397C99.3882 14.4039 99.1112 15.7263 98.4061 15.9155C97.5861 16.1356 96.7175 14.8 95.996 14.3536C93.6869 12.9251 92.5385 15.4899 92.1828 17.5248C91.6523 18.425 91.7746 19.1189 92.54 19.5453C92.3258 19.2357 92.2271 18.9058 92.1865 18.5656C92.2881 19.1439 92.7706 19.3443 92.8573 19.5919C92.9053 19.7277 92.9715 20.5519 92.97 20.7175C93.3646 21.0118 93.394 21.2294 93.0588 21.3703C92.8539 21.5102 92.662 21.6668 92.4828 21.8398C91.9296 22.423 91.9349 23.2318 91.4285 23.7992C90.8565 24.4409 90.3312 24.1573 90.061 25.2122C89.5982 27.0193 90.7382 29.7482 92.7898 29.9209C92.5465 30.6325 92.2314 31.3543 92.0494 32.0839C91.808 33.0549 91.8247 33.1534 92.2825 34.0823C88.8699 33.5749 89.1367 37.1872 91.0818 38.9615C91.5424 39.3821 92.0473 39.644 92.6419 39.8304C93.0721 39.9653 94.3713 39.8901 94.6808 40.2984C95.3327 41.1589 93.8772 42.2779 93.7485 43.238C93.7355 43.3365 93.7299 43.5052 93.7342 43.7011C93.1969 44.3589 93.2235 44.413 93.9911 45.0281C94.4118 45.5701 95.7115 45.4404 96.1068 45.9585C96.7144 46.7559 95.359 48.0395 96.0384 48.9713C96.5789 49.7117 97.1425 49.2501 98.0077 49.564C98.4265 49.7553 98.845 49.9469 99.2632 50.1394C99.4591 50.0032 99.6733 49.9178 99.9064 49.8831C100.395 50.1292 99.9287 50.5623 100.545 50.7071C100.864 50.808 101.604 51.1915 101.927 50.9928C101.469 51.2748 101.161 51.9719 100.898 52.7383C100.647 53.1481 100.416 53.5991 100.508 53.9378C100.354 54.407 100.196 54.8351 100.007 55.1332C101.072 55.2954 100.946 56.2986 101.684 56.8492C102.68 57.7017 102.845 56.9105 102.61 56.4948C102.71 56.5453 102.812 56.6109 102.918 56.6858C102.938 56.6997 102.724 57.2061 102.934 57.3244C103.228 57.4903 103.227 57.3238 103.533 57.3207C103.821 57.3173 104.239 56.8852 104.59 56.8489C104.778 56.8297 105.331 57.0857 105.446 57.0099C105.764 56.7985 105.74 56.5666 105.616 56.2862L105.758 56.571C106.101 57.4674 106.274 57.2656 106.794 57.0087C106.654 57.078 107.202 56.6688 107.315 56.7016C107.059 55.9912 106.043 56.0658 105.416 55.8881C105.813 56.0005 106.457 56.0048 106.822 56.1621C107.433 56.4252 107.24 56.6926 107.963 56.7746C108.268 56.809 109.51 56.4716 109.729 56.2506C109.75 56.2296 109.764 56.2039 109.775 56.1754C109.888 55.9955 110.001 55.8154 110.113 55.6352C110.572 55.6885 110.075 56.3942 110.796 56.1135C111.334 55.9033 111.072 55.6111 110.9 55.2923C110.844 55.1877 110.781 55.1134 110.715 55.0598C111.459 55.2378 112.343 56.2385 113.358 55.9584C113.931 55.8002 113.962 55.4096 114.382 55.044C114.943 54.5559 115.117 54.6311 115.796 54.3949C116.207 54.2519 116.645 53.9362 117.059 53.8625C117.733 53.7427 117.547 53.817 118.106 54.1012C118.44 54.2708 118.63 54.5896 119.052 54.6512C119.437 54.7076 120.042 54.2646 120.353 54.3863C121.202 54.7178 120.986 55.9083 121.034 56.6932C116.74 55.3266 111.722 57.5107 108.562 60.5101C107.705 61.3233 107.144 62.2875 106.383 63.1718C105.557 64.1314 104.778 64.5672 104.661 65.9341C104.561 67.1128 105.093 67.8204 104.673 68.953C104.271 70.0383 103.832 71.0096 103.537 72.1412C102.131 77.5451 102.087 83.1567 101.045 88.6352C100.081 93.7044 98.7038 98.2202 96.4349 102.867C95.3828 105.021 94.501 106.34 92.1937 107.248C90.3272 107.983 88.9609 107.02 88.0484 105.344C85.5938 100.834 85.2446 96.1962 85.2743 91.1656C85.2882 88.7491 85.564 86.3322 85.7968 83.9296C86.0382 81.4394 85.8575 79.1129 85.6841 76.6264C85.3365 71.6413 84.1993 67.3654 82.4876 62.6769C81.6763 60.4532 80.9916 58.2852 79.0372 56.8384C77.9423 56.0284 76.8429 55.0152 75.5595 54.3145C74.5328 53.7539 73.9215 53.2475 72.7508 52.9965C71.9807 52.8315 71.279 52.5767 70.5355 52.3371C68.7807 51.7729 66.7511 51.5983 64.9106 51.6045C60.613 51.619 55.8966 53.0658 52.0283 54.9211C50.1021 55.8448 48.0105 57.2204 46.7417 58.9727C46.2183 59.696 45.8617 60.4981 45.5061 61.3118C45.0805 62.2844 45.2142 62.4624 44.3131 62.4286C43.7485 62.4073 43.1171 61.8848 42.4705 61.8569C41.7626 61.8266 41.2444 62.0733 40.5854 62.2559C39.749 62.4877 38.9628 62.6954 38.219 63.1762C36.4144 64.3412 34.8881 66.1985 33.5091 67.8186C30.9845 70.7842 28.7005 74.1077 26.3387 77.1285C24.0128 80.1025 21.1874 82.7419 17.5748 84.0902C16.1968 84.6047 14.6707 84.7087 13.2636 85.1247C12.6461 85.307 11.8982 85.7915 11.2513 85.7831C10.2348 85.7701 10.3131 85.2724 9.96116 84.4654C9.54267 83.5071 8.93753 82.7611 8.18102 82.0451C4.82565 78.8684 0.652803 83.5755 0.911884 87.2011C1.06325 89.3199 2.65117 90.7171 2.59514 92.7962C2.54252 94.7414 2.6586 96.7147 3.35227 98.5607C4.13106 100.631 6.04615 102.779 7.73498 104.187C9.29937 105.492 11.259 105.769 13.2299 105.987C14.1331 106.087 15.0704 106.355 15.9439 106.34C16.6923 106.326 17.373 106.023 18.1369 106.054C19.4333 106.106 20.1279 106.098 21.3425 105.638C22.2432 105.297 23.0558 105.107 24.0367 105.129C24.0367 107.196 24.1679 109.218 24.3456 111.278C24.3688 111.55 24.557 112.257 24.4316 112.499C24.2775 112.798 24.0943 112.601 23.9017 112.816C23.443 113.33 23.1106 113.582 22.767 114.249C21.8244 116.079 21.5359 118.126 21.9034 120.167C22.1912 121.766 23.1319 122.425 22.9097 124.125C22.6481 126.122 22.1618 128.16 22.068 130.17C22.0228 131.129 22.0117 131.853 21.8086 132.783C21.6916 133.323 21.297 134.295 21.3289 134.84C21.3487 135.178 21.7062 135.327 21.7068 135.636C21.7074 135.905 21.3963 135.869 21.375 136.1C21.3097 136.796 21.2719 137.427 21.2868 138.127C21.3063 139.073 21.2137 140.014 21.2493 140.961C21.2762 141.682 21.1085 143.39 21.9179 143.108C21.7019 143.618 21.6446 144.109 21.6232 144.598C21.6121 144.55 21.6074 144.502 21.6118 144.452C21.661 143.888 21.6777 143.675 21.9179 143.108L21.4558 143.269C21.1735 143.998 21.5202 144.712 21.5978 145.437C21.5954 145.51 21.5929 145.582 21.5883 145.656C21.5233 146.709 21.6028 147.741 21.6814 148.792C21.861 151.193 21.9458 153.868 22.5949 156.025C23.3065 158.389 23.079 161.362 23.3532 163.965C23.6674 166.946 24.1766 169.878 24.5558 172.847C24.8944 175.498 25.0578 178.375 25.6388 180.957C26.1155 183.071 26.5185 185.13 26.7742 187.353C27.128 190.435 28.2526 192.783 29.4907 195.583C30.0141 196.768 30.05 196.75 29.0892 197.615C28.6865 197.978 28.3451 198.402 27.935 198.756C27.1138 199.466 26.2167 199.88 25.1383 200.007C22.4834 200.322 19.8013 201.266 18.31 203.554C16.8685 205.767 17.8026 208.36 18.8814 210.614C17.4575 210.735 13.6075 210.647 14.5082 213.241C15.1239 215.014 18.4068 214.42 19.857 214.439C21.9761 214.468 24.1097 214.364 26.2102 214.335C27.1664 214.322 27.2639 214.223 28.195 214.587C29.0725 214.931 29.742 214.969 30.6917 214.906C31.7026 214.84 32.713 214.989 33.6927 214.843C34.9277 214.66 35.696 214.506 36.9369 214.725C37.8336 214.884 38.5524 214.806 39.4472 214.688C40.4393 214.556 41.3784 214.636 42.4017 214.608C44.792 214.544 47.164 214.589 49.556 214.616C51.881 214.642 54.2077 214.324 56.5166 214.428C60.5433 214.61 64.6419 214.444 68.6872 214.539C70.5531 214.582 71.9943 215.668 73.8648 215.556C75.7657 215.443 77.6925 215.425 79.5785 215.16C82.8265 214.702 85.9556 214.055 89.2552 213.886C91.3406 213.78 93.1737 214.678 95.1358 215.241C95.8468 215.445 96.4863 215.35 97.1509 215.501C97.778 215.644 98.4215 216.054 99.0836 216.224C100.652 216.626 102.151 216.779 103.529 216.816C103.707 217.146 103.913 217.186 104.146 216.937C104.241 216.883 104.336 216.829 104.431 216.776C104.87 216.717 105.184 216.519 105.645 216.49C106.356 216.444 107.083 216.541 107.743 216.478C109.124 216.345 110.421 216.257 111.948 216.414C112.854 216.507 113.647 216.376 114.538 216.392C114.528 216.392 115.762 216.633 115.79 216.622C115.899 216.58 116.072 216.275 116.143 216.262C116.117 215.97 116.205 215.838 116.406 215.867C116.568 215.831 116.675 215.916 116.726 216.12C116.678 216.126 117.111 216.344 117.141 216.349C117.166 216.353 118.281 216.221 118.359 216.192C118.679 216.072 118.815 215.724 119.07 215.672C119.372 215.61 119.552 215.943 119.814 215.929C120.391 215.898 120.323 215.641 120.766 215.561C122.324 215.28 124.23 215.645 125.839 215.648C127.441 215.65 129.035 215.504 130.579 215.436C132.476 215.352 134.335 215.713 136.247 215.457C138.066 215.213 139.885 215.107 141.717 215.03C145.546 214.869 149.475 215.04 153.268 214.589C157.218 214.121 161.233 214.589 165.189 214.519C169.36 214.444 173.554 214.406 177.723 214.235C181.873 214.065 186.006 213.571 190.14 213.472C191.192 213.447 192.224 213.196 193.272 213.12C194.231 213.05 195.174 213.203 196.141 213.118C197.902 212.964 199.504 213.082 201.273 213.055C203.253 213.025 205.175 212.723 207.144 212.602C209.134 212.479 211.105 212.76 213.079 212.367C214.158 212.153 216.171 210.675 214.794 209.436Z" fill="#3D3C3C"/>
<path fill-rule="evenodd" clip-rule="evenodd" d="M136.65 33.3709C136.648 33.3709 136.645 33.3712 136.643 33.3709C136.633 33.3822 136.623 33.3944 136.613 33.4051L136.65 33.3709Z" fill="#3D3C3C"/>
<path fill-rule="evenodd" clip-rule="evenodd" d="M153.136 24.2569C153.386 23.3878 152.752 22.7653 152.328 22.0902C152.079 23.6218 151.312 23.5555 153.136 24.2569Z" fill="#3D3C3C"/>
<path fill-rule="evenodd" clip-rule="evenodd" d="M107.215 56.8873C107.221 56.9051 107.23 56.9208 107.235 56.9395C107.242 56.9086 107.234 56.8923 107.215 56.8873Z" fill="#3D3C3C"/>
<path fill-rule="evenodd" clip-rule="evenodd" d="M100.305 55.7402C100.362 55.868 100.486 56.7533 100.576 56.7576C101.378 56.7957 100.401 55.2981 99.888 55.2105C99.1466 55.6891 100.322 55.7795 100.305 55.7402Z" fill="#3D3C3C"/>
<path fill-rule="evenodd" clip-rule="evenodd" d="M100.261 50.5675C100.208 49.8912 99.9808 49.8055 99.3326 50.1342C99.5264 50.5595 99.757 50.4985 100.261 50.5675Z" fill="#3D3C3C"/>
<path fill-rule="evenodd" clip-rule="evenodd" d="M91.2848 34.0076C91.5943 34.0593 91.9042 34.1107 92.2134 34.1621C92.0317 33.7498 91.8497 33.3366 91.668 32.924C91.5402 33.2855 91.4126 33.6464 91.2848 34.0076Z" fill="#3D3C3C"/>
<path fill-rule="evenodd" clip-rule="evenodd" d="M97.6392 169.892C97.6395 169.891 97.6395 169.89 97.6401 169.89C97.617 169.899 97.6135 169.901 97.6392 169.892Z" fill="#3D3C3C"/>
<path fill-rule="evenodd" clip-rule="evenodd" d="M34.4888 85.5908C35.1444 84.4948 36.3875 83.1405 37.8027 83.5962C39.1247 84.0221 39.4906 85.7552 40.0604 86.8454C41.1686 88.9648 41.5137 86.6891 41.7592 85.4026C41.5589 82.8264 40.5566 78.6331 37.166 79.0773C34.5869 79.4159 32.3598 83.5587 32.851 86.0084C33.2636 88.0674 33.9601 86.4752 34.4888 85.5908Z" fill="#3D3C3C"/>
<path fill-rule="evenodd" clip-rule="evenodd" d="M132.226 37.0368C130.96 36.5849 130.961 37.953 130.912 38.9816C130.867 39.9266 131.014 42.1435 132.207 42.4809C133.395 42.8177 133.507 40.8599 133.691 40.0684C133.414 39.129 133.261 37.4061 132.226 37.0368Z" fill="#3D3C3C"/>
<path fill-rule="evenodd" clip-rule="evenodd" d="M133.691 34.9836C132.762 34.1621 132.141 33.9105 130.954 34.441C130.343 34.714 129.47 35.308 129.375 36.0571C129.076 38.3885 132.872 35.4619 133.691 34.9836Z" fill="#3D3C3C"/>
<path fill-rule="evenodd" clip-rule="evenodd" d="M133.885 48.9496C136.051 49.5092 136.19 46.5485 133.781 46.5435C132.169 46.5404 132.675 48.6369 133.885 48.9496Z" fill="#3D3C3C"/>
<path fill-rule="evenodd" clip-rule="evenodd" d="M117.327 39.7458C116.518 39.8638 116.233 40.3711 116.406 41.1808C116.606 42.115 117.113 42.1227 118.019 42.21C120.204 42.2168 118.778 39.5338 117.327 39.7458Z" fill="#3D3C3C"/>
<path fill-rule="evenodd" clip-rule="evenodd" d="M136.507 34.732C136.706 35.2867 137.792 35.5371 138.36 35.3257C139.035 35.074 139.175 34.4627 138.566 33.9012C138.044 33.4205 137.325 33.5474 136.672 33.592C136.693 33.8018 136.382 34.3872 136.507 34.732Z" fill="#3D3C3C"/>
<path fill-rule="evenodd" clip-rule="evenodd" d="M68.5529 97.9265C69.5858 97.9249 68.611 96.1779 67.7601 96.0693C67.7781 96.6097 67.7425 97.928 68.5529 97.9265Z" fill="#3D3C3C"/>
</svg>
