<svg width="296" height="184" viewBox="0 0 296 184" fill="none" xmlns="http://www.w3.org/2000/svg">
<path fill-rule="evenodd" clip-rule="evenodd" d="M218.055 148.104C216.656 149.721 214.592 150.921 213.008 152.4C211.344 153.953 209.539 155.31 207.882 156.844C200.572 147.91 190.559 142.432 181.885 135.019C177.773 131.504 174.743 126.737 172.526 121.845C171.39 119.337 170.55 116.755 169.893 114.083C169.597 112.88 169.307 111.68 169.114 110.46C168.88 108.983 168.819 108.857 167.822 107.704C167.393 107.208 166.562 105.758 165.722 105.918C165.014 106.052 163.721 108.205 163.274 108.737C161.124 111.294 159.041 113.93 156.778 116.388C153.315 120.151 150.163 123.853 146.949 127.84C140.373 135.998 133.28 143.677 126.122 151.353C125.591 151.923 124.353 153.592 123.591 153.816C122.663 154.089 121.156 152.951 120.222 152.316C117.968 150.781 116.191 148.881 114.264 146.979C110.504 143.267 107.957 138.057 106.244 133.099C105.219 130.132 104.552 127.056 103.493 124.098C103.052 122.866 102.053 121.351 102.56 120.278C102.711 119.957 103.673 119.107 104.013 119.042C104.414 118.965 105.083 119.515 105.222 119.477C106.553 119.113 105.814 117.719 106.606 116.97C107.055 116.544 109.338 116.607 110.019 116.373C112.512 115.518 114.747 113.887 117.103 112.914C126.966 108.839 136.949 104.876 145.463 98.2215C147.671 96.4962 149.139 95.1995 151.773 94.0843C154.436 92.9573 157.113 91.9519 159.829 90.9685C162.226 90.1009 164.636 89.2874 167.113 88.6655C169.79 87.9929 173.588 87.1401 176.264 88.0065C181.518 89.7074 183.214 94.0363 185.306 98.6029C188.137 104.781 191.56 110.628 195.27 116.315C202.408 127.256 211.089 137.074 218.055 148.104Z" fill="#94B49F"/>
<path fill-rule="evenodd" clip-rule="evenodd" d="M59.8321 51.3752C59.543 51.2284 57.2858 52.1471 56.907 52.2877C55.3937 52.8492 53.9682 53.7821 52.5425 54.5411C53.6352 55.8709 54.7281 57.2009 55.8205 58.531C56.8915 55.904 58.268 53.7363 59.8321 51.3752ZM60.5771 67.7202C60.2054 67.762 63.3441 75.3044 63.7106 76.1513C65.0444 79.2315 66.4447 82.2817 67.7961 85.3541C69.1055 88.3316 70.7664 91.0706 72.4398 93.8521C73.8711 96.2309 75.3432 99.9224 77.5022 101.684C76.139 95.6366 76.3186 88.6829 72.4085 83.605C68.3555 78.3407 64.3482 73.2002 60.5771 67.7202ZM218.055 148.373C211.998 138.782 204.416 130.297 198.1 120.877C194.564 115.603 191.122 110.261 188.145 104.647C185.98 100.563 184.634 94.7355 181.29 91.6133C179.816 90.2377 178.242 88.8912 176.264 88.2749C173.558 87.4317 169.831 88.2675 167.113 88.9342C162.047 90.1764 157.098 92.1054 152.299 94.1313C147.431 96.186 143.279 99.8769 138.881 102.842C134.163 106.024 129.056 108.341 123.771 110.37C119.169 112.136 115.074 114.672 110.497 116.45C109.584 116.805 107.723 116.753 106.958 117.215C106.133 117.712 106.458 119.181 105.457 119.723C105.005 119.968 104.855 119.081 104.508 119.096C104.084 119.114 103.697 119.611 103.289 119.926C101.625 121.21 102.644 122.066 103.303 123.832C105.45 129.587 106.604 135.442 109.619 140.875C112.098 145.341 115.645 149.343 119.822 152.299C120.458 152.749 122.529 154.492 123.275 154.376C123.946 154.272 125.312 152.487 125.776 152.003C127.879 149.803 129.801 147.437 131.903 145.234C135.152 141.83 138.279 138.334 141.431 134.883C145.09 130.876 148.329 126.337 151.625 122.056C153.141 120.087 155.093 118.483 156.778 116.657C159.044 114.202 161.125 111.563 163.274 109.005C163.924 108.232 165.014 106.252 166.025 106.275C166.733 106.292 167.981 107.959 168.352 108.482C169.729 110.424 169.723 113.932 170.407 116.356C172.078 122.268 175.091 128.043 179.223 132.605C183.332 137.142 188.595 140.368 193.455 144.015C198.719 147.966 203.707 152.009 207.882 157.112C209.539 155.578 211.344 154.221 213.008 152.668C214.592 151.19 216.657 149.99 218.055 148.373ZM140.092 175.507C141.27 175.519 143.264 176.243 144.317 175.807C141.193 172.35 138.323 169.384 134.37 166.85C130.268 164.221 126.179 161.615 122.195 158.811C114.165 153.159 108.259 146.457 104.905 137.045C104.042 134.621 103.463 132.079 102.83 129.588C102.49 128.246 101.812 121.969 100.66 121.427C99.9786 121.106 94.8465 124.713 94.0333 125.162C92.1321 126.213 90.2239 127.029 88.2583 127.852C84.0335 129.621 79.678 130.97 75.1977 132.096C69.8264 133.447 66.1677 131.212 62.8402 126.99C59.0651 122.201 55.9279 116.796 52.4763 111.767C50.9066 109.479 49.6063 107.195 48.447 104.671C47.6884 103.02 44.6794 98.5657 45.7191 96.8067C48.6854 99.065 49.7527 103.555 51.7733 106.579C54.2917 110.348 57.1298 113.901 59.6612 117.666C61.7899 120.832 63.9616 124.669 67.1065 126.945C69.8728 128.947 72.5008 128.331 75.4779 127.432C79.0861 126.341 82.8263 125.804 86.3624 124.452C90.1892 122.988 93.8098 120.913 97.5435 119.22C99.284 118.431 101.368 117.982 103.008 116.998C104.422 116.151 104.211 115.703 104.315 113.898C104.436 111.793 104.576 109.685 104.669 107.578C104.731 106.161 103.966 104.241 104.485 103.184C100.247 103.919 96.1038 104.903 91.8947 105.774C89.5902 106.251 87.3681 106.84 85.0401 107.215C84.1526 107.357 82.9396 107.353 82.145 107.74C81.511 107.558 81.1879 107.674 81.1755 108.087C81.1452 108.311 81.0972 108.533 81.0313 108.75C79.7315 109.342 78.9756 108.073 77.8483 106.857C76.4573 105.356 75.4157 103.665 74.3951 101.901C72.1132 97.9569 69.4831 94.2474 67.3714 90.1922C65.2192 86.0583 63.4713 81.6323 61.6466 77.3434C59.9726 73.4085 58.9007 69.153 57.0509 65.3114C56.2254 63.5966 55.1791 62.1786 53.9574 60.73C52.9492 59.5345 51.3982 56.9558 49.8926 56.4067C49.4945 56.2615 48.452 56.5054 47.9998 56.4732C47.0984 56.4088 46.2952 56.0779 45.3727 56.1504C43.3756 56.3067 41.1983 57.5696 39.6024 58.6799C40.6337 59.5992 43.2137 60.7166 41.3605 62.3727C39.5621 63.9804 38.5688 61.0964 37.8826 59.8329C34.651 62.4866 35.1181 66.1456 34.7448 69.895C34.5498 71.8525 34.0369 73.7803 33.706 75.7084C33.4677 77.096 33.6348 78.5314 33.5667 79.9481C33.3931 83.5483 33.0312 86.9944 33.0489 90.5441C33.0675 94.3384 33.3259 98.0027 33.6296 101.769C34.1406 108.111 35.3116 114.455 36.3157 120.746C36.8806 124.283 37.6538 127.719 38.4045 131.198C39.2563 135.147 40.8322 138.887 41.7159 142.825C42.6163 141.681 43.2936 141.675 44.75 141.827C45.8702 141.943 46.6226 141.677 46.557 143.232C46.5146 144.24 45.625 145.01 44.6407 145.186C43.357 145.416 42.9209 144.775 42.2594 143.803C42.1047 145.644 43.3428 147.569 43.8325 149.367C44.2959 151.071 44.6029 152.742 45.3817 154.373C46.1416 155.964 46.7923 157.533 47.5612 159.109C47.9153 159.834 48.2465 160.57 48.6046 161.293C48.7857 161.659 48.999 162.164 49.2692 162.473C49.9031 163.196 49.8022 162.846 50.5442 163.257C52.1606 164.155 51.5535 163.932 51.5913 165.786C51.6281 167.615 52.566 168.959 54.0701 169.986C57.2611 172.168 60.4084 172.775 64.0362 173.877C67.4163 174.904 70.9766 175.785 74.5558 175.765C78.9394 175.741 83.2649 175.166 87.6485 175.108C92.4847 175.044 97.3673 175.07 102.194 175.237C104.182 175.306 106.028 175.394 107.948 175.902C110.177 176.492 112.333 176.258 114.63 176.169C119.531 175.978 124.602 175.599 129.439 175.565C132.922 175.54 136.596 175.297 140.092 175.507ZM267.184 177.407C268.055 177.867 270.008 177.678 270.884 177.55C272.427 177.325 272.593 176.714 273.572 175.338C275.257 172.968 276.625 170.699 277.617 167.954C279.514 162.701 280.289 157.327 281.122 151.832C282.047 145.726 280.357 139.397 279.752 133.332C279.613 131.941 279.423 130.562 279.203 129.182C279.072 128.356 279.037 125.548 278.494 124.833C277.45 123.46 272.597 124.567 270.688 124.692C265.362 125.04 260.001 125.121 254.676 125.181C251.838 125.214 248.983 125.333 246.173 125.355C244.882 125.365 243.62 125.301 242.324 125.175C241.891 125.133 241.468 125.034 241.032 125.009C239.537 124.927 239.649 124.71 239.263 126.033C238.587 128.352 239.107 131.301 238.929 133.708C238.692 136.923 238.563 140.184 238.622 143.406C238.677 146.384 238.575 149.355 238.686 152.339C238.733 153.575 238.868 154.583 239.194 155.763C239.562 157.097 239.968 160.215 240.886 161.138C240.99 161.244 241.77 160.999 241.977 161.26C242.297 161.664 242.238 162.517 242.457 162.778C243.166 163.622 244.632 163.688 245.695 164.068C248.613 165.108 251.289 166.237 254.039 167.64C256.495 168.894 260.456 169.96 261.934 172.433C262.611 173.566 262.702 175.061 263.325 176.23C264.034 177.563 262.615 176.866 264.353 177.407C265.135 177.65 266.382 177.407 267.184 177.407ZM8.1783 162.339C7.95729 165.416 6.2242 168.346 5.62092 171.371C5.33862 172.787 4.85977 174.179 4.52795 175.588C4.20974 176.938 3.06013 178.538 3.17651 179.875C7.41963 178.363 11.7175 177.983 16.1523 177.575C20.3554 177.188 24.7957 177.035 28.9636 177.033C33.2108 177.031 37.752 176.616 42.1251 176.551C46.6985 176.484 51.3409 176.366 55.848 175.891C53.4912 174.146 50.5423 172.507 48.8021 170.078C46.9102 167.438 45.9277 164.13 44.2631 161.345C40.9225 155.754 38.7988 148.817 37.0478 142.536C33.5126 129.857 29.562 117.412 28.6098 104.26C26.7978 105.188 25.3594 108.788 24.4521 110.581C23.2942 112.87 22.6878 115.352 21.935 117.785C20.3848 122.796 19.312 127.991 17.4139 132.955C13.7862 142.443 11.4544 152.666 8.1783 162.339ZM238.508 88.4415C239.292 94.1122 240.938 99.8562 241.001 105.595C241.015 106.858 240.801 108.26 241.064 109.505C241.345 110.834 242.259 112.009 242.787 113.272C243.625 115.278 245.746 119.388 243.7 121.087C243.659 119.474 242.183 117.427 241.44 116.017C240.32 113.892 238.848 111.95 237.633 109.878C235.092 105.542 232.243 101.299 228.967 97.4759C225.777 93.7522 222.099 90.4491 218.716 86.9034C217.699 85.8379 209.544 75.584 209.22 75.7273C211.75 85.482 216.05 93.9695 221.934 102.137C224.82 106.141 228.282 108.775 231.795 112.167C234.719 114.992 240.232 118.013 239.221 122.641C243.793 122.202 248.335 121.499 252.949 121.499C252.19 115.66 251.609 109.913 250.254 104.17C248.717 97.648 247.675 90.9314 246.374 84.3519C245.046 77.6349 242.793 71.1322 241.392 64.428C240.05 58.0082 238.898 51.5999 237.914 45.1086C237.101 48.7054 237.401 52.656 237.113 56.3259C236.818 60.0753 236.846 63.7557 236.944 67.5271C237.126 74.5322 237.873 81.4528 238.508 88.4415ZM258.32 55.0432C258.345 52.0447 258.926 49.0868 259.106 46.0954C259.161 45.1776 260.075 38.916 259.222 38.5892C258.521 40.1177 258.358 42.0736 257.721 43.6773C257.085 45.2795 256.234 46.8058 255.624 48.4191C254.301 51.9141 253.845 55.8687 253.703 59.5844C253.38 67.9889 253.214 76.3745 253.779 84.779C254.021 88.3814 254.207 91.99 254.14 95.5995C254.068 99.5711 253.459 103.018 254.198 106.958C254.929 110.858 255.388 114.743 255.632 118.701C255.803 121.479 255.872 121.282 258.522 121.087C260.435 120.945 262.367 121.096 264.283 121.009C263.387 110.182 263.241 99.3337 261.81 88.5489C261.08 83.0469 261.06 77.4653 260.153 71.9838C259.703 69.2608 258.947 66.5926 258.512 63.8665C258.045 60.9395 258.275 57.9927 258.32 55.0432ZM64.5169 48.23C69.619 48.672 75.0461 50.1974 80.2757 49.1902C79.4136 48.841 77.1577 48.3594 78.173 46.9813C79.2053 45.58 80.9449 47.3574 81.9744 47.1738C82.6093 47.0605 84.0121 44.4069 84.4033 43.8575C85.2914 42.6088 85.3985 42.3912 86.9954 42.0711C88.5425 41.7616 88.8932 42.0968 89.0891 40.5587C89.3141 38.7901 88.7022 36.8016 88.7628 34.993C88.8932 31.0993 90.1493 27.6848 91.3184 24.0215C86.3513 25.1021 81.4943 26.3836 76.4155 27.08C74.2444 27.3778 70.8667 28.0646 68.8944 26.5888C68.3815 26.205 68.4635 25.6868 68.0438 25.242C67.3399 24.4957 66.0343 23.7237 65.036 23.5111C58.8926 22.2033 58.2934 30.961 61.372 34.238C62.1431 35.0592 63.2159 35.4647 64.0056 36.2172C65.0595 37.2207 65.1459 38.2778 65.2997 39.8097C65.5882 42.6822 65.1963 45.5658 63.9709 48.1934L64.5169 48.23ZM139.067 89.5747C140.881 89.9189 142.773 89.8402 144.592 90.134C145.238 90.2383 147.174 90.6023 147.742 90.2247C148.61 89.648 148.918 87.533 149.328 86.548C150.049 84.8156 151.07 83.3044 151.758 81.5404C154.568 74.335 157.189 67.1008 160.588 60.1415C159.286 59.8029 158.285 59.7896 156.972 59.6147C155.604 59.4324 154.364 58.6236 153.059 58.276C151.819 57.9457 150.52 58.0299 149.291 57.6457C148.614 57.4343 148.033 56.9641 147.365 56.7998C146.302 56.5382 145.06 56.3853 144.427 57.0836C143.779 57.7999 143.551 59.7639 143.198 60.6891C142.259 63.1539 141.167 65.5327 140.38 68.0542C139.669 70.3284 138.995 72.5784 138.369 74.8733C137.709 77.296 136.407 79.2928 135.614 81.6072C135.011 83.3688 134.441 85.1697 134.351 87.0479C134.264 88.8807 133.997 88.9974 135.83 89.2902C136.755 89.4378 138.197 89.9876 139.067 89.5747ZM258.39 175.352C258.862 175.572 259.308 175.543 259.726 175.264C255.63 173.534 251.647 171.135 247.375 169.949C243.367 168.836 239.472 167.506 235.611 166.136C232.474 165.022 229.654 164.155 226.817 162.195C225.096 161.005 223.566 159.667 222.383 157.929C221.066 155.993 220.773 153.238 219.347 151.495C217.421 153.609 215.16 155.21 212.882 156.89C212.094 157.472 210.203 158.739 209.934 159.638C209.594 160.773 210.505 161.859 210.955 163.008C212.11 165.95 212.674 168.89 213.3 171.949C213.551 173.174 214.093 175.017 215.1 175.531C216.017 175.998 218.672 175.658 219.813 175.571C225.765 175.12 231.612 174.659 237.6 175.069C244.377 175.534 251.631 175.855 258.39 175.352ZM270.279 120.839C271.361 120.843 272.418 120.707 273.495 120.707C272.873 117.802 274.328 114.043 274.843 111.144C275.42 107.9 275.86 104.546 276.244 101.276C277.055 94.3895 277.423 87.5862 277.433 80.6489C277.443 73.936 278.665 67.8016 280.377 61.3484C282.215 54.4179 285.225 48.1854 287.714 41.5016C284.984 42.9447 283.473 46.3214 282.038 48.9029C280.225 52.167 279.017 55.7811 278.277 59.4454C276.848 66.5142 275.281 73.6045 273.633 80.6616C271.917 88.0097 270.908 95.4252 268.941 102.713C267.983 106.267 266.679 110.64 266.606 114.305C266.576 115.821 266.119 118.996 266.807 120.313C267.449 121.545 268.87 120.965 270.279 120.839ZM106.983 111.722C106.926 112.477 106.872 113.194 106.738 113.94C108.237 113.926 110.134 112.371 111.42 111.673C112.985 110.822 114.553 109.885 116.084 109.03C119.04 107.379 122.396 106.292 125.552 104.936C129.178 103.379 132.511 101.497 135.979 99.6216C137.19 98.9666 145.894 95.1934 145.748 94.1626C143.837 94.0988 141.926 94.0354 140.015 93.9719C138.376 93.9174 135.839 94.2877 134.27 93.7812C133.411 93.5036 132.446 92.4818 132.121 91.6817C131.8 90.8899 132.522 87.2482 132.103 87.016C129.964 89.1998 128.619 92.1023 126.706 94.4582C124.593 97.062 121.862 98.5825 118.853 99.9661C115.529 101.494 112.089 102.678 108.693 103.987C107.26 104.539 107.289 104.856 107.164 106.426C107.025 108.181 107.04 109.962 106.983 111.722ZM279.688 177.765C283.29 178.151 286.982 177.931 290.613 178.232C291.934 178.342 293.766 178.505 292.437 180.278C291.6 181.395 288.919 181.037 287.702 181.114C284.437 181.322 280.98 181.21 277.707 181.162C277.018 181.152 276.257 180.947 275.56 180.993C274.756 181.046 273.794 181.624 273.061 181.62C272.609 181.617 272.448 181.141 272.058 181.097C271.21 181.002 270.362 180.932 269.506 180.933C256.571 180.935 243.813 180.675 230.909 180.661C224.739 180.655 218.47 180.548 212.303 180.259C211.008 180.198 203.632 180.463 203.836 178.131C203.941 176.93 206.349 176.76 207.227 176.633C207.878 176.538 208.553 176.553 209.206 176.518C210.938 176.425 211.697 176.842 211.332 174.946C209.945 167.755 207.461 161.812 202.153 156.642C197.813 152.414 192.587 148.579 187.671 145.048C181.702 140.761 176.859 136.252 173.315 129.692C171.246 125.862 169.513 121.945 168.45 117.709C168.067 116.185 168.058 114.452 167.59 112.983C167.229 111.852 166.407 111.061 165.923 109.889C159.984 119.809 152.113 128.108 144.896 137.051C141.447 141.324 137.513 145.382 133.393 149.1C132.17 150.203 131.029 151.355 129.888 152.542C128.933 153.535 127.418 154.418 126.612 155.521C125.839 156.578 126.029 156.528 127.206 157.367C128.762 158.477 130.476 159.399 132.056 160.481C134.582 162.211 137.339 163.673 139.598 165.755C142.04 168.006 144.174 170.615 146.309 173.153C147.732 174.846 149.599 177.017 149.957 179.156C150.075 179.864 150.525 181.615 149.931 182.134C149.424 182.577 149.475 182.408 148.845 182.138C148.019 181.784 147.776 180.972 146.767 180.584C144.186 179.594 141.062 179.934 138.376 179.922C135.69 179.91 132.981 180.212 130.295 180.201C124.163 180.175 118.161 180.672 112.03 180.938C105.519 181.221 98.9274 180.542 92.4377 180.639C87.6293 180.71 82.6928 180.35 77.7517 180.617C75.2101 180.755 72.714 180.437 70.2359 180.401C66.9913 180.354 63.6592 180.796 60.3868 180.859C55.0157 180.962 49.7103 180.962 44.3064 181.091C32.6827 181.369 21.1219 181.656 9.49135 181.84C7.93996 181.865 6.24154 181.812 4.70841 181.987C3.08118 182.173 3.92126 182.518 2.80476 183.104C-0.320931 184.744 0.400907 178.666 0.475815 177.47C0.877592 171.064 2.50389 164.781 4.4583 158.7C6.31242 152.931 7.81769 146.894 9.38797 141.001C11.1068 134.551 13.3463 128.366 15.38 121.979C17.4638 115.435 19.1603 108.636 22.945 102.835C23.8071 101.514 24.6979 100.092 26.0846 99.2591C27.6391 98.3252 27.706 98.8706 27.7047 97.1617C27.7038 95.5521 27.8029 93.4018 27.4231 91.8658C27.0798 90.4782 27.1327 91.3009 26.3598 90.3042C25.7308 89.4936 25.0728 88.9395 24.6215 87.9552C21.8493 90.7661 15.5035 89.2828 12.8251 87.2587C9.54676 84.7812 7.04973 80.6015 6.13475 76.6209C5.39991 73.4243 6.30159 67.3311 9.83958 65.794C11.5643 65.0446 17.8993 64.4781 18.1528 62.0359C18.2834 60.7752 16.0538 59.0024 15.5394 57.9184C14.586 55.9102 13.6704 53.2389 13.4054 51.0375C12.8879 46.7405 14.8386 41.9356 17.946 39.033C23.6464 33.7084 33.6763 30.9758 41.0089 34.3541C39.4594 28.4348 38.524 23.3284 39.3043 17.1712C39.9766 11.8666 43.1063 8.89881 47.4129 6.25661C54.7619 1.7472 64.7556 -0.0326302 73.1585 1.27856C75.0681 1.57665 76.9005 2.21584 78.6686 2.7244C81.2371 3.46327 84.312 3.21719 86.7372 4.41766C88.4957 5.28776 89.8311 7.02116 91.3753 8.17852C93.1784 9.52964 94.6765 11.5463 95.9292 13.4112C98.6083 17.3993 97.5614 24.8009 95.3191 28.8041C94.8384 29.6628 94.2444 30.3855 93.4489 30.9715C92.6206 31.5813 91.358 31.771 90.9311 32.5619C89.8379 34.5878 90.8925 38.9736 91.0383 41.1633C91.2082 43.7058 89.9227 45.6156 87.0397 45.8184C85.3719 45.936 85.3186 44.9684 84.52 46.9593C84.0025 48.2498 83.5323 49.6557 82.7854 50.8387C81.2455 53.277 78.425 53.0389 75.8558 52.973C72.8818 52.8962 69.9524 52.4263 66.9768 52.1298C67.7627 54.6479 69.914 56.6023 71.2574 58.8455C73.0737 61.8796 74.167 64.3945 74.4623 67.9294C74.6889 70.6453 74.1998 72.7901 72.3414 74.8114C71.5722 75.648 70.8903 75.6892 71.0812 76.6543C71.1976 77.2431 72.2157 78.2144 72.576 78.6843C73.529 79.9274 74.6356 81.0683 75.4745 82.3959C78.7023 87.5039 79.6557 95.2905 79.6637 101.237C79.664 101.509 79.8095 102.089 79.6891 102.371C79.6 102.579 78.9227 103.239 78.9128 103.296C78.7803 104.06 79.5257 105.371 80.6954 105.501C81.924 105.636 84.174 104.611 85.3168 104.275C87.1455 103.735 89.0095 103.337 90.8343 102.783C93.7813 101.889 96.7148 101.176 99.7108 100.475C101.065 100.159 102.426 99.8952 103.784 99.5993C105.331 99.2625 106.05 98.6116 106.849 100.186C107.534 101.536 107.108 101.781 108.767 101.101C110.415 100.424 112.025 99.586 113.633 98.8227C116.471 97.4768 119.85 96.277 122.297 94.2901C126.379 90.9753 127.891 85.6965 131.799 82.1792C132.887 81.1999 133.536 81.1825 134.223 79.8258C134.96 78.3738 135.34 76.5116 135.727 74.9497C136.405 72.2147 136.887 69.47 137.502 66.7374C138.268 63.3332 139.924 60.2502 141.132 57.0031C141.603 55.7381 141.847 54.13 142.606 52.9931C142.807 52.6916 143.192 52.5217 143.349 52.2722C143.889 51.4157 143.883 51.1805 144.023 50.15C144.678 45.3352 147.552 47.8681 150.693 48.9722C152.016 49.4375 158.299 52.4545 155.9 54.4609C158.76 55.2908 163.341 54.8398 163.302 58.9387C163.283 61.0389 162.027 63.2855 161.352 65.2513C160.753 66.9968 160.175 68.7491 159.566 70.4918C158.234 74.3093 156.617 78.0126 155.317 81.8418C154.724 83.587 154.235 85.373 153.41 87.0201C152.682 88.473 150.92 90.0746 150.629 91.6634C158.251 88.4117 165.302 83.7105 173.833 84.0101C177.569 84.1411 180.959 85.7113 183.022 88.9958C185.608 93.1127 187.31 97.722 189.838 101.877C199.035 116.991 210.003 130.722 220.099 145.211C220.875 146.324 221.872 147.377 222.141 148.753C222.316 149.651 221.976 150.549 222.186 151.411C222.623 153.203 224.83 155.441 226.326 156.471C229.194 158.445 233.857 161.229 237.436 160.983C235.19 155.585 235.22 149.67 235.324 143.911C235.423 138.442 236.015 133.016 236.716 127.602C236.875 126.378 237.013 125.242 237.365 124.055C237.769 122.693 238.324 122.822 237.114 121.598C235.252 119.713 233.037 118.162 231.16 116.253C227.099 112.126 222.938 108.891 219.742 103.962C216.703 99.2743 213.497 94.4508 211.247 89.3171C208.931 84.0324 208.006 78.3887 206.856 72.7919C206.39 70.5209 204.688 67.9855 205.03 65.6138C205.462 62.6166 206.852 64.7991 207.418 66.4121C209.144 71.3359 213.187 75.7427 216.536 79.7026C220.154 83.9804 224.578 87.5596 228.355 91.7129C232.467 96.2365 235.284 101.435 238.941 106.264C238.941 100.271 236.895 94.1691 236.058 88.2409C235.321 83.023 235.09 77.7888 234.624 72.5483C233.567 60.6442 234.481 48.3894 235.964 36.5704C236.67 30.9573 236.27 25.4763 236.291 19.844C236.298 18.0515 235.556 13.9201 236.501 12.3294C238.313 9.28263 239.369 15.9448 239.461 16.9381C240.008 22.8552 239.026 28.7063 239.528 34.598C240.052 40.7507 241.19 46.7306 242.158 52.812C243.207 59.3968 244.915 65.833 246.55 72.2914C248.267 79.0724 249.71 85.9949 251.619 92.7217C252.134 90.6073 251.412 88.0096 251.269 85.8562C251.065 82.7745 250.667 79.6921 250.633 76.6023C250.578 71.6779 250.54 66.6622 250.818 61.7607C251.093 56.9295 251.01 51.867 252.491 47.2125C253.195 45.0034 254.226 42.8481 255.235 40.7671C256.48 38.201 256.92 35.713 257.61 32.9838C258.2 30.6465 259.064 28.3708 259.458 25.9867C259.702 24.5041 260.385 20.1272 262.082 23.4433C263.068 25.368 262.642 28.2213 262.67 30.289C262.705 32.9398 262.299 35.5173 262.237 38.1571C262.116 43.3362 262.029 48.5092 261.643 53.6797C261.237 59.1043 261.591 63.9658 262.623 69.3109C263.753 75.1618 264.083 81.0253 264.669 86.9476C264.97 90.0055 265.479 93.0464 265.725 96.1087C265.855 97.7303 265.188 102.38 266.35 103.535C266.463 100.727 267.267 97.9154 267.878 95.1785C268.6 91.9361 268.892 88.5275 269.425 85.2387C270.288 79.9103 271.962 74.8219 273.069 69.5533C275.352 58.6926 277.249 44.7341 286.816 37.6253C288.068 36.6951 289.443 36.0086 290.797 35.2431C291.563 34.8097 292.701 33.6886 293.577 33.493C294.534 33.2794 294.933 33.4453 295.321 34.5553C295.862 36.1027 294.873 36.8254 293.949 37.9494C290.754 41.8384 289.389 46.8238 287.416 51.3848C282.898 61.8288 280.899 72.8446 280.876 84.134C280.864 90.0439 280.456 95.744 279.826 101.618C279.148 107.94 278.255 114.626 276.334 120.707C278.261 121.139 280.351 120.495 280.873 122.734C281.002 123.284 280.77 123.935 280.912 124.651C281.05 125.346 281.382 126.039 281.579 126.723C281.985 128.138 282.199 129.535 282.397 130.989C283.161 136.606 284.472 141.949 284.611 147.645C284.74 152.91 283.709 158.244 282.759 163.408C281.803 168.608 279.059 173.042 276.898 177.745C277.828 177.745 278.758 177.755 279.688 177.765Z" fill="#3D3C3C"/>
<path fill-rule="evenodd" clip-rule="evenodd" d="M157.421 165.809C156.396 166.099 151.45 166.645 151.451 168.197C151.452 169.128 156.391 169.11 157.265 169.211C157.317 168.077 157.369 166.943 157.421 165.809ZM168.338 176.519C171.188 177.061 175.057 176.299 176.88 173.786C177.731 172.612 178.135 170.826 178.412 169.425C178.677 168.089 179.494 164.757 178.938 163.505C178.255 161.968 171.707 163.575 169.8 163.751C166.472 164.058 163.032 164.094 159.703 163.877C159.703 167.315 159.527 170.666 161.549 173.624C163.007 175.759 165.747 176.263 168.338 176.519ZM167.765 180.765C164.668 179.631 161.417 180.368 159.4 177.043C158.889 176.2 158.458 175.293 158.148 174.356C157.997 173.945 157.879 173.525 157.796 173.095C157.953 172.168 157.614 171.907 156.777 172.31C155.136 171.991 153.336 173.118 151.607 172.786C147.413 171.98 148.175 165.973 150.989 163.894C151.545 163.483 152.101 163.369 152.737 163.166C154.14 162.719 154.899 163.218 156.182 163.091C157.219 162.988 157.504 161.901 158.619 161.422C159.348 161.109 160.361 161.133 161.128 161.102C165.142 160.937 169.169 160.938 173.209 160.677C175.093 160.555 177.127 160.853 178.973 160.531C179.837 160.38 179.713 159.805 180.531 160.309C181.378 160.832 181.013 162.764 180.97 163.534C180.722 167.99 180.457 172.768 178.071 176.663C175.887 180.226 171.591 180.591 167.765 180.765Z" fill="#3D3C3C"/>
<path fill-rule="evenodd" clip-rule="evenodd" d="M4.21033 181.992C5.20672 181.982 6.20281 181.971 7.1958 181.961C6.19817 181.972 5.20425 181.982 4.21033 181.992Z" fill="#3D3C3C"/>
<path fill-rule="evenodd" clip-rule="evenodd" d="M280.882 87.003C280.88 86.0459 280.878 85.0888 280.876 84.1336C280.878 85.0913 280.88 86.0472 280.882 87.003Z" fill="#3D3C3C"/>
<path fill-rule="evenodd" clip-rule="evenodd" d="M27.4259 90.9335C27.4228 91.8658 27.4197 92.7982 27.4166 93.7283C27.4194 92.7954 27.4225 91.8643 27.4259 90.9335Z" fill="#3D3C3C"/>
<path fill-rule="evenodd" clip-rule="evenodd" d="M110.248 180.935C111.041 180.937 111.834 180.938 112.623 180.94C111.829 180.939 111.039 180.937 110.248 180.935Z" fill="#3D3C3C"/>
<path fill-rule="evenodd" clip-rule="evenodd" d="M62.1165 180.745C62.9092 180.748 63.7016 180.75 64.4906 180.753C63.6966 180.751 62.9067 180.748 62.1165 180.745Z" fill="#3D3C3C"/>
<path fill-rule="evenodd" clip-rule="evenodd" d="M235.428 142.025C235.394 142.654 235.359 143.283 235.324 143.911C235.359 143.281 235.394 142.653 235.428 142.025Z" fill="#3D3C3C"/>
<path fill-rule="evenodd" clip-rule="evenodd" d="M279.688 177.764C279.075 177.758 278.462 177.751 277.85 177.745C278.465 177.488 279.078 177.5 279.688 177.764Z" fill="#3D3C3C"/>
<path fill-rule="evenodd" clip-rule="evenodd" d="M225.3 180.551C225.74 180.544 226.18 180.537 226.615 180.53C226.174 180.536 225.737 180.543 225.3 180.551Z" fill="#3D3C3C"/>
<path fill-rule="evenodd" clip-rule="evenodd" d="M280.644 94.7687C280.654 94.2929 280.665 93.8175 280.676 93.3436C280.665 93.8196 280.654 94.2941 280.644 94.7687Z" fill="#3D3C3C"/>
<path fill-rule="evenodd" clip-rule="evenodd" d="M239.528 34.598C239.491 34.1074 239.455 33.6171 239.419 33.1277C239.455 33.6186 239.491 34.1083 239.528 34.598Z" fill="#3D3C3C"/>
<path fill-rule="evenodd" clip-rule="evenodd" d="M280.861 88.8766C280.866 88.3848 280.872 87.8933 280.878 87.4033C280.872 87.8954 280.866 88.386 280.861 88.8766Z" fill="#3D3C3C"/>
<path fill-rule="evenodd" clip-rule="evenodd" d="M142.596 179.941C142.987 179.947 143.378 179.952 143.766 179.957C143.374 179.951 142.985 179.946 142.596 179.941Z" fill="#3D3C3C"/>
<path fill-rule="evenodd" clip-rule="evenodd" d="M243.29 180.743C243.672 180.75 244.054 180.758 244.432 180.766C244.049 180.759 243.669 180.751 243.29 180.743Z" fill="#3D3C3C"/>
<path fill-rule="evenodd" clip-rule="evenodd" d="M284.567 146.165C284.54 145.733 284.512 145.302 284.485 144.871C284.513 145.303 284.54 145.734 284.567 146.165Z" fill="#3D3C3C"/>
<path fill-rule="evenodd" clip-rule="evenodd" d="M277.707 181.162C278.018 181.16 278.329 181.158 278.637 181.158C278.325 181.16 278.016 181.161 277.707 181.162Z" fill="#3D3C3C"/>
<path fill-rule="evenodd" clip-rule="evenodd" d="M235.326 180.762C235.634 180.755 235.942 180.747 236.247 180.74C235.938 180.748 235.631 180.755 235.326 180.762Z" fill="#3D3C3C"/>
<path fill-rule="evenodd" clip-rule="evenodd" d="M166.087 180.527C166.426 180.525 166.765 180.523 167.101 180.521C166.761 180.523 166.424 180.525 166.087 180.527Z" fill="#3D3C3C"/>
<path fill-rule="evenodd" clip-rule="evenodd" d="M87.8951 180.526C88.2174 180.528 88.5399 180.53 88.8587 180.533C88.5353 180.531 88.2152 180.529 87.8951 180.526Z" fill="#3D3C3C"/>
<path fill-rule="evenodd" clip-rule="evenodd" d="M68.8738 180.578C69.2025 180.56 69.5306 180.541 69.8562 180.523C69.5266 180.542 69.2003 180.56 68.8738 180.578Z" fill="#3D3C3C"/>
<path fill-rule="evenodd" clip-rule="evenodd" d="M159.941 55.3341C159.452 55.292 158.962 55.2499 158.473 55.2075C158.963 55.2419 159.481 54.9522 159.941 55.3341Z" fill="#3D3C3C"/>
<path fill-rule="evenodd" clip-rule="evenodd" d="M284.614 177.95C284.131 177.902 283.649 177.853 283.167 177.804C283.65 177.853 284.131 177.902 284.614 177.95Z" fill="#3D3C3C"/>
<path fill-rule="evenodd" clip-rule="evenodd" d="M250.976 58.3035C250.944 58.726 250.911 59.1489 250.879 59.5702C250.911 59.147 250.944 58.7251 250.976 58.3035Z" fill="#3D3C3C"/>
<path fill-rule="evenodd" clip-rule="evenodd" d="M280.982 75.9198C281.015 75.5192 281.048 75.1187 281.08 74.7197C281.048 75.1209 281.014 75.5202 280.982 75.9198Z" fill="#3D3C3C"/>
<path fill-rule="evenodd" clip-rule="evenodd" d="M250.784 64.8576C250.749 65.2795 250.714 65.7011 250.68 66.1214C250.715 65.6992 250.749 65.2782 250.784 64.8576Z" fill="#3D3C3C"/>
<path fill-rule="evenodd" clip-rule="evenodd" d="M280.778 92.0893C280.775 91.6817 280.772 91.274 280.769 90.8676C281.032 91.274 281.021 91.6807 280.778 92.0893Z" fill="#3D3C3C"/>
<path fill-rule="evenodd" clip-rule="evenodd" d="M235.435 150.632C235.432 151.041 235.428 151.45 235.424 151.857C235.154 151.445 235.208 151.038 235.435 150.632Z" fill="#3D3C3C"/>
<path fill-rule="evenodd" clip-rule="evenodd" d="M266.173 103.359C266.126 102.946 266.079 102.532 266.032 102.12C266.079 102.534 266.126 102.947 266.173 103.359Z" fill="#3D3C3C"/>
<path fill-rule="evenodd" clip-rule="evenodd" d="M11.6526 65.4012C11.3328 65.8237 10.8973 65.5343 10.5172 65.5856C10.8961 65.524 11.2743 65.4628 11.6526 65.4012Z" fill="#3D3C3C"/>
<path fill-rule="evenodd" clip-rule="evenodd" d="M169.761 160.97C169.357 160.97 168.953 160.971 168.549 160.971C168.954 160.971 169.357 160.97 169.761 160.97Z" fill="#3D3C3C"/>
<path fill-rule="evenodd" clip-rule="evenodd" d="M234.299 67.137C234.336 67.4806 234.374 67.8242 234.412 68.1665C234.374 67.8223 234.336 67.4797 234.299 67.137Z" fill="#3D3C3C"/>
<path fill-rule="evenodd" clip-rule="evenodd" d="M34.6643 33.0135C34.2581 33.0215 33.852 33.0296 33.4459 33.0376C33.8477 32.8011 34.2526 32.7327 34.6643 33.0135Z" fill="#3D3C3C"/>
<path fill-rule="evenodd" clip-rule="evenodd" d="M250.774 70.801C250.747 71.1613 250.721 71.5213 250.695 71.8801C250.721 71.5198 250.747 71.1604 250.774 70.801Z" fill="#3D3C3C"/>
<path fill-rule="evenodd" clip-rule="evenodd" d="M239.637 26.5739C239.669 26.2455 239.7 25.9171 239.731 25.5905C239.699 25.9195 239.669 26.2467 239.637 26.5739Z" fill="#3D3C3C"/>
<path fill-rule="evenodd" clip-rule="evenodd" d="M236.445 25.545C236.414 25.9013 236.382 26.2579 236.35 26.6129C236.382 26.256 236.414 25.9004 236.445 25.545Z" fill="#3D3C3C"/>
<path fill-rule="evenodd" clip-rule="evenodd" d="M60.0436 1.74419C59.6303 1.79434 59.2171 1.84448 58.8042 1.89432C59.2174 1.84417 59.6303 1.79434 60.0436 1.74419Z" fill="#3D3C3C"/>
<path fill-rule="evenodd" clip-rule="evenodd" d="M30.1968 33.297C29.7727 33.3404 29.3487 33.3837 28.9249 33.427C29.349 33.3837 29.7731 33.3404 30.1968 33.297Z" fill="#3D3C3C"/>
<path fill-rule="evenodd" clip-rule="evenodd" d="M262.575 34.3414C262.601 34.0099 262.627 33.6781 262.653 33.3484C262.627 33.6802 262.601 34.0108 262.575 34.3414Z" fill="#3D3C3C"/>
<path fill-rule="evenodd" clip-rule="evenodd" d="M16.2781 89.0537C16.5223 89.0574 16.7662 89.0608 17.0067 89.0645C16.7616 89.0608 16.5198 89.0574 16.2781 89.0537Z" fill="#3D3C3C"/>
<path fill-rule="evenodd" clip-rule="evenodd" d="M236.458 129.97C236.433 130.337 236.409 130.704 236.385 131.07C236.409 130.703 236.434 130.336 236.458 129.97Z" fill="#3D3C3C"/>
<path fill-rule="evenodd" clip-rule="evenodd" d="M261.371 58.5285C261.361 58.1747 261.352 57.8212 261.342 57.4683C261.352 57.8224 261.362 58.1753 261.371 58.5285Z" fill="#3D3C3C"/>
<path fill-rule="evenodd" clip-rule="evenodd" d="M70.4457 0.907076C70.069 0.907076 69.6922 0.907385 69.3162 0.907385C69.6929 0.648613 70.0693 0.655114 70.4457 0.907076Z" fill="#3D3C3C"/>
<path fill-rule="evenodd" clip-rule="evenodd" d="M171.017 84.1794C170.605 84.19 170.192 84.2005 169.78 84.211C170.185 83.9244 170.598 83.9173 171.017 84.1794Z" fill="#3D3C3C"/>
<path fill-rule="evenodd" clip-rule="evenodd" d="M207.075 179.926C207.319 179.931 207.564 179.937 207.806 179.942C207.56 179.938 207.317 179.932 207.075 179.926Z" fill="#3D3C3C"/>
<path fill-rule="evenodd" clip-rule="evenodd" d="M216.286 180.356C216.53 180.348 216.774 180.339 217.015 180.331C216.77 180.339 216.528 180.348 216.286 180.356Z" fill="#3D3C3C"/>
<path fill-rule="evenodd" clip-rule="evenodd" d="M72.1364 180.526C72.3911 180.533 72.6458 180.539 72.8972 180.545C72.6415 180.539 72.3889 180.533 72.1364 180.526Z" fill="#3D3C3C"/>
<path fill-rule="evenodd" clip-rule="evenodd" d="M284.356 142.071C284.319 141.721 284.283 141.371 284.247 141.023C284.283 141.373 284.319 141.722 284.356 142.071Z" fill="#3D3C3C"/>
<path fill-rule="evenodd" clip-rule="evenodd" d="M251.086 83.1051C251.115 83.4384 251.144 83.7718 251.172 84.103C251.143 83.7693 251.114 83.4372 251.086 83.1051Z" fill="#3D3C3C"/>
<path fill-rule="evenodd" clip-rule="evenodd" d="M263.889 77.3814C263.85 77.0279 263.81 76.6744 263.771 76.3222C263.81 76.676 263.85 77.0285 263.889 77.3814Z" fill="#3D3C3C"/>
<path fill-rule="evenodd" clip-rule="evenodd" d="M74.2031 180.737C74.46 180.733 74.7173 180.729 74.9714 180.726C74.7132 180.73 74.4582 180.733 74.2031 180.737Z" fill="#3D3C3C"/>
<path fill-rule="evenodd" clip-rule="evenodd" d="M167.765 180.765C168.015 180.753 168.265 180.742 168.512 180.731C168.261 180.743 168.013 180.754 167.765 180.765Z" fill="#3D3C3C"/>
<path fill-rule="evenodd" clip-rule="evenodd" d="M261.799 51.5695C261.788 51.2114 261.777 50.8532 261.766 50.4957C261.777 50.8542 261.788 51.2117 261.799 51.5695Z" fill="#3D3C3C"/>
<path fill-rule="evenodd" clip-rule="evenodd" d="M49.8416 180.971C50.0923 180.969 50.3427 180.967 50.59 180.965C50.338 180.968 50.0901 180.969 49.8416 180.971Z" fill="#3D3C3C"/>
<path fill-rule="evenodd" clip-rule="evenodd" d="M261.695 180.967C261.952 180.97 262.21 180.973 262.465 180.975C262.205 180.973 261.95 180.97 261.695 180.967Z" fill="#3D3C3C"/>
<path fill-rule="evenodd" clip-rule="evenodd" d="M267.259 180.937C267.508 180.954 267.756 180.972 268.002 180.989C267.752 180.972 267.505 180.954 267.259 180.937Z" fill="#3D3C3C"/>
<path fill-rule="evenodd" clip-rule="evenodd" d="M269.506 180.932C269.759 180.94 270.013 180.947 270.263 180.953C270.009 180.945 269.757 180.939 269.506 180.932Z" fill="#3D3C3C"/>
<path fill-rule="evenodd" clip-rule="evenodd" d="M281.044 78.8012C281.027 78.449 281.011 78.0964 280.994 77.7451C281.011 78.098 281.027 78.4496 281.044 78.8012Z" fill="#3D3C3C"/>
<path fill-rule="evenodd" clip-rule="evenodd" d="M111.006 176.315C111.776 176.275 112.547 176.235 113.318 176.194C112.547 176.235 111.776 176.275 111.006 176.315Z" fill="#3D3C3C"/>
<path fill-rule="evenodd" clip-rule="evenodd" d="M64.5167 48.2299C65.1856 48.2881 65.8545 48.3463 66.5228 48.4039C65.8539 48.346 65.1853 48.2878 64.5167 48.2299Z" fill="#3D3C3C"/>
<path fill-rule="evenodd" clip-rule="evenodd" d="M253.379 77.3115C253.4 77.9497 253.421 78.588 253.442 79.2244C253.421 78.5858 253.4 77.9488 253.379 77.3115Z" fill="#3D3C3C"/>
<path fill-rule="evenodd" clip-rule="evenodd" d="M267.184 177.406C267.882 177.449 268.58 177.491 269.278 177.533C268.576 177.565 267.863 177.765 267.184 177.406Z" fill="#3D3C3C"/>
<path fill-rule="evenodd" clip-rule="evenodd" d="M263.051 101.909C263.057 101.3 263.062 100.691 263.067 100.084C263.062 100.693 263.057 101.301 263.051 101.909Z" fill="#3D3C3C"/>
<path fill-rule="evenodd" clip-rule="evenodd" d="M261.264 121.038C261.877 121.046 262.49 121.055 263.102 121.063C262.489 121.054 261.877 121.046 261.264 121.038Z" fill="#3D3C3C"/>
<path fill-rule="evenodd" clip-rule="evenodd" d="M107.027 110.334C107.012 110.798 106.997 111.262 106.982 111.724C106.998 111.259 107.013 110.797 107.027 110.334Z" fill="#3D3C3C"/>
<path fill-rule="evenodd" clip-rule="evenodd" d="M271.461 90.6865C271.436 91.1483 271.411 91.6099 271.387 92.0692C271.412 91.6071 271.437 91.1468 271.461 90.6865Z" fill="#3D3C3C"/>
<path fill-rule="evenodd" clip-rule="evenodd" d="M258.39 175.352C258.836 175.322 259.281 175.292 259.726 175.263C259.391 175.531 259.054 175.553 258.39 175.352Z" fill="#3D3C3C"/>
<path fill-rule="evenodd" clip-rule="evenodd" d="M255.407 114.993C255.438 115.49 255.468 115.988 255.498 116.484C255.468 115.986 255.438 115.49 255.407 114.993Z" fill="#3D3C3C"/>
<path fill-rule="evenodd" clip-rule="evenodd" d="M88.7483 36.4314C88.7529 35.9507 88.7576 35.4699 88.7625 34.9911C88.7579 35.4724 88.7532 35.9519 88.7483 36.4314Z" fill="#3D3C3C"/>
<path fill-rule="evenodd" clip-rule="evenodd" d="M255.946 121.139L257.608 121.102C257.06 121.367 256.506 121.377 255.946 121.139Z" fill="#3D3C3C"/>
<path fill-rule="evenodd" clip-rule="evenodd" d="M271.273 124.686C270.881 124.69 270.49 124.693 270.1 124.697C270.493 124.694 270.883 124.69 271.273 124.686Z" fill="#3D3C3C"/>
<path fill-rule="evenodd" clip-rule="evenodd" d="M127.812 175.543C128.354 175.55 128.897 175.557 129.439 175.564C128.893 175.838 128.35 175.877 127.812 175.543Z" fill="#3D3C3C"/>
<path fill-rule="evenodd" clip-rule="evenodd" d="M25.6559 177.141C26.2062 177.092 26.7569 177.043 27.3073 176.993C26.7569 177.043 26.2062 177.092 25.6559 177.141Z" fill="#3D3C3C"/>
<path fill-rule="evenodd" clip-rule="evenodd" d="M253.57 81.4106C253.597 81.9102 253.624 82.4098 253.651 82.9078C253.624 82.4076 253.597 81.9093 253.57 81.4106Z" fill="#3D3C3C"/>
<path fill-rule="evenodd" clip-rule="evenodd" d="M77.8959 49.4028C78.3599 49.174 78.8276 49.1356 79.2999 49.378C78.8316 49.3864 78.3639 49.3947 77.8959 49.4028Z" fill="#3D3C3C"/>
<path fill-rule="evenodd" clip-rule="evenodd" d="M238.393 87.1795C238.431 87.6007 238.469 88.0223 238.508 88.4424C238.469 88.0205 238.431 87.5998 238.393 87.1795Z" fill="#3D3C3C"/>
<path fill-rule="evenodd" clip-rule="evenodd" d="M277.588 77.3464C277.35 76.9341 277.358 76.524 277.6 76.1175C277.596 76.5277 277.592 76.9372 277.588 77.3464Z" fill="#3D3C3C"/>
<path fill-rule="evenodd" clip-rule="evenodd" d="M253.646 63.0334C253.646 63.4504 253.647 63.8676 253.647 64.2833C253.646 63.8655 253.646 63.4495 253.646 63.0334Z" fill="#3D3C3C"/>
<path fill-rule="evenodd" clip-rule="evenodd" d="M270.279 120.839C270.757 120.693 271.234 120.486 271.71 120.844C271.233 120.842 270.756 120.841 270.279 120.839Z" fill="#3D3C3C"/>
<path fill-rule="evenodd" clip-rule="evenodd" d="M115.943 176.126C116.423 176.082 116.904 176.037 117.384 175.992C116.904 176.037 116.423 176.082 115.943 176.126Z" fill="#3D3C3C"/>
<path fill-rule="evenodd" clip-rule="evenodd" d="M50.0596 176.127C50.4997 175.934 50.939 175.832 51.3726 176.142C50.9346 176.137 50.4973 176.132 50.0596 176.127Z" fill="#3D3C3C"/>
<path fill-rule="evenodd" clip-rule="evenodd" d="M140.092 175.506C140.563 175.301 141.033 175.188 141.497 175.521C141.029 175.516 140.56 175.511 140.092 175.506Z" fill="#3D3C3C"/>
<path fill-rule="evenodd" clip-rule="evenodd" d="M35.318 114.613C35.3533 115.038 35.3889 115.463 35.4239 115.887C35.3883 115.461 35.353 115.037 35.318 114.613Z" fill="#3D3C3C"/>
<path fill-rule="evenodd" clip-rule="evenodd" d="M144.592 90.1337C145.055 89.9653 145.516 89.8774 145.971 90.1588C145.511 90.1501 145.051 90.142 144.592 90.1337Z" fill="#3D3C3C"/>
<path fill-rule="evenodd" clip-rule="evenodd" d="M253.563 102.784C253.589 103.2 253.614 103.615 253.64 104.03C253.614 103.614 253.588 103.199 253.563 102.784Z" fill="#3D3C3C"/>
<path fill-rule="evenodd" clip-rule="evenodd" d="M35.0186 65.3021C34.9803 65.6367 34.9419 65.9716 34.9038 66.3043C34.9422 65.9691 34.9803 65.6358 35.0186 65.3021Z" fill="#3D3C3C"/>
<path fill-rule="evenodd" clip-rule="evenodd" d="M8.17818 162.339C8.15435 162.665 8.13082 162.99 8.1073 163.314C8.13175 162.988 8.15497 162.663 8.17818 162.339Z" fill="#3D3C3C"/>
<path fill-rule="evenodd" clip-rule="evenodd" d="M263.257 104.983C263.231 104.646 263.205 104.309 263.179 103.974C263.205 104.311 263.231 104.647 263.257 104.983Z" fill="#3D3C3C"/>
<path fill-rule="evenodd" clip-rule="evenodd" d="M229.533 174.878C229.946 174.881 230.358 174.884 230.771 174.886C230.358 174.884 229.945 174.881 229.533 174.878Z" fill="#3D3C3C"/>
<path fill-rule="evenodd" clip-rule="evenodd" d="M106.871 113.2C106.948 113.445 107.025 113.691 107.102 113.936C106.587 114.06 106.51 113.815 106.871 113.2Z" fill="#3D3C3C"/>
<path fill-rule="evenodd" clip-rule="evenodd" d="M137.81 89.5796C138.229 89.5777 138.648 89.5762 139.067 89.5743C138.649 89.773 138.23 89.9096 137.81 89.5796Z" fill="#3D3C3C"/>
<path fill-rule="evenodd" clip-rule="evenodd" d="M35.5529 116.625C35.5671 116.996 35.5813 117.368 35.5949 117.738C35.5804 117.367 35.5665 116.996 35.5529 116.625Z" fill="#3D3C3C"/>
<path fill-rule="evenodd" clip-rule="evenodd" d="M39.9868 176.534C40.3914 176.533 40.7956 176.533 41.2002 176.533C40.7953 176.533 40.3914 176.533 39.9868 176.534Z" fill="#3D3C3C"/>
<path fill-rule="evenodd" clip-rule="evenodd" d="M239.41 120.542C239.425 120.884 239.44 121.226 239.455 121.566C239.441 121.223 239.425 120.882 239.41 120.542Z" fill="#3D3C3C"/>
<path fill-rule="evenodd" clip-rule="evenodd" d="M31.3984 176.951C31.7962 176.687 32.1949 176.71 32.5942 176.946C32.1955 176.948 31.7968 176.949 31.3984 176.951Z" fill="#3D3C3C"/>
<path fill-rule="evenodd" clip-rule="evenodd" d="M41.8722 60.5238C41.8936 60.8729 41.9152 61.2224 41.9375 61.5694C41.9161 61.2196 41.8942 60.8717 41.8722 60.5238Z" fill="#3D3C3C"/>
<path fill-rule="evenodd" clip-rule="evenodd" d="M29.3286 176.987C29.7422 176.988 30.1557 176.99 30.5689 176.992C30.1541 177.274 29.7409 177.287 29.3286 176.987Z" fill="#3D3C3C"/>
<path fill-rule="evenodd" clip-rule="evenodd" d="M258.32 55.0429C258.323 54.6881 258.326 54.3337 258.329 53.9799C258.326 54.335 258.323 54.6888 258.32 55.0429Z" fill="#3D3C3C"/>
<path fill-rule="evenodd" clip-rule="evenodd" d="M68.4659 48.8397C68.8615 48.8914 69.2571 48.9431 69.6524 48.9945C69.2568 48.9428 68.8612 48.8914 68.4659 48.8397Z" fill="#3D3C3C"/>
<path fill-rule="evenodd" clip-rule="evenodd" d="M33.5581 79.4525C33.5634 79.7837 33.5686 80.1152 33.5748 80.4449C33.5696 80.1131 33.564 79.7828 33.5581 79.4525Z" fill="#3D3C3C"/>
<path fill-rule="evenodd" clip-rule="evenodd" d="M260.983 79.4048C260.961 79.0674 260.939 78.73 260.918 78.3942C260.939 78.7322 260.961 79.0687 260.983 79.4048Z" fill="#3D3C3C"/>
<path fill-rule="evenodd" clip-rule="evenodd" d="M168.719 176.591C169.207 176.635 169.695 176.68 170.183 176.724C169.695 176.679 169.207 176.635 168.719 176.591Z" fill="#3D3C3C"/>
<path fill-rule="evenodd" clip-rule="evenodd" d="M167.088 163.955C166.824 163.959 166.561 163.963 166.299 163.969C166.564 163.965 166.826 163.96 167.088 163.955Z" fill="#3D3C3C"/>
<path fill-rule="evenodd" clip-rule="evenodd" d="M167.11 176.398C167.519 176.438 167.929 176.479 168.338 176.519C167.929 176.478 167.519 176.438 167.11 176.398Z" fill="#3D3C3C"/>
<path fill-rule="evenodd" clip-rule="evenodd" d="M93.4343 148.828C93.967 151.838 89.2893 154.781 88.9185 150.503C88.7829 148.938 89.8291 147.838 91.0007 146.881C92.6636 145.524 93.5925 146.824 93.4343 148.828Z" fill="#3D3C3C"/>
<path fill-rule="evenodd" clip-rule="evenodd" d="M41.874 112.105C42.9759 112.556 51.395 115.3 47.0219 116.68C45.8642 117.045 44.1144 117.1 43.1109 116.456C41.9037 115.682 40.686 113.396 41.874 112.105Z" fill="#3D3C3C"/>
<path fill-rule="evenodd" clip-rule="evenodd" d="M43.946 71.3445C46.8036 71.0127 49.4365 75.7062 45.9134 75.5539C43.3489 75.4428 39.9 71.3445 43.946 71.3445Z" fill="#3D3C3C"/>
<path fill-rule="evenodd" clip-rule="evenodd" d="M54.1685 82.8524C56.5547 84.9344 52.1318 89.5938 50.3758 87.7905C49.4791 86.8693 50.3061 84.8849 51.0462 84.1141C51.8058 83.3232 53.1573 83.1747 54.1685 82.8524Z" fill="#3D3C3C"/>
<path fill-rule="evenodd" clip-rule="evenodd" d="M61.2724 136.826C59.8637 137.05 53.6686 139.074 54.9606 135.397C55.4534 133.995 56.8277 134.411 58.0842 134.475C60.1091 134.579 61.2724 134.482 61.2724 136.826Z" fill="#3D3C3C"/>
<path fill-rule="evenodd" clip-rule="evenodd" d="M57.1916 146.297C59.3004 147.425 56.2178 153.739 54.4698 152.396C52.0446 150.531 55.3616 146.864 57.1916 146.297Z" fill="#3D3C3C"/>
<path fill-rule="evenodd" clip-rule="evenodd" d="M66.3892 141.221C67.4147 140.803 72.2487 145.452 70.4086 146.746C69.4654 147.409 67.6784 146.272 67.1098 145.587C66.0438 144.302 65.9472 142.716 66.3892 141.221Z" fill="#3D3C3C"/>
<path fill-rule="evenodd" clip-rule="evenodd" d="M38.4992 103.215C39.5473 103.387 41.3568 103.441 41.4246 104.914C41.4841 106.209 39.8612 106.628 38.7187 106.73C37.5331 106.835 35.9638 106.5 35.9412 105.01C35.9174 103.402 38.4621 103.499 38.4992 103.215Z" fill="#3D3C3C"/>
<path fill-rule="evenodd" clip-rule="evenodd" d="M64.3448 167.305C65.461 167.983 70.6674 170.422 68.4357 172.185C67.6005 172.844 65.0688 171.482 64.499 170.79C63.8189 169.963 63.1544 168.027 64.3448 167.305Z" fill="#3D3C3C"/>
<path fill-rule="evenodd" clip-rule="evenodd" d="M78.8181 149.601C78.6569 146.908 83.2002 145.836 82.2583 149.659C81.9927 150.737 81.7358 152.373 80.4033 152.435C78.8284 152.509 78.7714 150.646 78.8181 149.601Z" fill="#3D3C3C"/>
<path fill-rule="evenodd" clip-rule="evenodd" d="M64.7829 102.771C64.8145 104.814 60.9001 106.616 60.8698 103.378C60.8428 100.484 64.929 99.6373 64.7829 102.771Z" fill="#3D3C3C"/>
<path fill-rule="evenodd" clip-rule="evenodd" d="M62.1979 92.1317C63.1624 92.4425 64.4442 92.6025 64.529 93.828C64.6191 95.1249 63.4144 95.7022 62.3304 95.6295C61.4414 95.5697 60.1259 94.9116 59.9643 93.9471C59.7275 92.5313 61.1093 92.4388 62.1979 92.1317Z" fill="#3D3C3C"/>
<path fill-rule="evenodd" clip-rule="evenodd" d="M44.263 129.534C44.2466 127.848 47.6249 125.822 48.247 127.778C48.4461 128.404 46.8538 131.211 46.3242 131.421C44.9229 131.977 44.7273 130.681 44.263 129.534Z" fill="#3D3C3C"/>
<path fill-rule="evenodd" clip-rule="evenodd" d="M71.9463 157.591C70.8047 158.613 67.3803 161.483 67.6363 157.63C67.7997 155.169 72.2474 155.297 71.9463 157.591Z" fill="#3D3C3C"/>
<path fill-rule="evenodd" clip-rule="evenodd" d="M127.738 168.603C128.112 166.983 133.47 169.794 131.682 171.84C131.082 172.527 129.513 171.906 128.91 171.499C127.716 170.693 127.69 169.949 127.738 168.603Z" fill="#3D3C3C"/>
<path fill-rule="evenodd" clip-rule="evenodd" d="M97.8878 133.924C98.0968 133.202 98.3289 131.924 99.0179 131.463C100.265 130.63 101.35 131.888 101.351 133.213C101.351 135.686 98.5357 136.467 97.8878 133.924Z" fill="#3D3C3C"/>
<path fill-rule="evenodd" clip-rule="evenodd" d="M84.6096 162.84C86.0007 163.159 89.0979 166.54 87.3017 167.92C85.5729 169.247 83.2737 163.85 84.6096 162.84Z" fill="#3D3C3C"/>
<path fill-rule="evenodd" clip-rule="evenodd" d="M85.9338 137.245C87.7223 137.388 90.1806 140.284 87.4007 140.745C85.2262 141.105 82.6973 137.955 85.9338 137.245Z" fill="#3D3C3C"/>
<path fill-rule="evenodd" clip-rule="evenodd" d="M102.126 150.573C102.574 149.062 107.01 150.681 106.761 152.344C106.628 153.229 104.815 153.437 103.861 153.203C102.458 152.858 102.094 151.938 102.126 150.573Z" fill="#3D3C3C"/>
<path fill-rule="evenodd" clip-rule="evenodd" d="M49.8399 66.1917C49.872 64.2385 53.6252 63.4424 53.9 65.4108C54.1486 67.189 49.7928 69.0812 49.8399 66.1917Z" fill="#3D3C3C"/>
<path fill-rule="evenodd" clip-rule="evenodd" d="M100.886 170.699C101.156 169.717 101.273 168.534 102.5 168.405C103.904 168.257 103.863 169.334 103.698 170.45C103.248 173.487 101.532 173.639 100.886 170.699Z" fill="#3D3C3C"/>
<path fill-rule="evenodd" clip-rule="evenodd" d="M41.617 89.4301C39.6604 89.8715 36.0769 86.1032 38.2672 85.2947C39.8106 84.7242 41.617 88.2931 41.617 89.4301Z" fill="#3D3C3C"/>
<path fill-rule="evenodd" clip-rule="evenodd" d="M66.5724 118.701C65.5766 119.17 65.3472 119.454 64.5824 118.685C63.9162 118.015 63.9456 116.148 64.5174 115.451C66.707 112.781 66.6556 117.621 66.5724 118.701Z" fill="#3D3C3C"/>
<path fill-rule="evenodd" clip-rule="evenodd" d="M74.6965 113.287C75.7349 113.419 78.8207 116.346 77.2139 117.509C75.2449 118.934 74.1309 114.47 74.6965 113.287Z" fill="#3D3C3C"/>
<path fill-rule="evenodd" clip-rule="evenodd" d="M97.1652 114.058C96.4103 116.965 94.5261 115.009 94.6329 112.809C94.8044 109.286 96.7569 112.354 97.1652 114.058Z" fill="#3D3C3C"/>
<path fill-rule="evenodd" clip-rule="evenodd" d="M108.622 160.744C109.899 161.272 111.632 166.154 109.808 166.416C107.759 166.71 108.442 161.76 108.622 160.744Z" fill="#3D3C3C"/>
<path fill-rule="evenodd" clip-rule="evenodd" d="M92.6728 158.001C94.1341 157.508 94.6696 160.59 93.8202 161.163C91.9515 162.423 92.3456 158.728 92.6728 158.001Z" fill="#3D3C3C"/>
<path fill-rule="evenodd" clip-rule="evenodd" d="M78.8181 149.601C78.7995 150.011 78.7813 150.42 78.7621 150.827C78.7803 150.417 78.7989 150.009 78.8181 149.601Z" fill="#3D3C3C"/>
<path fill-rule="evenodd" clip-rule="evenodd" d="M127.738 168.603C127.723 169.023 127.708 169.443 127.692 169.86C127.706 169.44 127.722 169.022 127.738 168.603Z" fill="#3D3C3C"/>
<path fill-rule="evenodd" clip-rule="evenodd" d="M102.126 150.573C102.118 150.929 102.109 151.285 102.1 151.639C102.108 151.282 102.117 150.927 102.126 150.573Z" fill="#3D3C3C"/>
<path fill-rule="evenodd" clip-rule="evenodd" d="M263.764 144.447C266.794 144.35 270.174 143.209 273.151 143.572C273.971 143.672 275.857 143.879 274.544 145.094C273.916 145.675 270.91 145.375 270 145.568C264.437 146.746 258.122 147.505 252.419 147.407C249.749 147.361 247.059 147.147 244.39 147.006C241.723 146.865 241.461 145.781 244.462 145.437C247.578 145.079 250.776 145.212 253.909 145.208C257.202 145.203 260.478 144.667 263.764 144.447Z" fill="#3D3C3C"/>
<path fill-rule="evenodd" clip-rule="evenodd" d="M270.416 137.148C270.124 137.978 269.868 139.883 268.751 140.008C267.186 140.183 266.926 137.496 266.984 136.513C267.054 135.327 267.481 133.357 268.955 133.768C270.2 134.114 270.325 136.198 270.416 137.148Z" fill="#3D3C3C"/>
<path fill-rule="evenodd" clip-rule="evenodd" d="M260.941 136.54C261.17 135.651 261.282 133.646 262.54 133.578C263.945 133.502 264.346 135.591 264.337 136.591C264.328 137.541 263.976 139.336 262.857 139.555C261.34 139.853 261.205 137.555 260.941 136.54Z" fill="#3D3C3C"/>
<path fill-rule="evenodd" clip-rule="evenodd" d="M245.162 138.134C244.707 139.203 244.406 140.675 242.997 139.946C241.907 139.383 241.755 137.11 241.961 136.07C242.173 134.992 242.624 133.756 243.863 134.241C245.291 134.8 245.147 136.958 245.162 138.134Z" fill="#3D3C3C"/>
<path fill-rule="evenodd" clip-rule="evenodd" d="M257.111 137.147C255.768 141.219 253.318 138.464 254.249 135.425C255.221 132.248 256.988 135.333 257.111 137.147Z" fill="#3D3C3C"/>
<path fill-rule="evenodd" clip-rule="evenodd" d="M250.567 137.349C250.194 138.066 249.798 139.612 248.792 139.449C247.56 139.25 247.52 136.878 247.655 135.994C247.773 135.221 248.12 133.932 249.152 133.949C250.643 133.973 250.543 136.421 250.567 137.349Z" fill="#3D3C3C"/>
<path fill-rule="evenodd" clip-rule="evenodd" d="M277.358 138.131C276.359 140.374 274.983 138.441 275.424 136.848C276.076 134.486 277.302 136.579 277.358 138.131Z" fill="#3D3C3C"/>
<path fill-rule="evenodd" clip-rule="evenodd" d="M252.873 145.211C251.781 145.206 250.689 145.202 249.597 145.198C250.69 144.992 251.782 144.912 252.873 145.211Z" fill="#3D3C3C"/>
<path fill-rule="evenodd" clip-rule="evenodd" d="M274.572 143.563C273.624 143.569 272.678 143.575 271.731 143.581C272.676 143.298 273.623 143.291 274.572 143.563Z" fill="#3D3C3C"/>
<path fill-rule="evenodd" clip-rule="evenodd" d="M263.764 144.447C263.006 144.498 262.248 144.548 261.491 144.599C262.249 144.548 263.006 144.498 263.764 144.447Z" fill="#3D3C3C"/>
<path fill-rule="evenodd" clip-rule="evenodd" d="M245.162 138.134C245.155 137.59 245.148 137.046 245.141 136.503C245.421 137.044 245.402 137.588 245.162 138.134Z" fill="#3D3C3C"/>
<path fill-rule="evenodd" clip-rule="evenodd" d="M251.104 147.396C251.543 147.4 251.983 147.403 252.419 147.407C251.978 147.403 251.541 147.4 251.104 147.396Z" fill="#3D3C3C"/>
<path fill-rule="evenodd" clip-rule="evenodd" d="M243.723 147.006C244.168 147.006 244.613 147.006 245.055 147.006C244.608 147.006 244.165 147.006 243.723 147.006Z" fill="#3D3C3C"/>
<path fill-rule="evenodd" clip-rule="evenodd" d="M247.372 145.258C246.753 145.308 246.134 145.359 245.516 145.41C246.135 145.359 246.753 145.308 247.372 145.258Z" fill="#3D3C3C"/>
<path fill-rule="evenodd" clip-rule="evenodd" d="M255.742 145.204C255.131 145.205 254.52 145.206 253.909 145.208C254.52 144.95 255.131 144.943 255.742 145.204Z" fill="#3D3C3C"/>
<path fill-rule="evenodd" clip-rule="evenodd" d="M250.567 137.349C250.552 136.782 250.537 136.215 250.523 135.648C250.538 136.216 250.553 136.783 250.567 137.349Z" fill="#3D3C3C"/>
<path fill-rule="evenodd" clip-rule="evenodd" d="M241.961 136.07C241.958 136.623 241.954 137.176 241.95 137.727C241.953 137.174 241.957 136.622 241.961 136.07Z" fill="#3D3C3C"/>
<path fill-rule="evenodd" clip-rule="evenodd" d="M267.238 144.241C266.697 144.29 266.157 144.339 265.617 144.388C266.158 144.339 266.698 144.29 267.238 144.241Z" fill="#3D3C3C"/>
<path fill-rule="evenodd" clip-rule="evenodd" d="M277.358 138.131C277.341 137.647 277.323 137.164 277.306 136.682C277.324 137.165 277.341 137.648 277.358 138.131Z" fill="#3D3C3C"/>
<path fill-rule="evenodd" clip-rule="evenodd" d="M254.369 147.412C254.745 147.405 255.121 147.397 255.494 147.391C255.116 147.398 254.743 147.405 254.369 147.412Z" fill="#3D3C3C"/>
<path fill-rule="evenodd" clip-rule="evenodd" d="M270.416 137.148C270.383 136.8 270.349 136.453 270.317 136.107C270.35 136.454 270.383 136.801 270.416 137.148Z" fill="#3D3C3C"/>
<path fill-rule="evenodd" clip-rule="evenodd" d="M257.111 137.148C257.087 136.791 257.062 136.434 257.038 136.078C257.063 136.435 257.087 136.792 257.111 137.148Z" fill="#3D3C3C"/>
<path fill-rule="evenodd" clip-rule="evenodd" d="M63.1449 32.3604C61.6656 31.9722 61.3883 29.8934 61.626 28.6165C61.8956 28.0012 62.1652 27.3861 62.4348 26.7708C62.3293 26.5433 62.224 26.3158 62.1188 26.0883C62.2541 24.821 61.9083 24.2704 63.3647 24.7836C66.07 25.7376 66.5024 32.2626 63.1449 32.3604Z" fill="#3D3C3C"/>
<path fill-rule="evenodd" clip-rule="evenodd" d="M85.0421 28.3411C86.2607 28.2451 88.4742 29.6643 87.2611 31.0374C86.5096 31.888 84.033 31.4856 83.0227 31.6633C81.6827 31.8989 80.2851 32.2211 81.0101 30.2141C81.5793 28.6379 83.6123 28.2999 85.0421 28.3411Z" fill="#3D3C3C"/>
<path fill-rule="evenodd" clip-rule="evenodd" d="M83.7596 37.7815C82.5218 36.7889 83.0743 32.2675 84.9582 33.0809C86.8962 33.9182 84.7926 37.129 83.7596 37.7815Z" fill="#3D3C3C"/>
<path fill-rule="evenodd" clip-rule="evenodd" d="M61.626 28.6165C61.626 29.0923 61.6257 29.5683 61.6248 30.0419C61.3666 29.5652 61.3747 29.0907 61.626 28.6165Z" fill="#3D3C3C"/>
<path fill-rule="evenodd" clip-rule="evenodd" d="M63.1449 32.3604C63.3972 32.3532 63.6497 32.3458 63.8989 32.3393C63.6454 32.3474 63.3953 32.3539 63.1449 32.3604Z" fill="#3D3C3C"/>
<path fill-rule="evenodd" clip-rule="evenodd" d="M215.988 162.572C215.872 164.628 213.664 163.108 213.821 161.732C214.105 159.235 215.517 161.703 215.988 162.572Z" fill="#3D3C3C"/>
</svg>
