<svg width="276" height="219" viewBox="0 0 276 219" fill="none" xmlns="http://www.w3.org/2000/svg">
<path fill-rule="evenodd" clip-rule="evenodd" d="M168.953 57.8654C172.294 55.9899 174.244 52.6277 176.175 49.2996C176.465 48.7991 176.755 48.2995 177.049 47.8058C177.246 47.4752 177.461 47.1344 177.68 46.7871V46.7868C178.26 45.869 178.868 44.9048 179.248 43.9607C179.414 43.5478 179.558 42.942 179.702 42.3298C179.874 41.6076 180.047 40.8765 180.261 40.4435C180.731 39.4975 184.293 39.067 186.718 38.7738C187.519 38.677 188.197 38.5952 188.598 38.5145C192.862 37.6589 197.958 37.1457 201.442 40.4837C202.27 41.2771 203.198 42.0088 204.129 42.743C205.245 43.623 206.366 44.5068 207.324 45.5044C208.864 47.1065 210.938 49.8017 211.669 51.9421C207.916 52.6655 201.679 54.8815 200.185 58.8203C194.683 53.7699 192.36 62.1819 191.142 66.5958C191.067 66.8651 190.997 67.1199 190.931 67.3554C187.934 66.0588 188.09 62.1131 188.204 59.2239V59.2236C188.22 58.8188 188.235 58.4349 188.241 58.0818C188.249 57.558 188.328 57.0123 188.406 56.4799C188.666 54.6951 188.904 53.0614 186.354 52.9175C183.881 52.7785 181.479 53.7857 179.248 54.7289C176.464 55.906 173.544 57.6667 171.296 59.6892L168.953 57.8654ZM163.547 49.9976C163.547 50.0936 163.546 50.1892 163.545 50.2849C163.536 51.1358 163.528 51.9839 163.786 52.8042C163.936 53.2784 163.938 53.9717 163.94 54.6375C163.942 55.1201 163.943 55.5884 164.001 55.9484C161.585 55.213 157.095 54.1219 154.628 55.1139C152.27 56.062 151.973 60.4472 151.89 62.5802C151.869 63.1191 151.944 63.7664 152.023 64.4381C152.156 65.5781 152.297 66.7893 151.99 67.665C151.752 68.3401 151.76 68.5397 151.776 68.5883C151.735 68.5645 151.55 68.5574 150.872 69.0467C150.57 69.2643 150.241 69.4377 149.911 69.6116C149.517 69.819 149.121 70.0277 148.765 70.3143C147.819 71.0773 147.496 71.9214 147.109 72.9342C147.009 73.1955 146.905 73.4682 146.784 73.7535C146.214 75.105 144.694 76.306 142.998 76.2571C143.214 75.8658 143.443 75.4789 143.671 75.0929C144.886 73.0404 146.082 71.0185 145.168 68.5753C144.364 66.4265 145.731 63.9122 146.85 61.8531L146.915 61.7324C146.984 61.6061 147.179 61.3254 147.442 60.9487C148.61 59.2716 151.101 55.6946 149.6 55.3906C148.533 55.1743 146.231 59.6294 145.38 61.2768C145.279 61.4724 145.198 61.6287 145.142 61.7324C143.68 60.7441 143.024 59.5257 144.149 58.0372C144.547 57.5107 144.987 57.0194 145.427 56.527C145.944 55.95 146.462 55.3715 146.915 54.7329C147.316 54.1698 147.713 53.5746 148.116 52.9719C149.086 51.5177 150.088 50.0183 151.234 48.8121C154.083 45.8158 159.056 43.7759 163.158 43.7577C163.066 44.9249 163.199 46.0464 163.334 47.183C163.443 48.1008 163.553 49.0281 163.547 49.9976ZM151.786 68.6016C151.787 68.5998 151.785 68.5936 151.776 68.5883C151.78 68.6007 151.784 68.6032 151.786 68.6016ZM175.117 97.8713C175.925 96.1729 176.632 94.6884 177.049 93.9384C179.57 89.4018 182.067 84.9036 184.43 80.2829C182.556 80.9976 180.968 82.0934 179.359 83.2037C179.117 83.3711 178.874 83.5386 178.629 83.7054C177.782 84.2833 176.857 84.8049 175.928 85.3293C174.533 86.1167 173.127 86.9104 171.954 87.9089C171.688 88.1349 171.473 88.3853 171.268 88.6243C170.8 89.1694 170.385 89.6532 169.541 89.6448C168.963 89.6392 168.146 89.0431 167.415 88.5097C166.989 88.1993 166.593 87.9102 166.291 87.7715C165.695 87.4991 165.204 87.1422 164.718 86.7893C164.17 86.3916 163.629 85.9988 162.953 85.7369C162.533 85.5738 162.189 85.5193 161.873 85.4692C161.337 85.3844 160.88 85.3116 160.259 84.747C159.859 87.1109 154.302 85.9975 150.697 85.2751C149.5 85.0352 148.519 84.8386 148.012 84.8266C147.82 84.8222 147.62 84.8164 147.415 84.8102C145.614 84.7579 143.375 84.6929 141.806 85.3667C140.603 85.8827 139.183 87.0484 137.95 88.0597C137.474 88.4506 137.026 88.818 136.629 89.1164C134.673 90.587 133.279 92.4619 131.839 94.4977C129.991 97.1096 132.75 96.8576 134.741 96.6759C134.879 96.6632 135.012 96.6511 135.14 96.6403C139.678 96.2549 144.088 97.0192 148.462 98.0558C152.369 98.9813 155.922 100.403 159.662 101.904C160.355 102.182 161.614 102.836 163.035 103.573C165.93 105.076 169.495 106.927 170.298 106.653C171.062 106.392 173.337 101.612 175.117 97.8713Z" fill="#94B49F"/>
<path fill-rule="evenodd" clip-rule="evenodd" d="M200.471 68.4447C202.046 68.3642 203.614 68.7159 205.189 68.5626C203.821 67.3715 202.454 66.1808 201.087 64.99C200.483 66.0508 200.438 67.2576 200.471 68.4447ZM163.105 43.961C159.028 43.979 154.055 46.0266 151.223 49.017C149.723 50.6018 148.483 52.7302 147.214 54.5106C146.363 55.7054 145.532 56.8585 144.499 57.9081C142.992 59.4385 143.424 59.7882 145.121 60.9403C145.658 59.9337 148.507 54.5515 149.701 54.7936C151.514 55.1619 148.011 60.8468 147.628 61.5551C146.495 63.6506 144.665 66.5776 145.487 68.7877C146.572 71.7047 144.999 73.3676 143.633 75.8534C145.068 75.8949 145.209 75.3356 145.703 74.112C146.338 72.5395 147.031 71.2259 148.374 70.1385C149.414 69.2969 151.114 68.9424 151.603 67.9259C152.207 66.6695 151.828 64.1886 151.877 62.7907C151.951 60.6667 151.957 55.6457 154.297 54.7022C156.749 53.7133 161.158 54.6453 163.555 55.3776C163.256 53.5059 162.312 52.2832 162.325 50.2034C162.339 48.0262 162.938 46.0838 163.105 43.961ZM131.787 78.6959C133.919 78.0208 135.941 77.3095 138.135 76.8495C140.431 76.3679 140.584 75.8169 141.879 73.848C142.86 72.3554 144.05 71.1921 143.772 69.3643C143.594 68.1918 142.952 67.6207 143.145 66.3021C143.265 65.4849 143.646 64.5928 143.921 63.8156C144.259 62.8622 144.96 61.781 143.332 61.7337C142.432 61.7077 142.388 62.1822 141.78 62.9786C140.657 64.4498 139.364 65.7858 138.169 67.1967C136.094 69.6466 133.893 72.2538 131.576 74.5215C129.025 77.0164 126.824 80.026 125.175 83.2204C124.87 83.8104 123.019 87.2849 123.809 87.9662C124.534 88.5921 128.569 87.1326 129.304 86.9621C132.479 86.225 136.083 85.9619 139.083 84.6232C140.611 83.941 143.984 83.1269 145.191 82.0717C146.313 81.0908 146.263 78.7142 145.612 77.3315C143.789 78.4653 130.612 82.7434 131.787 78.6959ZM171.457 59.1964C173.585 57.2745 176.1 55.7327 178.728 54.5902C181.078 53.5684 183.997 52.4293 186.611 52.6067C189.869 52.8274 188.508 55.4513 188.496 57.6855C188.481 60.6506 187.181 64.9216 190.721 66.4596C191.877 62.3546 194.313 52.6469 200.148 58.026C201.639 54.0788 206.958 52.7429 210.704 52.0179C210.025 50.0236 207.963 48.2184 206.533 46.7215C204.746 44.8491 203.334 42.6542 201.543 40.8174C198.004 37.1893 191.594 38.3544 187.114 39.2589C185.619 39.5604 181.284 39.9392 180.56 41.0375C180.105 41.7262 180.359 43.4088 180.022 44.2511C179.558 45.4112 178.766 46.4869 178.13 47.5585C175.809 51.4688 173.448 55.4046 169.477 57.6438L171.457 59.1964ZM184.443 80.2628C182.342 81.0688 180.796 82.4168 178.933 83.5519C176.674 84.9284 174.024 86.2176 171.996 87.9176C171.254 88.5395 170.837 89.6135 169.814 89.6832C168.923 89.7439 167.565 88.7091 166.775 88.3472C165.451 87.739 164.185 86.8175 162.854 86.2755C161.76 85.8301 161.275 85.9211 160.329 85.0547C159.798 88.2154 150.137 85.2612 148.111 85.2129C146.236 85.1683 143.664 85.3905 141.919 86.1439C140.256 86.8618 138.956 88.4423 137.533 89.5188C135.582 90.9953 133.721 92.4885 132.284 94.5321C130.314 97.3343 133.287 96.5413 135.269 96.3719C139.795 95.985 144.197 97.0628 148.56 98.1032C152.459 99.0327 156.31 100.148 160.043 101.655C162.142 102.504 164.352 103.283 166.326 104.385C167.367 104.966 169.055 106.389 170.25 105.979C171.345 105.603 172.437 102.463 173.101 101.209C174.391 98.7742 175.747 96.3809 177.079 93.9703C179.594 89.4167 182.085 84.9012 184.443 80.2628ZM158.59 140.53C159.885 139.786 161.995 139.987 163.427 139.675C165.045 139.323 166.671 138.749 168.214 138.151C169.776 137.546 171.253 136.926 172.68 136.169C173.333 135.822 174.203 135.481 174.806 135C175.293 134.613 175.47 133.893 175.918 133.542C177.088 132.624 177.431 133.2 177.588 131.431C177.758 129.509 176.68 128.42 175.338 126.982C174.136 125.695 172.575 124.582 171.065 123.677C170.397 123.276 169.684 122.826 169.002 122.444C167.971 121.865 166.588 120.902 166.047 122.145C167.174 122.432 167.423 123.872 166.406 124.389C165.847 124.673 165.001 124.256 164.372 124.558C163.399 125.024 162.464 126.325 161.632 127.025C158.9 129.325 156.287 130.188 152.711 130.373C145.239 130.758 137.414 129.906 130.086 128.798C128.2 128.513 126.317 128.822 124.414 128.754C122.561 128.687 120.63 128.283 118.809 127.97C115.302 127.367 111.606 126.871 108.153 125.985C103.978 124.913 99.7882 123.526 95.8679 121.73C92.1077 120.007 87.8574 117.16 83.6338 116.941C85.4362 118.706 88.1369 119.385 90.3049 120.548C92.0767 121.497 94.8477 122.107 95.9673 123.672C96.6959 124.69 97.0615 126.561 97.6121 127.755C98.2207 129.076 98.7825 130.419 99.3462 131.76C99.9123 133.11 100.502 134.46 100.962 135.85C101.246 136.712 101.369 138.5 102.041 139.09C103.114 140.031 106.703 140.448 108.149 140.761C110.847 141.346 113.925 141.268 116.678 141.309C117.815 141.326 118.962 141.481 120.049 141.502C121.575 141.531 121.429 141.267 121.408 139.942C121.395 139.146 121.411 137.699 122.475 138.354C123.201 138.801 122.702 140.779 122.567 141.482C128.643 142.087 134.982 142.391 141.029 142.188C146.975 141.989 152.716 141.222 158.59 140.53ZM186.027 126.584C187.1 118.885 188.406 111.059 189.868 103.46C191.346 95.782 193.122 88.1733 195.121 80.5237C193.801 80.2077 192.481 79.8926 191.161 79.5771C191.112 81.1889 190.567 82.5889 190.334 84.1933C190.014 86.4077 189.4 88.558 189.034 90.7653C188.336 94.9608 187.044 99.0661 185.906 103.158C184.746 107.329 184.358 111.626 183.292 115.818C182.414 119.271 181.965 123.076 181.474 126.626C180.284 135.239 178.589 143.87 177.298 152.487C176.088 160.567 175.966 168.81 176.036 176.965C176.079 181.944 176.838 186.909 176.799 191.894C176.789 193.127 176.893 194.355 176.957 195.586C177.002 196.454 176.535 198.86 176.931 199.588C177.181 200.048 178.257 200.473 178.638 201.112C179.24 202.123 179.367 203.332 180.334 204.098C181.118 200.935 180.748 196.762 180.576 193.534C180.41 190.424 180.732 187.21 180.796 184.053C180.92 177.859 181.248 171.756 181.565 165.559C181.914 158.764 182.903 151.802 183.87 145.058C184.75 138.925 185.336 132.683 186.027 126.584ZM157.333 30.0425C156.908 30.0028 156.483 29.9635 156.058 29.9239C156.122 30.8197 155.932 32.2705 156.564 32.7376C157.042 33.0917 158.011 32.9756 158.591 33.0886C160.492 33.4604 162.696 33.7711 164.583 33.0942C165.317 32.8311 164.845 32.4191 165.855 32.5902C167.072 32.797 166.627 32.9895 166.979 33.7482C167.249 34.3339 167.389 35.3306 167.696 36.0335C168.107 36.9745 168.94 38.6584 168.584 39.7449C168.238 40.801 166.946 41.1201 166.397 42.3162C165.989 43.2055 166.085 44.4981 165.873 45.4775C165.59 46.7837 165.232 48.085 165.074 49.4154C164.875 51.0915 164.944 53.058 167.02 53.318C168.948 53.5597 170.326 52.9404 171.618 51.5366C174.087 48.857 176.905 45.0744 178.355 41.7036C178.524 41.3099 178.941 40.6527 178.883 40.2311C178.768 39.3972 178.718 40.2414 178.454 39.6622C178.202 39.1085 177.806 38.6061 177.573 37.9916C176.736 35.7843 176.142 33.4706 175.806 31.1339C175.654 30.0753 175.603 29.0297 175.629 27.9608C175.638 27.5959 175.857 26.4998 175.726 26.25C175.593 25.9968 174.899 25.8801 174.682 25.6288C174.281 25.1629 173.591 23.8477 173.147 23.4989C172.6 23.0705 171.376 23.4097 171.154 22.5576C170.799 21.1938 179.209 18.9722 175.28 17.1523C172.346 15.7934 167.847 22.6625 166.821 17.2573C166.643 16.3211 166.982 15.0502 166.571 14.1921C166.117 13.2438 164.882 12.8893 164.019 12.4278C162.917 11.8395 161.805 11.2348 160.735 10.5904C160 10.1487 158.943 8.97585 158.161 8.86844C158.469 10.4604 157.879 12.0383 157.869 13.6271C159.562 13.1691 160.727 13.1594 162.397 13.9738C163.193 14.3614 166.19 16.5612 164.672 17.6192C163.441 16.892 162.125 16.2611 160.754 15.8335C160.213 15.6646 159.537 15.435 158.962 15.4234C157.626 15.3965 157.814 15.5362 157.313 16.5433C156.829 17.5134 156.933 20.0435 155.872 20.663C154.775 21.3036 155.621 20.4069 154.684 20.614C154.149 20.7323 153.567 21.1297 153.078 21.3541C153.748 22.0818 155.101 22.7461 155.546 23.5543C156.195 24.7327 155.97 27.1697 156.071 28.4589C156.92 28.1549 157.814 28.1425 158.675 27.9169C159.483 27.7042 160.605 26.7849 160.69 28.1366C160.784 29.6428 158.403 30.0425 157.333 30.0425ZM168.384 69.702C168.45 68.4004 168.522 67.0991 168.667 65.8028C168.765 64.9324 169.592 62.4078 169.124 61.6433C168.617 60.8116 166.914 60.7586 166.094 60.559C164.524 60.1761 163.017 59.8625 161.42 59.6096C159.952 59.3772 158.569 59.3283 157.089 59.2608C155.478 59.188 155.078 58.7606 154.722 60.5361C154.442 61.9324 154.067 63.3866 154.015 64.816C153.965 66.1579 154.371 67.3226 153.041 68.2268C155.961 68.2268 159.764 65.627 162.428 67.9516C166.24 71.276 159.607 72.2337 157.858 72.9676C159.312 73.6743 161.47 74.2293 162.155 75.8432C162.923 77.6525 161.808 78.4217 160.103 78.5665C160.263 79.2636 160.877 79.7168 161.06 80.5553C161.328 81.7844 160.459 81.3774 161.568 82.3286C163.028 83.5804 166.033 84.4174 167.823 85.2147C168.242 85.4023 168.667 85.5781 169.096 85.7428C169.766 86.3396 170.261 86.226 170.581 85.4014C171.5 84.8201 172.317 83.5231 173.132 82.7688C174.944 81.0899 176.945 79.6168 179.099 78.4046C178.206 78.0347 177.138 78.8705 176.281 78.4638C175.589 78.135 175.85 77.5367 175.435 77.0888C175.601 76.5047 175.426 76.2911 174.908 76.4481C174.65 76.4756 174.409 76.4317 174.187 76.3168C173.753 75.7798 173.559 75.604 173.53 74.7747C173.499 73.895 174.009 73.5842 174.205 72.88C174.84 72.447 174.826 72.0214 174.161 71.6041C173.888 71.1575 173.739 70.6731 173.714 70.1502C173.588 68.2098 175.359 67.4276 176.71 66.4011C174.291 66.1353 174.384 63.2984 176.057 62.0584C177.792 60.7725 181.464 61.2991 183.562 61.5891C183.998 61.6488 185.177 62.2116 185.618 61.8528C185.888 61.6331 185.697 59.774 185.71 59.4462C185.738 58.7014 185.919 57.8134 185.8 57.0724C185.552 55.521 186.078 56.3022 184.962 56.2592C182.304 56.1561 178.919 58.4764 176.58 59.5703C173.963 60.7948 172.281 60.983 172.254 64.0193C172.227 66.8939 171.421 69.7584 171.069 72.5875C170.915 73.8229 170.806 80.2417 168.544 77.8729C167.668 76.9542 168.229 75.5414 168.294 74.4082C168.383 72.8488 168.331 71.2655 168.384 69.702ZM22.1616 165.935C23.4557 166.165 25.563 165.422 26.9748 165.344C29.4431 165.208 31.985 164.973 34.4034 164.459C36.2953 164.057 38.4512 163.703 39.4714 161.872C40.3836 160.236 40.7058 158.186 41.1971 156.4C41.458 155.451 42.1313 154.077 42.131 153.095C42.1306 151.82 41.9588 152.071 40.6288 151.373C38.9452 150.49 37.3071 149.259 35.4911 148.758C34.9417 148.65 34.3919 148.545 33.8419 148.442C33.1303 148.029 32.7288 148.233 32.6356 149.051C31.941 149.783 31.534 151.133 30.9511 151.989C29.6226 153.942 28.0449 155.273 25.9837 156.399C22.2745 158.425 18.8186 159.988 14.846 161.313C12.6566 162.043 10.6379 163.067 8.49791 163.872C6.78351 164.517 4.41745 164.712 3.10053 166.148C1.61464 167.767 3.89855 168.356 5.16798 169.45C6.20815 170.347 6.22839 170.553 7.6512 170.118C8.71121 169.793 9.65096 169.173 10.6688 168.752C14.1557 167.312 18.3759 166.354 22.1616 165.935ZM101.849 191.617C100.55 191.336 99.2502 191.055 97.9508 190.774C99.2285 193.16 101.917 196.651 99.9875 199.412C99.2663 200.444 98.0672 200.738 96.9959 201.262C95.6992 201.895 94.5019 202.706 93.2762 203.461C88.2215 206.574 83.0844 209.73 77.7582 212.4C79.4257 212.939 81.9893 213.311 83.7066 212.842C85.7062 212.296 87.5578 211.042 89.6106 210.494C93.2938 209.511 97.1704 208.674 100.912 208.169C103.971 207.757 111.627 208.689 111.255 204.089C110.902 199.722 108.294 195.555 107.517 191.238C105.612 191.661 103.795 191.587 101.849 191.617ZM179.307 121.718C180.788 114.448 181.673 107.055 183.42 99.8375C184.292 96.237 184.906 92.5869 185.758 88.9855C186.154 87.3097 186.453 85.6177 186.839 83.9453C187.23 82.2522 188.071 80.6896 188.263 78.9392C186.848 79.2893 186.52 82.5314 186.091 83.7509C185.304 85.9883 184.446 88.1383 183.434 90.2803C181.827 93.6852 180.121 96.9703 178.307 100.271C176.395 103.753 174.375 107.102 171.986 110.281C171.201 111.326 170.136 112.145 169.63 113.291C168.834 115.094 168.5 117.242 167.74 119.118C168.275 119.39 169.658 119.458 170.314 119.587C171.535 119.828 172.39 120.042 173.563 120.623C175.628 121.646 177.363 122.858 178.744 124.698C179.09 123.753 179.181 122.717 179.307 121.718ZM121.735 177.184C121.71 170.183 121.611 163.122 121.726 156.172C121.757 154.243 121.914 152.161 122.194 150.246C122.37 149.042 123.404 146.484 122.724 145.907C122.143 145.413 119.077 145.738 118.325 145.721C116.866 145.687 115.411 145.622 113.949 145.512C113.949 148.107 114.962 151.053 115.433 153.62C115.872 156.014 116.233 158.422 116.596 160.827C117.38 166.036 117.603 171.316 118.455 176.539C119.226 181.274 120.244 185.989 120.806 190.724C121.114 193.323 121.737 195.775 122.221 198.372C122.474 199.727 123.396 205.306 124.558 205.854C124.804 203.853 123.8 201.436 123.621 199.413C123.435 197.324 123.292 195.22 122.953 193.12C122.555 190.655 122.354 188.128 122.202 185.632C122.108 184.105 122.08 182.582 121.948 181.056C121.853 179.948 121.434 178.27 121.735 177.184ZM158.221 83.5618C158.269 82.7994 156.296 82.8301 155.929 81.9538C155.183 80.1742 156.882 80.4946 157.927 80.3104C157.555 79.3209 150.579 79.6812 152.204 77.0099C153.332 75.1564 157.607 77.9933 158.749 76.232C159.5 75.0753 157.457 74.9159 156.646 74.8001C155.426 74.6252 152.553 75.1898 152.648 73.6075C152.767 71.619 158.353 70.2465 159.92 69.6624C159.746 68.3008 153.023 70.2363 152.05 70.7882C149.848 72.0375 148.161 74.2788 147.838 76.7703C147.461 79.6688 148.931 81.9516 151.826 82.6629C153.034 82.9594 153.926 82.9923 155.042 83.4383C155.778 83.7314 158.156 84.4626 158.66 83.7228C158.513 83.6692 158.368 83.6154 158.221 83.5618ZM197.687 65.5329C197.798 64.2951 198.841 61.9649 197.64 61.1517C195.96 60.0136 195.264 61.889 194.883 63.0154C194.418 64.391 192.461 67.7585 194.172 68.6156C194.57 68.8149 196.456 68.5828 196.789 68.4515C197.716 68.6929 198.015 68.346 197.687 67.4093V65.5329ZM156.686 165.493C156.581 162.11 158.096 158.043 158.954 154.729C159.927 150.975 160.44 147.146 161.471 143.433C160.324 143.571 159.167 143.684 158.034 143.914C156.488 144.228 156.46 144.179 156.571 145.695C156.737 147.972 156.52 150.205 156.402 152.481C156.166 157.039 156.74 161.672 156.359 166.201C156.699 166.288 156.808 166.052 156.686 165.493ZM199.488 76.8294C203.202 77.3977 206.762 78.5755 210.141 80.1575C212.004 81.0295 214.056 81.9668 216.138 82.315C218.451 82.7022 220.904 82.5205 223.266 82.6697C224.099 82.7223 226.288 83.1269 227.1 82.6372C227.904 82.1519 227.841 81.3297 227.879 80.3494C227.977 77.8283 226.835 75.3597 225.809 73.0976C224.929 71.1569 224.263 69.6751 222.897 68.0058C221.143 65.8616 219.616 63.5478 217.973 61.3099C216.734 59.6232 215.483 57.9604 214.22 56.2756C213.317 55.069 213.36 54.654 211.999 54.7889C210.658 54.922 209.309 55.7144 208.046 56.1342C206.172 56.7576 203.903 57.0996 202.194 58.0963C201.089 58.7408 201.04 58.8593 201.053 59.9839C201.065 61.0313 201.403 62.3091 202.029 63.1284C203.331 64.8296 205.489 65.7301 207.34 66.5788C208.412 67.0694 209.338 67.7656 210.291 68.4428C211.319 69.1727 213.392 69.6027 214.178 70.4347C216.467 72.8578 212.3 72.3789 211.136 72.3058C208.623 72.1477 206.124 72.1718 203.593 72.17C200.831 72.1681 198.09 72.0396 195.366 72.1294C193.771 72.182 191.941 71.3729 190.907 70.0243C190.407 69.3708 190.212 68.7533 189.557 68.0754C188.7 67.188 187.954 66.2529 186.911 65.566C185.204 64.4421 182.102 63.8063 180.07 64.2257C180.797 64.3273 184.22 65.4924 182.713 66.9568C182.53 67.1351 180.328 67.2518 179.85 67.4715C178.986 67.868 177.898 68.4444 177.392 69.2817C178.866 69.0347 184.335 68.7487 181.545 71.5781C180.861 72.2727 178.894 72.9658 180.567 73.7043C180.952 73.874 181.721 73.6338 182.215 73.7867C182.951 74.0145 183.552 74.6233 184.241 74.9481C186.195 75.8698 188.889 76.4382 190.928 76.2363C193.748 75.9565 196.687 76.4601 199.488 76.8294ZM124.704 162.083C124.8 166.148 124.653 170.236 124.74 174.32C124.833 178.68 125.392 182.953 125.659 187.27C125.898 191.139 126.421 194.934 126.845 198.784C127.089 201.002 127.371 203.123 127.746 205.324C128.097 207.384 128.157 209.198 125.695 209.752C120.988 210.811 120.256 204.039 119.346 201.185C117.988 196.927 117.117 192.456 116.444 188.041C115.192 179.819 113.526 171.712 112.876 163.42C112.475 158.314 111.895 153.261 111.566 148.16C111.501 147.16 111.756 145.62 110.878 145.175C110.35 144.907 108.896 144.905 108.23 144.711C106.373 144.171 104.66 143.376 102.848 142.55C104.134 149.274 104.559 155.964 105.523 162.746C106.035 166.345 107.014 170.074 107.863 173.616C108.742 177.286 108.938 181.238 109.952 184.829C110.399 186.411 110.777 187.056 110.129 188.68C109.333 190.674 109.861 191.151 110.859 193.109C112.694 196.712 114.095 200.963 113.784 205.025C113.53 208.342 111.024 210.078 107.919 210.973C104.036 212.092 99.9696 211.96 96.0626 213.231C92.659 214.338 89.2005 215.156 85.895 216.618C84.5621 217.207 83.2958 217.906 81.8159 218.014C79.786 218.162 78.4172 216.984 76.5003 216.738C75.302 216.585 73.5476 217.157 72.8573 215.901C72.3101 214.905 72.9291 212.732 73.6163 211.93C75.546 209.678 79.4105 207.715 82.0128 206.386C85.0122 204.854 87.9144 202.936 90.6934 200.959C92.3779 199.76 94.0955 198.61 95.7788 197.409C96.8922 196.614 97.3153 196.609 97.2017 195.346C97.111 194.339 96.6572 193.362 96.5777 192.331C96.517 191.541 96.7937 190.464 96.4204 189.949C96.1459 189.569 95.1151 189.3 94.7099 189.013C93.2279 187.962 92.8911 186.662 92.2182 185.064C90.6894 181.434 88.9331 177.906 87.4569 174.247C84.2873 166.391 82.3533 158.131 79.7256 150.114C77.0413 141.924 74.6409 133.326 73.1625 124.829C71.1843 125.431 69.3172 128.095 67.7416 129.413C65.6133 131.194 63.4323 132.917 61.3451 134.747C57.9238 137.747 54.4594 140.665 51.6321 144.258C50.2699 145.988 49.1546 147.851 47.9214 149.669C47.2092 150.719 46.5449 151.908 45.7736 152.907C45.6498 153.067 45.646 153.397 45.5126 153.533C45.2189 153.833 44.6577 153.434 44.4695 153.631C43.3069 154.847 43.322 158.299 42.9599 159.903C42.4606 162.113 41.9 164.655 40.1741 166.178C37.5077 168.532 32.5907 168.896 29.2165 169.018C24.8861 169.175 20.6854 170.382 16.5769 171.678C14.6606 172.282 12.7944 172.989 10.8709 173.576C9.76462 173.914 8.50258 174.588 7.32112 174.458C5.89632 174.302 4.77131 173.103 3.72765 172.212C2.05802 170.787 0.512196 169.382 0.567479 167.043C0.62626 164.567 1.96732 162.699 4.07994 161.469C8.16429 159.092 12.7325 157.568 17.135 155.925C18.822 155.295 20.2663 154.598 21.8793 153.75C24.1587 152.551 26.7823 151.573 28.8048 149.991C29.401 149.524 31.5925 148.094 31.7791 147.356C31.8036 147.26 31.256 146.133 31.2536 145.955C31.2483 145.495 31.5204 144.997 31.6878 144.604C32.7412 142.128 34.508 139.743 35.8588 137.408C38.3326 133.13 40.816 128.83 43.6842 124.807C49.4035 116.787 55.8282 108.934 62.7624 101.933C66.1429 98.5198 69.064 94.6484 72.4921 91.2826C73.8503 89.9494 75.2841 88.8635 76.9574 87.9981C78.823 87.0336 80.917 86.8444 83.0553 86.5498C88.2369 85.8366 92.5642 87.3694 97.4289 88.7032C102.028 89.9639 106.632 91.0275 111.257 92.3409C116.336 93.783 121.363 95.1663 126.425 96.7381C129.131 97.5779 131.913 98.0933 134.631 98.8993C135.94 99.2868 140.888 101.717 141.979 100.918C138.542 99.3054 135.02 97.8354 131.343 96.8619C130.26 96.5753 129.568 96.8926 129.608 95.6489C129.63 94.9707 130.393 94.0551 130.667 93.4967C131.324 92.1598 132.068 90.8535 132.711 89.5129C130.38 90.175 124.113 92.4662 122.356 90.0977C120.518 87.6183 122.052 82.7576 123.205 80.3303C126.213 73.9937 131.329 68.7059 136.313 63.9292C137.392 62.8966 139.716 61.5479 140.291 60.2324C140.466 59.8325 140.085 59.245 140.479 58.7253C140.714 58.4164 141.656 58.2053 142.032 57.8722C143.403 56.6588 144.496 54.1058 145.443 52.5148C146.435 50.8491 147.329 49.0452 148.575 47.5504C150.614 45.1063 152.719 42.5155 156.02 41.9438C157.639 41.6637 159.359 41.8132 160.911 41.2538C162.788 40.5775 164.571 39.5121 166.466 38.8116C165.996 37.8449 165.615 36.3081 164.702 36.2025C163.824 36.1007 162.536 36.8556 161.531 36.8501C160.063 36.842 158.81 36.6071 157.393 36.3276C155.825 36.0174 155.309 36.0738 154.737 34.3729C154.138 32.5912 154.289 30.5216 154.294 28.6709C154.296 27.7664 154.476 26.6441 154.399 25.7563C154.283 24.4188 154.023 24.3674 152.975 23.5168C151.665 22.4542 150.05 21.048 151.655 19.2014C152.522 18.2037 154.303 18.9796 155.071 17.9076C155.853 16.8157 155.816 14.0727 156.054 12.7901C153.643 13.9754 154.527 9.54438 154.526 8.47815C154.526 6.92669 153.486 4.13663 154.983 2.84587C155.679 2.24661 156.195 2.74236 156.99 2.398C157.898 2.00495 158.469 0.974167 159.435 0.574526C161.354 -0.220083 163.313 0.736784 165.283 0.578797C167.543 0.397842 169.762 0.0484079 172.035 0.411091C173.111 0.582295 173.564 0.991284 174.475 1.44968C175.351 1.89055 176.24 2.01121 177.191 2.29486C178.038 2.54741 178.78 2.67503 179.352 3.41284C179.805 3.99654 179.621 4.97832 180.077 5.48147C180.527 5.97722 181.419 5.90523 181.955 6.49396C182.471 7.05899 182.779 7.99292 183.047 8.69606C183.409 9.64321 183.451 9.99887 184.089 10.7569C184.644 11.4184 185.444 11.9504 185.908 12.7049C187 14.4836 187.028 17.0558 186.68 19.0567C186.561 19.738 185.574 21.4993 185.728 22.079C185.875 22.6309 186.801 22.4858 187.221 22.8346C187.583 23.1364 187.902 24.4801 188.188 24.5621C188.805 24.7392 189.566 23.5199 190.034 23.337C190.847 23.0191 191.187 22.6931 191.638 23.8914C191.971 24.7803 191.506 25.9872 191.262 26.8357C190.95 27.9159 190.606 29.2169 189.781 30.0338C188.811 30.994 188.034 30.469 186.964 30.9862C185.359 31.7613 185.833 34.185 183.859 34.8774C181.978 35.5376 179.905 33.461 178.482 32.5067C178.777 34.8239 179.886 37.0565 179.354 39.4316C183.68 37.7366 187.959 35.3309 192.674 34.801C195.078 34.5304 197.507 34.21 199.777 35.2083C202.433 36.3765 204.061 38.9534 205.859 41.0944C209.238 45.1184 212.706 49.0294 215.949 53.183C218.924 56.9931 221.432 61.4077 224.707 64.9751C228.027 68.593 230.533 74.4627 230.169 79.4722C230.136 79.9245 229.786 80.9518 229.841 81.4393C229.884 81.8129 230.223 82.2865 230.218 82.5877C230.199 83.6014 229.864 84.1852 228.898 84.7473C227.223 85.723 224.727 86.2167 222.834 86.4587C220.319 86.7807 217.238 86.8153 214.722 86.4718C212.127 86.1167 209.845 84.6641 207.459 83.7862C205.365 83.0158 203.263 82.5348 201.063 82.0432C199.85 81.7721 198.506 81.0214 197.756 81.7479C197.068 82.4156 196.925 85.8415 196.764 86.7525C195.024 96.6264 192.956 106.166 191.124 115.989C189.048 127.124 187.628 138.254 186.184 149.483C184.872 159.691 184.443 170.013 184.149 180.211C184.009 185.076 183.989 189.888 184.019 194.757C184.035 197.483 185.398 206.584 181.357 206.932C178.982 207.137 177.082 203.732 176.445 201.875C175.489 199.085 174.991 196.081 174.839 193.15C174.53 187.216 174.126 181.279 173.886 175.343C173.627 168.912 173.957 162.362 174.486 155.953C175.018 149.5 176.358 143.142 176.769 136.68C175.536 138.44 175.141 138.771 173.087 139.537C170.937 140.34 168.868 141.29 166.699 142.038C165.961 142.293 164.809 142.452 164.204 142.869C163.087 143.638 163.821 142.765 163.464 144.262C163.084 145.861 163.012 147.78 162.911 149.423C162.435 157.134 160.299 164.79 159.314 172.459C159.076 174.311 159.416 182.172 156.229 179.695C153.774 177.787 153.823 171.794 153.474 168.987C153.009 165.245 153.268 161.398 153.341 157.633C153.425 153.346 153.497 148.849 154.52 144.663C152.69 144.349 150.144 145.203 148.301 145.346C146.706 145.471 145.116 145.549 143.53 145.637C139.747 145.844 135.85 146.01 132.003 145.936C131.303 145.922 126.728 145.282 126.143 145.798C125.953 145.966 125.895 148.272 125.86 148.554C125.725 149.614 125.542 150.673 125.406 151.727C124.972 155.097 124.58 158.715 124.704 162.083Z" fill="#3D3C3C"/>
<path fill-rule="evenodd" clip-rule="evenodd" d="M192.647 194.105C195.535 195.233 198.599 195.643 201.51 196.67C204.113 197.59 206.531 198.825 209.094 199.759C209.244 198.57 209.323 196.557 208.884 195.436C208.263 193.849 206.627 193.81 205.016 193.245C201.095 191.87 196.971 191.58 193.079 189.973C193.746 191.255 193.448 192.954 192.647 194.105ZM242.486 189.955C236.251 190.138 230.292 191.589 224.146 192.487C221.156 192.923 218.163 193.313 215.17 193.72C214.018 193.877 211.919 193.692 211.081 194.689C210.387 195.516 211.148 198.335 210.839 199.545C212.1 199.639 214.338 198.461 215.705 198.266C217.836 197.963 219.938 197.539 222.09 197.404C225.498 197.189 228.847 197.007 232.25 196.627C235.71 196.241 239.059 195.525 242.547 195.263C244.242 195.135 244.924 195.453 245.024 193.663C245.063 192.963 245.159 191.792 244.963 191.102C245.277 190.253 244.998 189.842 244.128 189.866C243.576 189.803 243.028 189.833 242.486 189.955ZM230.426 184.243C232.112 184.085 233.805 183.858 235.496 183.763C235.839 183.743 237.578 183.848 237.861 183.529C238.263 183.079 237.816 181.43 237.742 180.919C237.491 179.184 237.214 178.175 235.322 178.172C233.724 178.168 232.071 178.506 230.48 178.661C223.257 179.369 216.071 179.668 208.928 181.012C209.363 182.864 209.857 184.774 209.337 186.668C212.763 186.844 216.525 186.185 219.874 185.509C223.296 184.817 226.928 184.474 230.426 184.243ZM218.995 166.81C216.414 166.822 213.687 167.959 211.141 167.705C211.103 168.179 211.918 167.786 212.143 168.229C212.623 168.23 212.791 168.387 212.644 168.701C212.653 168.914 212.544 169.039 212.316 169.076C212.204 169.086 212.091 169.095 211.98 169.105C211.487 169.121 211.406 169.453 211.738 170.102C211.595 170.906 211.809 171.927 211.84 172.734C216.416 172.112 220.861 171.464 225.47 171.186C227.645 171.055 229.819 171.055 231.992 170.877C234.382 170.679 236.992 171.102 239.329 170.654C240.579 170.415 240.448 170.431 240.357 168.807C240.301 167.82 240.322 166.648 239.518 165.928C238.176 164.725 235.119 165.42 233.515 165.462C228.68 165.59 223.764 166.039 218.995 166.81ZM221.636 190.014C228.549 189.386 235.41 188.011 242.362 188.011C241.87 187.52 240.799 187.393 240.188 187.125C239.49 186.82 238.832 186.169 238.15 185.902C236.782 185.367 235.39 186.111 233.985 186.433C230.596 187.209 227.119 187.235 223.724 187.996C220.215 188.783 216.66 189.508 213.086 189.908C211.384 190.099 209.558 190.485 207.876 190.035C207.74 189.938 207.603 189.84 207.466 189.743C207.319 189.117 206.911 188.95 206.242 189.241C205.392 189.079 204.31 189.288 203.455 189.31C203.42 189.651 206.581 190.723 207.184 190.989C208.636 191.628 209.621 192.096 211.172 191.823C214.664 191.206 218.099 190.469 221.636 190.014ZM197.319 169.803C197.589 170.856 198.723 170.377 199.7 170.493C201.011 170.648 202.315 171.101 203.585 171.441C205.89 172.061 208.197 172.672 210.493 173.327C210.402 172.4 210.607 170.289 210.117 169.466C209.603 168.604 207.165 168.226 206.03 167.963C203.169 167.301 200.112 167.678 197.205 167.817C197.257 168.478 197.295 169.14 197.319 169.803ZM224.805 176.392C227.519 176.162 230.237 175.983 232.96 175.887C236.073 175.778 233.81 175.281 233.745 173.382C229.653 174.035 225.526 174.164 221.447 174.721C218.068 175.184 214.043 176.392 210.597 175.743C208.971 175.437 207.311 175.319 205.582 175.146C203.95 174.983 202.411 174.223 200.799 174.034C198.99 173.822 197.142 174.839 195.342 175.108C194.58 175.222 194.402 175.739 194.042 174.821C193.669 173.869 194.738 173.09 195.16 172.521C195.651 171.856 195.447 172.936 195.721 171.897C195.797 171.606 195.59 170.874 195.552 170.561C195.455 169.768 195.206 168.908 195.167 168.117C195.131 167.39 195.125 166.281 195.914 165.857C196.395 165.598 196.737 165.975 197.156 165.902C200.433 165.332 204.287 165.285 207.609 165.835C211.212 166.431 214.312 164.854 217.862 164.214C222.027 163.463 226.236 163.351 230.437 163.034C234.029 162.763 240.592 161.357 241.96 165.945C242.348 167.245 242.912 170.824 241.87 171.93C240.502 173.382 237.334 172.919 235.565 173.296C235.83 174.049 236.618 174.561 236.345 175.457C238.824 175.574 239.262 177.916 239.651 180.102C240.053 182.363 239.269 183.262 241.43 184.44C244.443 186.082 247.634 187.739 247.575 191.648C247.545 193.614 247.325 196.578 245.308 197.598C243.333 198.595 240.118 198.426 237.943 198.789C233.729 199.49 229.501 200.313 225.262 200.735C220.748 201.183 216.159 201.552 211.638 201.752C209.175 201.862 207.047 202.234 204.668 201.405C202.329 200.59 200.04 199.995 197.627 199.389C195.244 198.793 187.951 197.989 190.076 193.914C190.416 193.262 191.579 192.744 191.766 192.127C192.069 191.133 191.046 190.357 191.089 189.458C191.167 187.814 193.022 187.608 194.303 187.608C192.107 186.235 195.047 184.609 195.03 183.443C194.999 181.39 192.445 180.056 192.3 178.335C191.949 174.145 205.24 178.508 207.286 179.414C205.711 181.749 198.406 179.728 196.23 179.374C196.527 180.154 196.811 180.855 196.897 181.653C196.966 182.303 196.718 183.047 196.945 183.702C197.304 184.737 197.292 184.539 198.563 184.821C199.504 185.029 200.434 185.271 201.371 185.492C202.811 185.831 205.076 186.743 206.502 186.693C207.754 186.65 207.506 187.038 207.736 185.648C207.859 184.901 207.649 184.107 207.523 183.375C207.26 181.842 206.876 180.39 208.215 179.29C209.492 178.241 212.183 177.741 213.75 177.372C217.226 176.55 221.238 176.349 224.805 176.392Z" fill="#3D3C3C"/>
<path fill-rule="evenodd" clip-rule="evenodd" d="M241.346 150.218C237.571 149.585 233.735 149.43 229.916 149.621C230.122 150.567 230.329 151.512 230.537 152.456C234.115 151.535 237.746 150.995 241.346 150.218ZM210.648 157.55C209.134 157.44 210.187 158.117 210.561 159.108C211.02 160.325 210.922 161.864 211.027 163.146C215.457 161.457 220.611 160.468 225.321 159.899C227.555 159.63 229.821 159.553 232.067 159.438C232.731 159.404 235.128 159.682 235.614 159.235C235.975 158.903 235.722 157.07 235.375 156.666C233.49 154.468 226.203 156.366 223.567 156.563C219.244 156.886 215 157.658 210.648 157.55ZM216.939 151.662C220.862 152.039 224.649 152.003 228.572 152.59C228.274 150.097 228.63 149.461 225.801 149.328C223.281 149.211 220.768 149.115 218.259 149.117C212.617 149.12 206.989 149.012 201.341 149.012V151.546C206.564 151.011 211.705 151.977 216.939 151.662ZM198.078 160.98C200.553 160.969 202.893 161.903 205.368 162.145C206.85 162.29 206.385 162.474 207.413 163.218C209.014 164.377 209.475 163.759 209.274 162.185C208.594 156.858 201.849 158.052 197.963 157.756C198.218 159.027 197.631 160.104 196.766 160.98H198.078ZM224.835 154.141C221.274 154.198 217.709 154.401 214.173 154.327C212.591 154.293 210.54 153.98 208.989 154.25C207.853 154.447 206.903 155.026 205.657 155.241C207.487 156.227 208.415 155.561 210.34 155.337C212.263 155.113 214.214 155.117 216.145 155C219.315 154.808 222.695 154.049 225.819 154.255C225.876 153.815 225.548 153.777 224.835 154.141ZM196.594 165.678C194.96 165.674 197.208 163.816 197.503 163.632C195.694 163.632 195.256 162.547 195.78 160.804C196.274 159.163 196.639 159.665 195.397 158.298C194.462 157.269 194.32 156.511 195.423 155.36C196.544 154.189 198.816 154.52 199.81 153.554C201.503 151.909 199.319 148.633 201.664 147.373C203.249 146.522 205.804 146.627 207.553 146.447C209.245 146.273 210.995 146.24 212.698 146.217C216.41 146.166 220.265 146.788 223.96 147.131C225.307 147.256 226.821 147.8 228.149 147.801C229.502 147.803 230.92 147.501 232.318 147.536C233.942 147.577 235.507 147.457 237.183 147.723C238.466 147.928 241.464 148.035 242.445 148.99C245.714 152.17 237.961 153.63 236.627 153.987C237.985 155.475 237.928 157.441 237.724 159.313C238.37 159.313 239.484 159.032 239.819 159.757C240.234 160.657 238.696 160.891 238.333 160.996C236.241 161.6 233.793 161.434 231.637 161.654C227.328 162.092 223.07 162.345 218.805 163.162C216.727 163.559 214.66 164.052 212.583 164.439C212.225 164.506 211.864 164.56 211.502 164.6C210.946 164.553 210.767 164.902 210.963 165.649C210.386 165.93 208.237 165.228 207.572 165.121C203.767 164.504 200.363 164.76 196.594 165.678Z" fill="#3D3C3C"/>
<path fill-rule="evenodd" clip-rule="evenodd" d="M273.426 202.625C270.972 204.557 268.691 206.379 266.033 208.057C267.912 207.999 274.16 205.002 273.426 202.625ZM272.468 199.478C271.128 198.327 269.798 198.444 268.14 198.096C266.613 197.774 265.13 197.221 263.606 196.853C262.41 196.564 261.227 196.173 260.036 195.9C258.353 195.515 258.187 195.939 256.64 196.821C251.153 199.948 245.013 202.099 239.234 204.637C240.93 206.131 244.748 206.195 246.868 206.672C248.417 207.019 249.89 207.494 251.373 208.044C252.754 208.557 254.979 209.736 256.436 209.776C257.665 209.809 258.664 208.599 259.723 207.947C261.115 207.09 262.501 206.247 263.904 205.411C266.874 203.642 269.65 201.474 272.468 199.478ZM247.671 212.144C247.037 211.535 245.131 211.561 244.337 211.375C242.772 211.01 241.231 210.63 239.645 210.355C237.073 209.91 233.009 209.711 232.729 206.373C232.497 203.6 235.848 202.942 237.808 202.002C240.756 200.588 243.763 199.284 246.786 198.037C249.62 196.869 252.495 195.881 255.381 194.871C255.943 194.674 256.4 194.701 256.859 194.251C257.222 193.895 257.11 193.205 257.507 192.834C258.417 191.983 259.597 192.431 260.69 192.649C263.172 193.144 265.749 193.794 268.116 194.712C270.575 195.667 272.775 195.866 273.365 198.654C274.623 198.064 275.568 197.978 275.418 199.712C275.374 200.221 275.004 200.775 274.915 201.301C274.785 202.075 275.013 202.891 274.884 203.668C274.414 206.491 270.607 208.582 268.248 209.691C265.339 211.058 261.586 213.077 258.338 213.344C254.878 213.629 251.106 212.27 247.671 212.144Z" fill="#3D3C3C"/>
<path fill-rule="evenodd" clip-rule="evenodd" d="M203.622 165.305C202.59 165.312 201.558 165.318 200.526 165.325C201.556 165.131 202.588 165.129 203.622 165.305Z" fill="#3D3C3C"/>
<path fill-rule="evenodd" clip-rule="evenodd" d="M143.262 56.1391C142.953 56.6548 142.643 57.1705 142.334 57.6868C142.439 57.0219 142.675 56.452 143.262 56.1391Z" fill="#3D3C3C"/>
<path fill-rule="evenodd" clip-rule="evenodd" d="M203.621 180.1C204.242 180.106 204.862 180.11 205.479 180.116C204.857 180.112 204.24 180.106 203.621 180.1Z" fill="#3D3C3C"/>
<path fill-rule="evenodd" clip-rule="evenodd" d="M217.86 146.427C217.137 146.388 216.416 146.349 215.693 146.31C216.416 146.349 217.137 146.388 217.86 146.427Z" fill="#3D3C3C"/>
<path fill-rule="evenodd" clip-rule="evenodd" d="M205.479 165.32C204.859 165.315 204.24 165.309 203.621 165.303C204.243 165.134 204.862 165.14 205.479 165.32Z" fill="#3D3C3C"/>
<path fill-rule="evenodd" clip-rule="evenodd" d="M230.113 77.4971C230.096 76.8777 230.078 76.2583 230.06 75.6399C230.078 76.2596 230.096 76.878 230.113 77.4971Z" fill="#3D3C3C"/>
<path fill-rule="evenodd" clip-rule="evenodd" d="M124.864 170.977C124.851 170.461 124.838 169.945 124.826 169.429C124.839 169.946 124.851 170.461 124.864 170.977Z" fill="#3D3C3C"/>
<path fill-rule="evenodd" clip-rule="evenodd" d="M141.714 145.749C142.129 145.749 142.542 145.75 142.953 145.75C142.538 145.75 142.126 145.75 141.714 145.749Z" fill="#3D3C3C"/>
<path fill-rule="evenodd" clip-rule="evenodd" d="M197.121 34.5704C196.605 34.6078 196.089 34.645 195.574 34.6824C196.09 34.645 196.606 34.6078 197.121 34.5704Z" fill="#3D3C3C"/>
<path fill-rule="evenodd" clip-rule="evenodd" d="M236.123 147.613C235.504 147.609 234.884 147.605 234.266 147.601C234.884 147.605 235.504 147.609 236.123 147.613Z" fill="#3D3C3C"/>
<path fill-rule="evenodd" clip-rule="evenodd" d="M183.989 185.835C183.974 185.421 183.958 185.007 183.943 184.596C183.958 185.01 183.974 185.423 183.989 185.835Z" fill="#3D3C3C"/>
<path fill-rule="evenodd" clip-rule="evenodd" d="M184.602 170.048C184.591 169.635 184.58 169.222 184.569 168.81C184.58 169.223 184.591 169.636 184.602 170.048Z" fill="#3D3C3C"/>
<path fill-rule="evenodd" clip-rule="evenodd" d="M174.039 177.168C174.054 177.581 174.069 177.994 174.083 178.406C174.068 177.992 174.054 177.58 174.039 177.168Z" fill="#3D3C3C"/>
<path fill-rule="evenodd" clip-rule="evenodd" d="M144.191 145.447C144.501 145.442 144.812 145.438 145.119 145.434C144.808 145.438 144.499 145.442 144.191 145.447Z" fill="#3D3C3C"/>
<path fill-rule="evenodd" clip-rule="evenodd" d="M233.956 161.556C234.266 161.543 234.577 161.529 234.885 161.516C234.573 161.53 234.264 161.543 233.956 161.556Z" fill="#3D3C3C"/>
<path fill-rule="evenodd" clip-rule="evenodd" d="M174.654 187.073C174.671 187.486 174.689 187.9 174.707 188.311C174.689 187.896 174.671 187.485 174.654 187.073Z" fill="#3D3C3C"/>
<path fill-rule="evenodd" clip-rule="evenodd" d="M207.832 184.906C207.811 185.32 207.79 185.733 207.769 186.144C207.79 185.731 207.811 185.318 207.832 184.906Z" fill="#3D3C3C"/>
<path fill-rule="evenodd" clip-rule="evenodd" d="M172.156 0.468093C171.718 0.412376 171.281 0.357124 170.843 0.301407C171.277 0.401697 171.752 0.02979 172.156 0.468093Z" fill="#3D3C3C"/>
<path fill-rule="evenodd" clip-rule="evenodd" d="M153.34 159.215C153.328 159.628 153.316 160.041 153.304 160.453C153.315 160.039 153.328 159.627 153.34 159.215Z" fill="#3D3C3C"/>
<path fill-rule="evenodd" clip-rule="evenodd" d="M126.734 196.978C126.713 196.565 126.691 196.152 126.67 195.74C126.691 196.153 126.713 196.565 126.734 196.978Z" fill="#3D3C3C"/>
<path fill-rule="evenodd" clip-rule="evenodd" d="M226.837 162.165C227.148 162.158 227.458 162.151 227.765 162.146C227.454 162.152 227.145 162.159 226.837 162.165Z" fill="#3D3C3C"/>
<path fill-rule="evenodd" clip-rule="evenodd" d="M121.746 87.0927C121.748 87.5062 121.751 87.9194 121.753 88.3308C121.75 87.917 121.748 87.505 121.746 87.0927Z" fill="#3D3C3C"/>
<path fill-rule="evenodd" clip-rule="evenodd" d="M115.252 179.953C115.25 180.367 115.249 180.78 115.247 181.192C115.248 180.778 115.25 180.365 115.252 179.953Z" fill="#3D3C3C"/>
<path fill-rule="evenodd" clip-rule="evenodd" d="M192.399 177.477C192.387 177.89 192.377 178.304 192.365 178.715C192.195 178.291 192.214 177.88 192.399 177.477Z" fill="#3D3C3C"/>
<path fill-rule="evenodd" clip-rule="evenodd" d="M184.281 175.62C184.277 175.207 184.274 174.794 184.271 174.382C184.274 174.796 184.277 175.208 184.281 175.62Z" fill="#3D3C3C"/>
<path fill-rule="evenodd" clip-rule="evenodd" d="M247.576 212.287C247.887 212.296 248.197 212.304 248.504 212.313C248.192 212.304 247.884 212.296 247.576 212.287Z" fill="#3D3C3C"/>
<path fill-rule="evenodd" clip-rule="evenodd" d="M236.432 172.994C236.64 172.99 236.847 172.987 237.052 172.983C236.843 172.987 236.638 172.99 236.432 172.994Z" fill="#3D3C3C"/>
<path fill-rule="evenodd" clip-rule="evenodd" d="M228.694 173.918C228.902 173.917 229.108 173.917 229.313 173.917C229.105 173.917 228.899 173.918 228.694 173.918Z" fill="#3D3C3C"/>
<path fill-rule="evenodd" clip-rule="evenodd" d="M108.148 175.929C108.136 175.62 108.123 175.31 108.111 175.001C108.124 175.311 108.136 175.621 108.148 175.929Z" fill="#3D3C3C"/>
<path fill-rule="evenodd" clip-rule="evenodd" d="M234.885 175.695C234.616 175.967 234.27 175.806 233.956 175.823C234.266 175.78 234.575 175.738 234.885 175.695Z" fill="#3D3C3C"/>
<path fill-rule="evenodd" clip-rule="evenodd" d="M198.05 165.791C197.641 165.984 197.228 166.011 196.812 165.805C197.225 165.8 197.637 165.796 198.05 165.791Z" fill="#3D3C3C"/>
<path fill-rule="evenodd" clip-rule="evenodd" d="M224.979 176.399C224.567 176.396 224.154 176.392 223.741 176.388C224.154 176.392 224.567 176.396 224.979 176.399Z" fill="#3D3C3C"/>
<path fill-rule="evenodd" clip-rule="evenodd" d="M207.646 165.616C207.233 165.579 206.82 165.541 206.407 165.504C206.82 165.541 207.233 165.579 207.646 165.616Z" fill="#3D3C3C"/>
<path fill-rule="evenodd" clip-rule="evenodd" d="M113.094 164.167C113.087 164.478 113.079 164.787 113.07 165.096C113.078 164.785 113.086 164.476 113.094 164.167Z" fill="#3D3C3C"/>
<path fill-rule="evenodd" clip-rule="evenodd" d="M184.252 180.882C184.268 180.572 184.284 180.262 184.299 179.953C184.284 180.264 184.268 180.573 184.252 180.882Z" fill="#3D3C3C"/>
<path fill-rule="evenodd" clip-rule="evenodd" d="M226.837 163.032C226.424 163.066 226.011 163.101 225.599 163.136C226.012 163.101 226.424 163.066 226.837 163.032Z" fill="#3D3C3C"/>
<path fill-rule="evenodd" clip-rule="evenodd" d="M124.857 162C124.849 161.69 124.84 161.38 124.832 161.072C124.84 161.383 124.849 161.691 124.857 162Z" fill="#3D3C3C"/>
<path fill-rule="evenodd" clip-rule="evenodd" d="M176.574 138.166C176.549 138.476 176.525 138.786 176.501 139.095C176.525 138.785 176.55 138.476 176.574 138.166Z" fill="#3D3C3C"/>
<path fill-rule="evenodd" clip-rule="evenodd" d="M233.028 147.533C232.614 147.747 232.202 147.72 231.789 147.53C232.202 147.531 232.615 147.532 233.028 147.533Z" fill="#3D3C3C"/>
<path fill-rule="evenodd" clip-rule="evenodd" d="M183.994 190.478C183.975 190.167 183.957 189.858 183.939 189.549C183.957 189.859 183.975 190.168 183.994 190.478Z" fill="#3D3C3C"/>
<path fill-rule="evenodd" clip-rule="evenodd" d="M183.985 192.954C183.972 192.644 183.959 192.334 183.946 192.025C183.96 192.335 183.973 192.644 183.985 192.954Z" fill="#3D3C3C"/>
<path fill-rule="evenodd" clip-rule="evenodd" d="M125.457 152.095C125.462 151.785 125.466 151.475 125.47 151.167C125.466 151.477 125.462 151.786 125.457 152.095Z" fill="#3D3C3C"/>
<path fill-rule="evenodd" clip-rule="evenodd" d="M213.527 201.474C213.734 201.469 213.941 201.463 214.146 201.457C213.937 201.464 213.732 201.469 213.527 201.474Z" fill="#3D3C3C"/>
<path fill-rule="evenodd" clip-rule="evenodd" d="M113.727 204.097C113.71 203.787 113.693 203.477 113.676 203.169C113.694 203.478 113.71 203.788 113.727 204.097Z" fill="#3D3C3C"/>
<path fill-rule="evenodd" clip-rule="evenodd" d="M180.716 206.722C180.923 206.726 181.131 206.73 181.335 206.735C181.127 206.73 180.921 206.726 180.716 206.722Z" fill="#3D3C3C"/>
<path fill-rule="evenodd" clip-rule="evenodd" d="M225.599 147.344C225.186 147.313 224.773 147.282 224.36 147.251C224.773 147.282 225.186 147.313 225.599 147.344Z" fill="#3D3C3C"/>
<path fill-rule="evenodd" clip-rule="evenodd" d="M227.765 147.671L226.837 147.543L227.765 147.671Z" fill="#3D3C3C"/>
<path fill-rule="evenodd" clip-rule="evenodd" d="M180.845 180.263C180.862 179.334 180.879 178.405 180.897 177.477C180.879 178.406 180.862 179.334 180.845 180.263Z" fill="#3D3C3C"/>
<path fill-rule="evenodd" clip-rule="evenodd" d="M156.711 146.214C156.721 146.937 156.732 147.66 156.743 148.381C156.733 147.657 156.722 146.936 156.711 146.214Z" fill="#3D3C3C"/>
<path fill-rule="evenodd" clip-rule="evenodd" d="M103.332 191.551C102.815 191.558 102.298 191.564 101.784 191.571C102.302 191.564 102.817 191.558 103.332 191.551Z" fill="#3D3C3C"/>
<path fill-rule="evenodd" clip-rule="evenodd" d="M145.738 129.975C145.221 129.967 144.704 129.959 144.191 129.951C144.709 129.96 145.224 129.968 145.738 129.975Z" fill="#3D3C3C"/>
<path fill-rule="evenodd" clip-rule="evenodd" d="M132.428 142.036C132.944 142.036 133.46 142.035 133.976 142.035C133.46 142.035 132.944 142.036 132.428 142.036Z" fill="#3D3C3C"/>
<path fill-rule="evenodd" clip-rule="evenodd" d="M139.238 129.644C138.824 129.65 138.41 129.658 138 129.664C138.415 129.657 138.827 129.65 139.238 129.644Z" fill="#3D3C3C"/>
<path fill-rule="evenodd" clip-rule="evenodd" d="M105.808 191.564C105.394 191.562 104.98 191.56 104.57 191.558C104.985 191.56 105.397 191.562 105.808 191.564Z" fill="#3D3C3C"/>
<path fill-rule="evenodd" clip-rule="evenodd" d="M161.525 33.4421C162.04 33.4062 162.557 33.3703 163.072 33.3344C162.556 33.3703 162.04 33.4062 161.525 33.4421Z" fill="#3D3C3C"/>
<path fill-rule="evenodd" clip-rule="evenodd" d="M168.46 69.7587C168.48 69.2427 168.499 68.7267 168.518 68.211C168.498 68.7273 168.48 69.243 168.46 69.7587Z" fill="#3D3C3C"/>
<path fill-rule="evenodd" clip-rule="evenodd" d="M155.953 74.5562C155.643 74.5562 155.332 74.5565 155.024 74.5568C155.336 74.5568 155.644 74.5565 155.953 74.5562Z" fill="#3D3C3C"/>
<path fill-rule="evenodd" clip-rule="evenodd" d="M129.642 128.72C129.332 128.724 129.021 128.727 128.714 128.73C129.026 128.727 129.334 128.724 129.642 128.72Z" fill="#3D3C3C"/>
<path fill-rule="evenodd" clip-rule="evenodd" d="M122.523 141.366C122.936 141.4 123.349 141.433 123.761 141.467C123.348 141.433 122.936 141.4 122.523 141.366Z" fill="#3D3C3C"/>
<path fill-rule="evenodd" clip-rule="evenodd" d="M121.74 157.048C121.746 156.635 121.753 156.222 121.759 155.81C121.753 156.223 121.746 156.635 121.74 157.048Z" fill="#3D3C3C"/>
<path fill-rule="evenodd" clip-rule="evenodd" d="M157.191 140.548C157.604 140.508 158.017 140.467 158.429 140.427C158.017 140.467 157.604 140.508 157.191 140.548Z" fill="#3D3C3C"/>
<path fill-rule="evenodd" clip-rule="evenodd" d="M185.477 133.214C185.502 132.801 185.526 132.387 185.551 131.975C185.526 132.389 185.501 132.801 185.477 133.214Z" fill="#3D3C3C"/>
<path fill-rule="evenodd" clip-rule="evenodd" d="M190.931 76.1521C191.344 76.12 191.756 76.0878 192.169 76.0562C191.756 76.0878 191.344 76.12 190.931 76.1521Z" fill="#3D3C3C"/>
<path fill-rule="evenodd" clip-rule="evenodd" d="M148.834 130.278C148.523 130.275 148.212 130.271 147.905 130.269C148.217 130.271 148.525 130.275 148.834 130.278Z" fill="#3D3C3C"/>
<path fill-rule="evenodd" clip-rule="evenodd" d="M121.772 180.263C121.756 179.953 121.742 179.643 121.726 179.334C121.742 179.645 121.756 179.954 121.772 180.263Z" fill="#3D3C3C"/>
<path fill-rule="evenodd" clip-rule="evenodd" d="M156.477 164.477C157.153 166.154 156.774 164.966 156.791 165.354C156.215 165.431 156.11 165.138 156.477 164.477Z" fill="#3D3C3C"/>
<path fill-rule="evenodd" clip-rule="evenodd" d="M128.095 128.742C127.785 128.731 127.474 128.72 127.166 128.708C127.479 128.719 127.786 128.731 128.095 128.742Z" fill="#3D3C3C"/>
<path fill-rule="evenodd" clip-rule="evenodd" d="M191.365 97.3074C191.385 96.8944 191.405 96.4815 191.424 96.0692C191.404 96.4825 191.385 96.8951 191.365 97.3074Z" fill="#3D3C3C"/>
<path fill-rule="evenodd" clip-rule="evenodd" d="M121.751 177.168C121.75 176.755 121.749 176.342 121.748 175.929C121.749 176.343 121.75 176.756 121.751 177.168Z" fill="#3D3C3C"/>
<path fill-rule="evenodd" clip-rule="evenodd" d="M121.717 167.882C121.739 167.572 121.76 167.262 121.782 166.953C121.76 167.263 121.739 167.573 121.717 167.882Z" fill="#3D3C3C"/>
<path fill-rule="evenodd" clip-rule="evenodd" d="M186.09 127.332C186.118 127.022 186.147 126.713 186.176 126.404C186.147 126.714 186.118 127.023 186.09 127.332Z" fill="#3D3C3C"/>
<path fill-rule="evenodd" clip-rule="evenodd" d="M117.684 168.81C117.711 169.12 117.739 169.43 117.767 169.739C117.739 169.429 117.711 169.12 117.684 168.81Z" fill="#3D3C3C"/>
<path fill-rule="evenodd" clip-rule="evenodd" d="M117.06 166.334C117.091 166.644 117.121 166.954 117.152 167.262C117.121 166.952 117.091 166.643 117.06 166.334Z" fill="#3D3C3C"/>
<path fill-rule="evenodd" clip-rule="evenodd" d="M178.979 123.927C179.002 123.618 179.025 123.308 179.048 122.999C179.025 123.309 179.002 123.618 178.979 123.927Z" fill="#3D3C3C"/>
<path fill-rule="evenodd" clip-rule="evenodd" d="M20.9954 165.918C21.4077 165.886 21.8206 165.853 22.2336 165.821C21.8197 165.853 21.4074 165.886 20.9954 165.918Z" fill="#3D3C3C"/>
<path fill-rule="evenodd" clip-rule="evenodd" d="M176.246 173.453C176.234 173.763 176.221 174.074 176.21 174.382C176.222 174.071 176.234 173.762 176.246 173.453Z" fill="#3D3C3C"/>
<path fill-rule="evenodd" clip-rule="evenodd" d="M181.146 174.382C181.169 174.072 181.192 173.762 181.215 173.453C181.192 173.763 181.169 174.073 181.146 174.382Z" fill="#3D3C3C"/>
<path fill-rule="evenodd" clip-rule="evenodd" d="M179.274 122.689C179.307 122.379 179.34 122.07 179.372 121.761C179.339 122.071 179.307 122.38 179.274 122.689Z" fill="#3D3C3C"/>
<path fill-rule="evenodd" clip-rule="evenodd" d="M23.4718 165.621C23.8847 165.58 24.2976 165.54 24.7099 165.499C24.2976 165.54 23.8841 165.58 23.4718 165.621Z" fill="#3D3C3C"/>
<path fill-rule="evenodd" clip-rule="evenodd" d="M154.715 129.96C154.508 129.962 154.3 129.965 154.096 129.967C154.304 129.965 154.51 129.962 154.715 129.96Z" fill="#3D3C3C"/>
<path fill-rule="evenodd" clip-rule="evenodd" d="M121.751 165.096C121.75 164.786 121.749 164.476 121.748 164.167C121.749 164.478 121.75 164.786 121.751 165.096Z" fill="#3D3C3C"/>
<path fill-rule="evenodd" clip-rule="evenodd" d="M181.823 164.477C181.713 164.157 181.66 163.841 181.872 163.548C181.856 163.858 181.839 164.167 181.823 164.477Z" fill="#3D3C3C"/>
<path fill-rule="evenodd" clip-rule="evenodd" d="M176.55 158.595C176.542 158.905 176.533 159.215 176.524 159.524C176.533 159.214 176.542 158.904 176.55 158.595Z" fill="#3D3C3C"/>
<path fill-rule="evenodd" clip-rule="evenodd" d="M176.818 189.24C176.837 189.549 176.857 189.86 176.876 190.168C176.857 189.858 176.837 189.548 176.818 189.24Z" fill="#3D3C3C"/>
<path fill-rule="evenodd" clip-rule="evenodd" d="M199.598 76.6573C199.907 76.7016 200.217 76.7456 200.526 76.7895C200.216 76.7453 199.907 76.701 199.598 76.6573Z" fill="#3D3C3C"/>
<path fill-rule="evenodd" clip-rule="evenodd" d="M198.359 76.6861C198.775 76.7112 199.231 76.5115 199.597 76.804L198.359 76.6861Z" fill="#3D3C3C"/>
<path fill-rule="evenodd" clip-rule="evenodd" d="M145.429 142.038C145.841 142.037 146.255 142.034 146.667 142.032C146.254 142.034 145.841 142.037 145.429 142.038Z" fill="#3D3C3C"/>
<path fill-rule="evenodd" clip-rule="evenodd" d="M154.715 76.3598L155.953 76.4675C155.54 76.4316 155.128 76.3957 154.715 76.3598Z" fill="#3D3C3C"/>
<path fill-rule="evenodd" clip-rule="evenodd" d="M134.286 141.954C134.699 141.956 135.111 141.958 135.524 141.96C135.109 142.159 134.697 142.179 134.286 141.954Z" fill="#3D3C3C"/>
<path fill-rule="evenodd" clip-rule="evenodd" d="M123.023 193.883C123 193.572 122.976 193.262 122.952 192.954C122.976 193.264 123 193.573 123.023 193.883Z" fill="#3D3C3C"/>
<path fill-rule="evenodd" clip-rule="evenodd" d="M168.173 76.878C168.178 76.5678 168.182 76.2583 168.187 75.9494C168.182 76.2599 168.178 76.5691 168.173 76.878Z" fill="#3D3C3C"/>
<path fill-rule="evenodd" clip-rule="evenodd" d="M142.024 142.085C142.437 142.052 142.85 142.019 143.262 141.985C142.849 142.019 142.437 142.052 142.024 142.085Z" fill="#3D3C3C"/>
<path fill-rule="evenodd" clip-rule="evenodd" d="M177.146 196.668C177.152 196.978 177.16 197.288 177.167 197.597C177.16 197.286 177.152 196.978 177.146 196.668Z" fill="#3D3C3C"/>
<path fill-rule="evenodd" clip-rule="evenodd" d="M178.24 69.044C178.652 69.0047 179.065 68.9654 179.478 68.926C179.065 68.9654 178.652 69.0047 178.24 69.044Z" fill="#3D3C3C"/>
<path fill-rule="evenodd" clip-rule="evenodd" d="M183.614 148.071C183.642 147.761 183.671 147.452 183.699 147.143C183.671 147.453 183.642 147.762 183.614 148.071Z" fill="#3D3C3C"/>
<path fill-rule="evenodd" clip-rule="evenodd" d="M197.86 65.4252C197.884 65.115 197.907 64.8055 197.93 64.4966C197.907 64.8067 197.883 65.116 197.86 65.4252Z" fill="#3D3C3C"/>
<path fill-rule="evenodd" clip-rule="evenodd" d="M168.48 38.8051C168.486 39.1149 168.492 39.4251 168.498 39.7337C168.492 39.4232 168.487 39.114 168.48 38.8051Z" fill="#3D3C3C"/>
<path fill-rule="evenodd" clip-rule="evenodd" d="M157.501 33.027C157.913 33.0614 158.327 33.096 158.739 33.1301C158.326 33.0957 157.913 33.0614 157.501 33.027Z" fill="#3D3C3C"/>
<path fill-rule="evenodd" clip-rule="evenodd" d="M95.5936 208.956C96.0065 208.915 96.4188 208.875 96.8317 208.834C96.4188 208.875 96.0065 208.915 95.5936 208.956Z" fill="#3D3C3C"/>
<path fill-rule="evenodd" clip-rule="evenodd" d="M158.12 29.9837C157.913 29.9834 157.705 29.983 157.501 29.983C157.709 29.9837 157.914 29.9837 158.12 29.9837Z" fill="#3D3C3C"/>
<path fill-rule="evenodd" clip-rule="evenodd" d="M81.9741 212.987C82.3873 212.774 82.7996 212.835 83.2122 212.989C82.7996 212.988 82.3864 212.988 81.9741 212.987Z" fill="#3D3C3C"/>
<path fill-rule="evenodd" clip-rule="evenodd" d="M242.623 195.021C243.345 194.984 244.068 194.947 244.79 194.911C244.068 194.947 243.345 194.985 242.623 195.021Z" fill="#3D3C3C"/>
<path fill-rule="evenodd" clip-rule="evenodd" d="M242.623 189.69C242.209 189.699 241.795 189.709 241.385 189.718C241.8 189.709 242.211 189.699 242.623 189.69Z" fill="#3D3C3C"/>
<path fill-rule="evenodd" clip-rule="evenodd" d="M236.432 183.551C236.948 183.511 237.464 183.472 237.98 183.433C237.499 183.735 236.948 183.511 236.432 183.551Z" fill="#3D3C3C"/>
<path fill-rule="evenodd" clip-rule="evenodd" d="M230.551 184.188C231.067 184.151 231.583 184.114 232.099 184.076C231.583 184.114 231.067 184.151 230.551 184.188Z" fill="#3D3C3C"/>
<path fill-rule="evenodd" clip-rule="evenodd" d="M221.884 189.752C222.297 189.72 222.71 189.688 223.122 189.655C222.71 189.688 222.297 189.72 221.884 189.752Z" fill="#3D3C3C"/>
<path fill-rule="evenodd" clip-rule="evenodd" d="M224.051 189.753C224.464 189.72 224.877 189.687 225.289 189.655C224.877 189.687 224.464 189.72 224.051 189.753Z" fill="#3D3C3C"/>
<path fill-rule="evenodd" clip-rule="evenodd" d="M225.599 189.449C226.011 189.412 226.424 189.376 226.837 189.339C226.424 189.376 226.012 189.412 225.599 189.449Z" fill="#3D3C3C"/>
<path fill-rule="evenodd" clip-rule="evenodd" d="M227.765 178.867C227.455 178.869 227.145 178.872 226.837 178.873C227.149 178.87 227.457 178.869 227.765 178.867Z" fill="#3D3C3C"/>
<path fill-rule="evenodd" clip-rule="evenodd" d="M235.504 195.92C235.916 195.885 236.329 195.85 236.742 195.815C236.357 196.086 235.922 195.93 235.504 195.92Z" fill="#3D3C3C"/>
<path fill-rule="evenodd" clip-rule="evenodd" d="M223.741 171.191C224.154 171.151 224.567 171.112 224.979 171.073C224.567 171.112 224.154 171.151 223.741 171.191Z" fill="#3D3C3C"/>
<path fill-rule="evenodd" clip-rule="evenodd" d="M222.194 166.18C221.883 166.179 221.573 166.179 221.265 166.178C221.577 166.179 221.885 166.179 222.194 166.18Z" fill="#3D3C3C"/>
<path fill-rule="evenodd" clip-rule="evenodd" d="M219.098 166.797C218.891 166.798 218.684 166.799 218.479 166.799C218.688 166.798 218.893 166.798 219.098 166.797Z" fill="#3D3C3C"/>
<path fill-rule="evenodd" clip-rule="evenodd" d="M211.669 167.659C211.565 167.913 211.019 167.881 211.052 167.62C211.257 167.633 211.463 167.646 211.669 167.659Z" fill="#3D3C3C"/>
<path fill-rule="evenodd" clip-rule="evenodd" d="M197.257 168.81C197.27 169.12 197.283 169.43 197.295 169.739C197.282 169.429 197.27 169.119 197.257 168.81Z" fill="#3D3C3C"/>
<path fill-rule="evenodd" clip-rule="evenodd" d="M239.528 170.451C239.837 170.446 240.147 170.441 240.456 170.436C240.15 170.654 239.841 170.623 239.528 170.451Z" fill="#3D3C3C"/>
<path fill-rule="evenodd" clip-rule="evenodd" d="M227.765 165.865C227.558 165.868 227.351 165.871 227.146 165.874C227.355 165.871 227.56 165.868 227.765 165.865Z" fill="#3D3C3C"/>
<path fill-rule="evenodd" clip-rule="evenodd" d="M219.717 185.428C220.13 185.39 220.543 185.351 220.956 185.312C220.543 185.351 220.13 185.39 219.717 185.428Z" fill="#3D3C3C"/>
<path fill-rule="evenodd" clip-rule="evenodd" d="M214.765 186.043L216.003 185.936L214.765 186.043Z" fill="#3D3C3C"/>
<path fill-rule="evenodd" clip-rule="evenodd" d="M238.909 195.334C239.321 195.295 239.734 195.256 240.147 195.217C239.734 195.256 239.321 195.295 238.909 195.334Z" fill="#3D3C3C"/>
<path fill-rule="evenodd" clip-rule="evenodd" d="M224.051 197.197C224.465 197.046 224.878 196.995 225.289 197.201C224.876 197.2 224.464 197.199 224.051 197.197Z" fill="#3D3C3C"/>
<path fill-rule="evenodd" clip-rule="evenodd" d="M223.395 154.531L222.813 154.329C223.535 154.32 224.257 154.312 224.979 154.303C224.981 154.303 223.478 154.537 223.395 154.531Z" fill="#3D3C3C"/>
<path fill-rule="evenodd" clip-rule="evenodd" d="M217.86 149.155C217.343 149.155 216.826 149.154 216.313 149.154C216.83 149.155 217.346 149.155 217.86 149.155Z" fill="#3D3C3C"/>
<path fill-rule="evenodd" clip-rule="evenodd" d="M198.359 160.987C198.874 160.781 199.39 160.821 199.907 160.982C199.391 160.983 198.875 160.985 198.359 160.987Z" fill="#3D3C3C"/>
<path fill-rule="evenodd" clip-rule="evenodd" d="M229.623 155.959C229.312 155.963 229.001 155.966 228.694 155.97C229.006 155.966 229.314 155.963 229.623 155.959Z" fill="#3D3C3C"/>
<path fill-rule="evenodd" clip-rule="evenodd" d="M223.122 151.89C223.638 151.923 224.154 151.957 224.67 151.991C224.154 151.957 223.638 151.923 223.122 151.89Z" fill="#3D3C3C"/>
<path fill-rule="evenodd" clip-rule="evenodd" d="M216.622 155.091C217.138 155.054 217.654 155.018 218.17 154.981C217.654 155.018 217.138 155.054 216.622 155.091Z" fill="#3D3C3C"/>
<path fill-rule="evenodd" clip-rule="evenodd" d="M220.646 154.469C221.059 154.434 221.471 154.399 221.884 154.364C221.471 154.399 221.059 154.434 220.646 154.469Z" fill="#3D3C3C"/>
<path fill-rule="evenodd" clip-rule="evenodd" d="M217.241 151.58C217.654 151.614 218.067 151.648 218.479 151.682C218.066 151.648 217.654 151.614 217.241 151.58Z" fill="#3D3C3C"/>
<path fill-rule="evenodd" clip-rule="evenodd" d="M211.36 157.519C211.153 157.514 210.946 157.51 210.741 157.506C210.949 157.51 211.154 157.514 211.36 157.519Z" fill="#3D3C3C"/>
<path fill-rule="evenodd" clip-rule="evenodd" d="M217.86 154.436C217.653 154.423 217.446 154.41 217.241 154.398C217.449 154.41 217.655 154.423 217.86 154.436Z" fill="#3D3C3C"/>
<path fill-rule="evenodd" clip-rule="evenodd" d="M213.836 154.425C213.629 154.419 213.422 154.413 213.217 154.408C213.425 154.414 213.631 154.419 213.836 154.425Z" fill="#3D3C3C"/>
<path fill-rule="evenodd" clip-rule="evenodd" d="M224.98 154.137C224.98 154.217 225.912 153.811 225.908 154.189L224.98 154.137Z" fill="#3D3C3C"/>
<path fill-rule="evenodd" clip-rule="evenodd" d="M221.575 149.154C221.367 149.154 221.16 149.155 220.956 149.155C221.164 149.155 221.369 149.154 221.575 149.154Z" fill="#3D3C3C"/>
<path fill-rule="evenodd" clip-rule="evenodd" d="M111.689 134.475C112.025 133.107 111.933 132.037 113.127 132.911C113.782 133.391 114.863 135.825 114.78 136.649C114.68 137.666 114.216 138.071 113.259 137.748C112.159 137.375 111.722 135.499 111.689 134.475Z" fill="#3D3C3C"/>
<path fill-rule="evenodd" clip-rule="evenodd" d="M171.996 126.171C174.769 126.171 173.559 129.121 171.248 129.187C170.187 129.217 168.659 129.008 169.003 127.586C169.187 126.828 171.881 125.805 171.996 126.171Z" fill="#3D3C3C"/>
<path fill-rule="evenodd" clip-rule="evenodd" d="M142.264 131.975C144.265 132.944 141.449 137.195 139.631 136.143C137.303 134.796 141.441 132.582 142.264 131.975Z" fill="#3D3C3C"/>
<path fill-rule="evenodd" clip-rule="evenodd" d="M137.395 135.999C138.05 136.714 141.001 139.136 139.374 140.11C137.374 141.308 135.851 137.354 137.395 135.999Z" fill="#3D3C3C"/>
<path fill-rule="evenodd" clip-rule="evenodd" d="M103.851 134.142C103.2 132.883 104.096 129.589 106.084 130.191C108.084 130.797 104.952 133.808 103.851 134.142Z" fill="#3D3C3C"/>
<path fill-rule="evenodd" clip-rule="evenodd" d="M148.01 134.868C149.308 134.345 149.061 135.891 149.257 136.39C149.479 136.956 150.622 138.336 150.335 138.939C149.91 139.834 148.893 139.263 148.341 138.683C147.373 137.664 147.442 136.03 148.01 134.868Z" fill="#3D3C3C"/>
<path fill-rule="evenodd" clip-rule="evenodd" d="M128.231 136.3C127.149 136.3 124.567 133.182 126.084 132.658C127.968 132.009 129.542 136.53 128.231 136.3Z" fill="#3D3C3C"/>
<path fill-rule="evenodd" clip-rule="evenodd" d="M165.613 131.356C166.604 131.601 167.915 134.406 166.422 134.731C164.769 135.091 164.474 132.132 165.613 131.356Z" fill="#3D3C3C"/>
<path fill-rule="evenodd" clip-rule="evenodd" d="M159.607 136.618C158.829 135.122 158.638 131.919 160.535 134.49C160.946 135.047 161.37 134.822 161.159 135.74C160.975 136.542 160.238 136.618 159.607 136.618Z" fill="#3D3C3C"/>
<path fill-rule="evenodd" clip-rule="evenodd" d="M118.68 128.88C119.472 130.072 119.239 133.81 117.584 131.599C116.88 130.659 117.365 128.925 118.68 128.88Z" fill="#3D3C3C"/>
<path fill-rule="evenodd" clip-rule="evenodd" d="M158.487 16.5488C160.024 16.1521 160.392 19.7746 159.496 20.1739C158.242 20.7327 158.399 17.1548 158.487 16.5488Z" fill="#3D3C3C"/>
<path fill-rule="evenodd" clip-rule="evenodd" d="M255.672 200.584C254.246 200.5 252.248 200.111 254.408 199.099C255.779 198.458 257.816 198.414 259.263 198.677C260.261 198.858 261.758 199.685 260.236 200.757C259.345 201.384 256.755 200.614 255.672 200.584Z" fill="#3D3C3C"/>
<path fill-rule="evenodd" clip-rule="evenodd" d="M254.074 203.169C253.661 203.122 253.249 203.075 252.838 203.03C253.168 202.429 254.129 202.303 254.074 203.169Z" fill="#3D3C3C"/>
<path fill-rule="evenodd" clip-rule="evenodd" d="M255.933 200.524C256.347 200.533 256.761 200.543 257.171 200.551C256.756 200.542 256.345 200.533 255.933 200.524Z" fill="#3D3C3C"/>
</svg>
